<svg width="135" height="40" viewBox="0 0 135 40" fill="none" xmlns="http://www.w3.org/2000/svg">
<g clip-path="url(#clip0_480_144)">
<path d="M129.196 40H5.26443C2.53966 40 0.307678 37.7494 0.307678 35.0007V5.00044C0.307678 2.25174 2.53966 0 5.26443 0H129.196C131.921 0 134.153 2.25174 134.153 5.00044V35.0007C134.154 37.7494 131.922 40 129.196 40Z" fill="black"/>
<path d="M129.196 0.801078C131.492 0.801078 133.358 2.68485 133.358 5.00053V35.0013C133.358 37.3158 131.491 39.2008 129.196 39.2008H5.26443C2.96867 39.2008 1.10192 37.317 1.10192 35.0013V5.00053C1.10192 2.68604 2.96983 0.801078 5.26443 0.801078H129.196ZM129.196 0H5.26443C2.53966 0 0.307678 2.25178 0.307678 5.00053V35.0013C0.307678 37.7501 2.53966 40.0019 5.26443 40.0019H129.196C131.921 40.0019 134.153 37.7501 134.153 35.0013V5.00053C134.154 2.25178 131.922 0 129.196 0Z" fill="#A6A6A6"/>
<path d="M44.3958 13.2154C43.5227 13.2154 42.769 12.9054 42.1533 12.2936C41.5388 11.676 41.2281 10.9045 41.2281 9.9993C41.2281 9.09292 41.54 8.32262 42.1533 7.70969C42.7667 7.09558 43.5215 6.7832 44.3958 6.7832C44.8201 6.7832 45.241 6.87076 45.6468 7.04352C46.0492 7.21628 46.3715 7.44938 46.6069 7.73454L46.6533 7.79134L46.0237 8.43266L45.968 8.3664C45.5831 7.90848 45.0694 7.68721 44.3958 7.68721C43.794 7.68721 43.2653 7.90256 42.8247 8.32854C42.3876 8.75569 42.1661 9.31774 42.1661 9.9993C42.1661 10.6844 42.3876 11.2476 42.8247 11.6748C43.2699 12.0996 43.7998 12.3149 44.3958 12.3149C45.037 12.3149 45.5761 12.0984 46.0016 11.6701C46.2625 11.405 46.4156 11.0524 46.4677 10.5921H44.3169V9.70821H47.3397L47.3536 9.77093C47.3849 9.91528 47.4 10.0644 47.4 10.2419C47.4 11.0938 47.1449 11.7872 46.6405 12.3019C46.0642 12.9077 45.3094 13.2154 44.3958 13.2154Z" fill="white"/>
<path d="M51.9679 13.0784H48.3387V6.92188H51.9679V7.81997H49.2628V9.55817H51.7024V10.4421H49.2628V12.1803H51.9679V13.0784Z" fill="white"/>
<path d="M55.1927 13.0784H54.2686V7.81997H52.6083V6.92188H56.8531V7.81997H55.1927V13.0784Z" fill="white"/>
<path d="M60.5746 13.0784H59.6516V6.92188H60.5746V13.0784Z" fill="white"/>
<path d="M63.9653 13.0784H63.047V7.81997H61.3808V6.92188H65.6303V7.81997H63.9641V13.0784H63.9653Z" fill="white"/>
<path d="M71.1079 13.216C70.2195 13.216 69.4657 12.9024 68.8673 12.2835C68.27 11.6659 67.9673 10.898 67.9673 10.001C67.9673 9.10413 68.27 8.33502 68.8673 7.71854C69.4657 7.0997 70.2195 6.78613 71.1079 6.78613C71.9904 6.78613 72.7407 7.10206 73.3391 7.72446C73.9387 8.34448 74.2437 9.11123 74.2437 10.0022C74.2437 10.8991 73.941 11.6671 73.3438 12.2847C72.7454 12.9024 71.9927 13.216 71.1079 13.216ZM69.5457 11.6671C69.976 12.1049 70.4862 12.3167 71.1079 12.3167C71.7225 12.3167 72.2455 12.0978 72.6642 11.6671C73.0898 11.234 73.3044 10.6731 73.3044 9.99986C73.3044 9.32659 73.0886 8.76572 72.6642 8.33265C72.2444 7.90076 71.7213 7.68304 71.1079 7.68304C70.4874 7.68304 69.976 7.89603 69.5457 8.33265C69.1213 8.76572 68.9067 9.32659 68.9067 9.99986C68.9056 10.6731 69.1213 11.234 69.5457 11.6671Z" fill="white"/>
<path d="M79.9011 13.0784H78.9805L78.9573 13.0405L76.0505 8.3406L76.0772 9.25999V13.0784H75.1589V6.92188H76.2105L79.0048 11.4301L78.9782 10.5154V6.92188H79.9011V13.0784Z" fill="white"/>
<path d="M67.8602 21.7527C65.532 21.7527 63.6293 23.5406 63.6293 26.0065C63.6293 28.4523 65.532 30.2591 67.8602 30.2591C70.1942 30.2591 72.0957 28.4523 72.0957 26.0065C72.0969 23.5406 70.1942 21.7527 67.8602 21.7527ZM67.8602 28.5836C66.5824 28.5836 65.4833 27.5199 65.4833 26.0065C65.4833 24.473 66.5824 23.4282 67.8602 23.4282C69.1379 23.4282 70.2417 24.473 70.2417 26.0065C70.2429 27.5199 69.1379 28.5836 67.8602 28.5836ZM58.6285 21.7527C56.2944 21.7527 54.3975 23.5406 54.3975 26.0065C54.3975 28.4523 56.2944 30.2591 58.6285 30.2591C60.9613 30.2591 62.8594 28.4523 62.8594 26.0065C62.8594 23.5406 60.9613 21.7527 58.6285 21.7527ZM58.6285 28.5836C57.3496 28.5836 56.2469 27.5199 56.2469 26.0065C56.2469 24.473 57.3496 23.4282 58.6285 23.4282C59.9062 23.4282 61.0054 24.473 61.0054 26.0065C61.0054 27.5199 59.9062 28.5836 58.6285 28.5836ZM47.6436 23.0566V24.8647H51.9232C51.798 25.8752 51.4629 26.6171 50.9504 27.1341C50.3255 27.7589 49.3527 28.4535 47.6436 28.4535C45.0104 28.4535 42.9477 26.3094 42.9477 23.653C42.9477 20.9966 45.0104 18.8525 47.6436 18.8525C49.0674 18.8525 50.104 19.4134 50.8681 20.1411L52.1308 18.8679C51.0617 17.8385 49.6391 17.0469 47.6436 17.0469C44.0318 17.0469 40.9975 20.0109 40.9975 23.653C40.9975 27.2951 44.033 30.2591 47.6436 30.2591C49.595 30.2591 51.0617 29.6142 52.2142 28.4038C53.3957 27.2122 53.7633 25.5379 53.7633 24.1855C53.7633 23.7654 53.7285 23.3797 53.6671 23.0566C53.6671 23.0566 47.6436 23.0566 47.6436 23.0566ZM92.5639 24.4576C92.2161 23.5063 91.1413 21.7527 88.9522 21.7527C86.7828 21.7527 84.9775 23.4767 84.9775 26.0065C84.9775 28.3896 86.7642 30.2591 89.1597 30.2591C91.0972 30.2591 92.2149 29.0676 92.6741 28.3742L91.2363 27.4075C90.7563 28.1151 90.1035 28.5836 89.1597 28.5836C88.2217 28.5836 87.548 28.1494 87.1179 27.2951L92.7575 24.9416C92.7587 24.9416 92.5639 24.4576 92.5639 24.4576ZM86.8129 25.874C86.7642 24.234 88.0756 23.3939 89.0148 23.3939C89.751 23.3939 90.376 23.7654 90.5835 24.2967C90.5847 24.2967 86.8129 25.874 86.8129 25.874ZM82.2295 30H84.0835V17.5001H82.2295V30ZM79.1929 22.7005H79.1314C78.7152 22.2035 77.9209 21.7527 76.9145 21.7527C74.8031 21.7527 72.8714 23.6222 72.8714 26.0207C72.8714 28.405 74.8019 30.2591 76.9145 30.2591C77.9209 30.2591 78.7152 29.8059 79.1314 29.2924H79.1929V29.903C79.1929 31.5288 78.3314 32.4032 76.9423 32.4032C75.8095 32.4032 75.1069 31.5785 74.817 30.8839L73.2042 31.5631C73.6691 32.6907 74.8993 34.0787 76.9423 34.0787C79.1163 34.0787 80.9506 32.7889 80.9506 29.6497V22.0118H79.1929V22.7005V22.7005ZM77.0722 28.5836C75.7945 28.5836 74.7254 27.5045 74.7254 26.0195C74.7254 24.5203 75.7945 23.427 77.0722 23.427C78.3314 23.427 79.3239 24.5203 79.3239 26.0195C79.3239 27.5057 78.3314 28.5836 77.0722 28.5836ZM101.244 17.5001H96.8099V30H98.6593V25.2634H101.245C103.298 25.2634 105.312 23.7642 105.312 21.3811C105.311 18.9992 103.293 17.5001 101.244 17.5001ZM101.292 23.5252H98.6593V19.2395H101.292C102.673 19.2395 103.461 20.3955 103.461 21.3823C103.461 22.349 102.672 23.5252 101.292 23.5252ZM112.723 21.729C111.387 21.729 109.998 22.3242 109.426 23.6423L111.067 24.3357C111.42 23.6423 112.07 23.4175 112.756 23.4175C113.715 23.4175 114.688 23.9985 114.703 25.0256V25.1569C114.368 24.9617 113.652 24.673 112.771 24.673C111.004 24.673 109.204 25.6539 109.204 27.4856C109.204 29.1611 110.651 30.239 112.278 30.239C113.523 30.239 114.209 29.6722 114.64 29.0143H114.704V29.9811H116.49V25.1865C116.489 22.9691 114.848 21.729 112.723 21.729ZM112.499 28.5789C111.894 28.5789 111.052 28.276 111.052 27.5199C111.052 26.552 112.102 26.1816 113.012 26.1816C113.826 26.1816 114.208 26.3627 114.703 26.6017C114.558 27.7589 113.57 28.5789 112.499 28.5789ZM122.995 22.0024L120.87 27.4217H120.806L118.609 22.0024H116.615L119.916 29.5752L118.032 33.7888H119.963L125.051 22.0024C125.052 22.0024 122.995 22.0024 122.995 22.0024ZM106.328 30H108.182V17.5001H106.328V30Z" fill="white"/>
<path d="M10.6535 7.538C10.3625 7.84565 10.1932 8.32368 10.1932 8.94371V31.0588C10.1932 31.6788 10.3614 32.158 10.6535 32.4645L10.7254 32.5319L23.0124 20.1444V19.8522L10.7254 7.46582L10.6535 7.538Z" fill="url(#paint0_linear_480_144)"/>
<path d="M27.1033 24.2784L23.0125 20.1476V19.8554L27.1091 15.7246L27.2007 15.7779L32.0522 18.5621C33.4367 19.3525 33.4367 20.6517 32.0522 21.4468L27.2007 24.2251C27.1996 24.2239 27.1033 24.2784 27.1033 24.2784Z" fill="url(#paint1_linear_480_144)"/>
<path d="M27.199 24.2241L23.011 20L10.6533 32.4665C11.1136 32.954 11.8627 33.0131 12.716 32.5256L27.199 24.2241Z" fill="url(#paint2_linear_480_144)"/>
<path d="M27.1995 15.7767L12.7154 7.47497C11.8631 6.9922 11.113 7.05136 10.6526 7.53886L23.0115 19.9997L27.1995 15.7767Z" fill="url(#paint3_linear_480_144)"/>
</g>
<defs>
<linearGradient id="paint0_linear_480_144" x1="21.9201" y1="31.2914" x2="5.13857" y2="14.6529" gradientUnits="userSpaceOnUse">
<stop stop-color="#00A0FF"/>
<stop offset="0.0066" stop-color="#00A1FF"/>
<stop offset="0.2601" stop-color="#00BEFF"/>
<stop offset="0.5122" stop-color="#00D2FF"/>
<stop offset="0.7604" stop-color="#00DFFF"/>
<stop offset="1" stop-color="#00E3FF"/>
</linearGradient>
<linearGradient id="paint1_linear_480_144" x1="33.8536" y1="20.0011" x2="9.86223" y2="20.0011" gradientUnits="userSpaceOnUse">
<stop stop-color="#FFE000"/>
<stop offset="0.4087" stop-color="#FFBD00"/>
<stop offset="0.7754" stop-color="#FFA500"/>
<stop offset="1" stop-color="#FF9C00"/>
</linearGradient>
<linearGradient id="paint2_linear_480_144" x1="16.649" y1="26.0496" x2="-6.10751" y2="3.48651" gradientUnits="userSpaceOnUse">
<stop stop-color="#FF3A44"/>
<stop offset="1" stop-color="#C31162"/>
</linearGradient>
<linearGradient id="paint3_linear_480_144" x1="-0.728252" y1="31.4824" x2="9.43382" y2="21.4071" gradientUnits="userSpaceOnUse">
<stop stop-color="#32A071"/>
<stop offset="0.0685" stop-color="#2DA771"/>
<stop offset="0.4762" stop-color="#15CF74"/>
<stop offset="0.8009" stop-color="#06E775"/>
<stop offset="1" stop-color="#00F076"/>
</linearGradient>
<clipPath id="clip0_480_144">
<rect width="133.846" height="40" fill="white" transform="translate(0.307678)"/>
</clipPath>
</defs>
</svg>