<svg width="65" height="69" viewBox="0 0 65 69" fill="none" xmlns="http://www.w3.org/2000/svg">
<path d="M30.6456 52.0864L1.20709 52.0864L15.9264 37.3672L30.6456 52.0864Z" fill="#CCD89E" stroke="#AABE5D"/>
<rect x="51.6476" y="0.930664" width="12.8525" height="50.1475" fill="#CCD89E" stroke="#AABE5D"/>
<mask id="path-3-inside-1_1144_57" fill="white">
<path fill-rule="evenodd" clip-rule="evenodd" d="M38.9696 38.4973C44.7149 37.2429 49.0164 32.1261 49.0164 26.0047C49.0164 18.9427 43.2915 13.2178 36.2295 13.2178C29.1675 13.2178 23.4426 18.9427 23.4426 26.0047C23.4426 32.1261 27.7442 37.2429 33.4895 38.4973V52.4915H38.9696V38.4973Z"/>
</mask>
<path fill-rule="evenodd" clip-rule="evenodd" d="M38.9696 38.4973C44.7149 37.2429 49.0164 32.1261 49.0164 26.0047C49.0164 18.9427 43.2915 13.2178 36.2295 13.2178C29.1675 13.2178 23.4426 18.9427 23.4426 26.0047C23.4426 32.1261 27.7442 37.2429 33.4895 38.4973V52.4915H38.9696V38.4973Z" fill="#AABE5D"/>
<path fill-rule="evenodd" clip-rule="evenodd" d="M38.9696 38.4973C44.7149 37.2429 49.0164 32.1261 49.0164 26.0047C49.0164 18.9427 43.2915 13.2178 36.2295 13.2178C29.1675 13.2178 23.4426 18.9427 23.4426 26.0047C23.4426 32.1261 27.7442 37.2429 33.4895 38.4973V52.4915H38.9696V38.4973Z" fill="white" fill-opacity="0.4"/>
<path d="M38.9696 38.4973L38.7563 37.5203L37.9696 37.692V38.4973H38.9696ZM33.4895 38.4973H34.4895V37.692L33.7028 37.5203L33.4895 38.4973ZM33.4895 52.4915H32.4895V53.4915H33.4895V52.4915ZM38.9696 52.4915V53.4915H39.9696V52.4915H38.9696ZM48.0164 26.0047C48.0164 31.6462 44.052 36.3641 38.7563 37.5203L39.1829 39.4743C45.3777 38.1218 50.0164 32.6061 50.0164 26.0047H48.0164ZM36.2295 14.2178C42.7392 14.2178 48.0164 19.4949 48.0164 26.0047H50.0164C50.0164 18.3904 43.8438 12.2178 36.2295 12.2178V14.2178ZM24.4426 26.0047C24.4426 19.4949 29.7198 14.2178 36.2295 14.2178V12.2178C28.6152 12.2178 22.4426 18.3904 22.4426 26.0047H24.4426ZM33.7028 37.5203C28.407 36.3641 24.4426 31.6462 24.4426 26.0047H22.4426C22.4426 32.6061 27.0813 38.1218 33.2762 39.4743L33.7028 37.5203ZM34.4895 52.4915V38.4973H32.4895V52.4915H34.4895ZM38.9696 51.4915H33.4895V53.4915H38.9696V51.4915ZM37.9696 38.4973V52.4915H39.9696V38.4973H37.9696Z" fill="#AABE5D" mask="url(#path-3-inside-1_1144_57)"/>
</svg>
