<svg width="72" height="55" viewBox="0 0 72 55" fill="none" xmlns="http://www.w3.org/2000/svg">
<line x1="72" y1="54.3569" x2="-4.37114e-08" y2="54.3569" stroke="#AABE5D"/>
<mask id="path-2-inside-1_480_600" fill="white">
<path fill-rule="evenodd" clip-rule="evenodd" d="M7 0H41.2857V54.8571H7V0ZM11.2857 6.85714H21.5714V17.1429H11.2857V6.85714ZM21.5714 21.4288H11.2857V31.7145H21.5714V21.4288ZM11.2857 36.0002H21.5714V46.2859H11.2857V36.0002ZM36.1428 6.85735H25.8571V17.1431H36.1428V6.85735ZM25.8571 21.4288H36.1428V31.7145H25.8571V21.4288ZM36.1428 36.0002H25.8571V46.2859H36.1428V36.0002Z"/>
</mask>
<path fill-rule="evenodd" clip-rule="evenodd" d="M7 0H41.2857V54.8571H7V0ZM11.2857 6.85714H21.5714V17.1429H11.2857V6.85714ZM21.5714 21.4288H11.2857V31.7145H21.5714V21.4288ZM11.2857 36.0002H21.5714V46.2859H11.2857V36.0002ZM36.1428 6.85735H25.8571V17.1431H36.1428V6.85735ZM25.8571 21.4288H36.1428V31.7145H25.8571V21.4288ZM36.1428 36.0002H25.8571V46.2859H36.1428V36.0002Z" fill="#AABE5D"/>
<path fill-rule="evenodd" clip-rule="evenodd" d="M7 0H41.2857V54.8571H7V0ZM11.2857 6.85714H21.5714V17.1429H11.2857V6.85714ZM21.5714 21.4288H11.2857V31.7145H21.5714V21.4288ZM11.2857 36.0002H21.5714V46.2859H11.2857V36.0002ZM36.1428 6.85735H25.8571V17.1431H36.1428V6.85735ZM25.8571 21.4288H36.1428V31.7145H25.8571V21.4288ZM36.1428 36.0002H25.8571V46.2859H36.1428V36.0002Z" fill="white" fill-opacity="0.4"/>
<path d="M41.2857 0H42.2857V-1H41.2857V0ZM7 0V-1H6V0H7ZM41.2857 54.8571V55.8571H42.2857V54.8571H41.2857ZM7 54.8571H6V55.8571H7V54.8571ZM21.5714 6.85714H22.5714V5.85714H21.5714V6.85714ZM11.2857 6.85714V5.85714H10.2857V6.85714H11.2857ZM21.5714 17.1429V18.1429H22.5714V17.1429H21.5714ZM11.2857 17.1429H10.2857V18.1429H11.2857V17.1429ZM11.2857 21.4288V20.4288H10.2857V21.4288H11.2857ZM21.5714 21.4288H22.5714V20.4288H21.5714V21.4288ZM11.2857 31.7145H10.2857V32.7145H11.2857V31.7145ZM21.5714 31.7145V32.7145H22.5714V31.7145H21.5714ZM21.5714 36.0002H22.5714V35.0002H21.5714V36.0002ZM11.2857 36.0002V35.0002H10.2857V36.0002H11.2857ZM21.5714 46.2859V47.2859H22.5714V46.2859H21.5714ZM11.2857 46.2859H10.2857V47.2859H11.2857V46.2859ZM25.8571 6.85735V5.85735H24.8571V6.85735H25.8571ZM36.1428 6.85735H37.1428V5.85735H36.1428V6.85735ZM25.8571 17.1431H24.8571V18.1431H25.8571V17.1431ZM36.1428 17.1431V18.1431H37.1428V17.1431H36.1428ZM36.1428 21.4288H37.1428V20.4288H36.1428V21.4288ZM25.8571 21.4288V20.4288H24.8571V21.4288H25.8571ZM36.1428 31.7145V32.7145H37.1428V31.7145H36.1428ZM25.8571 31.7145H24.8571V32.7145H25.8571V31.7145ZM25.8571 36.0002V35.0002H24.8571V36.0002H25.8571ZM36.1428 36.0002H37.1428V35.0002H36.1428V36.0002ZM25.8571 46.2859H24.8571V47.2859H25.8571V46.2859ZM36.1428 46.2859V47.2859H37.1428V46.2859H36.1428ZM41.2857 -1H7V1H41.2857V-1ZM42.2857 54.8571V0H40.2857V54.8571H42.2857ZM7 55.8571H41.2857V53.8571H7V55.8571ZM6 0V54.8571H8V0H6ZM21.5714 5.85714H11.2857V7.85714H21.5714V5.85714ZM22.5714 17.1429V6.85714H20.5714V17.1429H22.5714ZM11.2857 18.1429H21.5714V16.1429H11.2857V18.1429ZM10.2857 6.85714V17.1429H12.2857V6.85714H10.2857ZM11.2857 22.4288H21.5714V20.4288H11.2857V22.4288ZM12.2857 31.7145V21.4288H10.2857V31.7145H12.2857ZM21.5714 30.7145H11.2857V32.7145H21.5714V30.7145ZM20.5714 21.4288V31.7145H22.5714V21.4288H20.5714ZM21.5714 35.0002H11.2857V37.0002H21.5714V35.0002ZM22.5714 46.2859V36.0002H20.5714V46.2859H22.5714ZM11.2857 47.2859H21.5714V45.2859H11.2857V47.2859ZM10.2857 36.0002V46.2859H12.2857V36.0002H10.2857ZM25.8571 7.85735H36.1428V5.85735H25.8571V7.85735ZM26.8571 17.1431V6.85735H24.8571V17.1431H26.8571ZM36.1428 16.1431H25.8571V18.1431H36.1428V16.1431ZM35.1428 6.85735V17.1431H37.1428V6.85735H35.1428ZM36.1428 20.4288H25.8571V22.4288H36.1428V20.4288ZM37.1428 31.7145V21.4288H35.1428V31.7145H37.1428ZM25.8571 32.7145H36.1428V30.7145H25.8571V32.7145ZM24.8571 21.4288V31.7145H26.8571V21.4288H24.8571ZM25.8571 37.0002H36.1428V35.0002H25.8571V37.0002ZM26.8571 46.2859V36.0002H24.8571V46.2859H26.8571ZM36.1428 45.2859H25.8571V47.2859H36.1428V45.2859ZM35.1428 36.0002V46.2859H37.1428V36.0002H35.1428Z" fill="#AABE5D" mask="url(#path-2-inside-1_480_600)"/>
<mask id="path-4-inside-2_480_600" fill="white">
<path fill-rule="evenodd" clip-rule="evenodd" d="M57.5714 41.7238C62.9632 40.5467 67 35.7448 67 30C67 23.3726 61.6274 18 55 18C48.3726 18 43 23.3726 43 30C43 35.7448 47.0368 40.5467 52.4286 41.7238V54.8571H57.5714V41.7238Z"/>
</mask>
<path fill-rule="evenodd" clip-rule="evenodd" d="M57.5714 41.7238C62.9632 40.5467 67 35.7448 67 30C67 23.3726 61.6274 18 55 18C48.3726 18 43 23.3726 43 30C43 35.7448 47.0368 40.5467 52.4286 41.7238V54.8571H57.5714V41.7238Z" fill="#AABE5D"/>
<path fill-rule="evenodd" clip-rule="evenodd" d="M57.5714 41.7238C62.9632 40.5467 67 35.7448 67 30C67 23.3726 61.6274 18 55 18C48.3726 18 43 23.3726 43 30C43 35.7448 47.0368 40.5467 52.4286 41.7238V54.8571H57.5714V41.7238Z" fill="white" fill-opacity="0.4"/>
<path d="M57.5714 41.7238L57.3581 40.7469L56.5714 40.9186V41.7238H57.5714ZM52.4286 41.7238H53.4286V40.9186L52.6419 40.7469L52.4286 41.7238ZM52.4286 54.8571H51.4286V55.8571H52.4286V54.8571ZM57.5714 54.8571V55.8571H58.5714V54.8571H57.5714ZM66 30C66 35.2648 62.3003 39.6679 57.3581 40.7469L57.7847 42.7008C63.626 41.4255 68 36.2247 68 30H66ZM55 19C61.0751 19 66 23.9249 66 30H68C68 22.8203 62.1797 17 55 17V19ZM44 30C44 23.9249 48.9249 19 55 19V17C47.8203 17 42 22.8203 42 30H44ZM52.6419 40.7469C47.6997 39.6679 44 35.2648 44 30H42C42 36.2247 46.374 41.4255 52.2153 42.7008L52.6419 40.7469ZM53.4286 54.8571V41.7238H51.4286V54.8571H53.4286ZM57.5714 53.8571H52.4286V55.8571H57.5714V53.8571ZM56.5714 41.7238V54.8571H58.5714V41.7238H56.5714Z" fill="#AABE5D" mask="url(#path-4-inside-2_480_600)"/>
</svg>
