<svg width="37" height="58" viewBox="0 0 37 58" fill="none" xmlns="http://www.w3.org/2000/svg">
<path fill-rule="evenodd" clip-rule="evenodd" d="M1.37517 1.66064H35.6609V56.5178H1.37517V1.66064ZM5.66088 8.51779H15.9466V18.8035H5.66088V8.51779ZM15.9465 23.0894H5.66083V33.3751H15.9465V23.0894ZM5.66083 37.6609H15.9465V47.9466H5.66083V37.6609ZM30.518 8.518H20.2323V18.8037H30.518V8.518ZM20.2323 23.0894H30.518V33.3751H20.2323V23.0894ZM30.518 37.6609H20.2323V47.9466H30.518V37.6609Z" fill="#D4E5F7"/>
<mask id="path-2-inside-1_480_618" fill="white">
<path fill-rule="evenodd" clip-rule="evenodd" d="M15.3752 33.6606L35.6609 1.66064V56.5178H1.37517L15.3752 33.6606ZM13.3752 37.6609H15.9465V47.9466H7.16101L13.3752 37.6609ZM30.518 9.91089L27.8752 14.1605L25.1234 18.8037H30.518V9.91089ZM20.2323 27.1607L22.8752 23.0894H30.518V33.3751H20.2323V27.1607ZM30.518 37.6609H20.2323V47.9466H30.518V37.6609Z"/>
</mask>
<path fill-rule="evenodd" clip-rule="evenodd" d="M15.3752 33.6606L35.6609 1.66064V56.5178H1.37517L15.3752 33.6606ZM13.3752 37.6609H15.9465V47.9466H7.16101L13.3752 37.6609ZM30.518 9.91089L27.8752 14.1605L25.1234 18.8037H30.518V9.91089ZM20.2323 27.1607L22.8752 23.0894H30.518V33.3751H20.2323V27.1607ZM30.518 37.6609H20.2323V47.9466H30.518V37.6609Z" fill="#D4E5F7"/>
<path d="M35.6609 1.66064H36.6609V-1.78454L34.8163 1.12523L35.6609 1.66064ZM15.3752 33.6606L14.5306 33.1252L14.5264 33.1318L14.5224 33.1383L15.3752 33.6606ZM35.6609 56.5178V57.5178H36.6609V56.5178H35.6609ZM1.37517 56.5178L0.522413 55.9955L-0.410003 57.5178H1.37517V56.5178ZM15.9465 37.6609H16.9465V36.6609H15.9465V37.6609ZM13.3752 37.6609V36.6609H12.811L12.5193 37.1437L13.3752 37.6609ZM15.9465 47.9466V48.9466H16.9465V47.9466H15.9465ZM7.16101 47.9466L6.30509 47.4295L5.38852 48.9466H7.16101V47.9466ZM27.8752 14.1605L27.026 13.6324L27.0204 13.6415L27.015 13.6507L27.8752 14.1605ZM30.518 9.91089H31.518V6.40924L29.6688 9.3828L30.518 9.91089ZM25.1234 18.8037L24.2631 18.2939L23.3683 19.8037H25.1234V18.8037ZM30.518 18.8037V19.8037H31.518V18.8037H30.518ZM22.8752 23.0894V22.0894H22.3321L22.0364 22.5449L22.8752 23.0894ZM20.2323 27.1607L19.3935 26.6162L19.2323 26.8646V27.1607H20.2323ZM30.518 23.0894H31.518V22.0894H30.518V23.0894ZM30.518 33.3751V34.3751H31.518V33.3751H30.518ZM20.2323 33.3751H19.2323V34.3751H20.2323V33.3751ZM20.2323 37.6609V36.6609H19.2323V37.6609H20.2323ZM30.518 37.6609H31.518V36.6609H30.518V37.6609ZM20.2323 47.9466H19.2323V48.9466H20.2323V47.9466ZM30.518 47.9466V48.9466H31.518V47.9466H30.518ZM34.8163 1.12523L14.5306 33.1252L16.2198 34.1961L36.5055 2.19606L34.8163 1.12523ZM36.6609 56.5178V1.66064H34.6609V56.5178H36.6609ZM1.37517 57.5178H35.6609V55.5178H1.37517V57.5178ZM14.5224 33.1383L0.522413 55.9955L2.22792 57.0401L16.2279 34.183L14.5224 33.1383ZM15.9465 36.6609H13.3752V38.6609H15.9465V36.6609ZM16.9465 47.9466V37.6609H14.9465V47.9466H16.9465ZM7.16101 48.9466H15.9465V46.9466H7.16101V48.9466ZM12.5193 37.1437L6.30509 47.4295L8.01693 48.4637L14.2311 38.178L12.5193 37.1437ZM28.7244 14.6886L31.3672 10.439L29.6688 9.3828L27.026 13.6324L28.7244 14.6886ZM25.9837 19.3136L28.7355 14.6704L27.015 13.6507L24.2631 18.2939L25.9837 19.3136ZM30.518 17.8037H25.1234V19.8037H30.518V17.8037ZM29.518 9.91089V18.8037H31.518V9.91089H29.518ZM22.0364 22.5449L19.3935 26.6162L21.071 27.7052L23.714 23.6339L22.0364 22.5449ZM30.518 22.0894H22.8752V24.0894H30.518V22.0894ZM31.518 33.3751V23.0894H29.518V33.3751H31.518ZM20.2323 34.3751H30.518V32.3751H20.2323V34.3751ZM19.2323 27.1607V33.3751H21.2323V27.1607H19.2323ZM20.2323 38.6609H30.518V36.6609H20.2323V38.6609ZM21.2323 47.9466V37.6609H19.2323V47.9466H21.2323ZM30.518 46.9466H20.2323V48.9466H30.518V46.9466ZM29.518 37.6609V47.9466H31.518V37.6609H29.518Z" fill="#589AE2" mask="url(#path-2-inside-1_480_618)"/>
<path d="M36.5 1.00342L0.999997 57.4271" stroke="#589AE2"/>
</svg>
