<svg width="1380" height="284" viewBox="0 0 1380 284" fill="none" xmlns="http://www.w3.org/2000/svg">
<path d="M140.839 283.889C218.622 283.889 281.677 220.561 281.677 142.443C281.677 64.3249 218.622 0.997559 140.839 0.997559C63.0556 0.997559 0 64.3249 0 142.443C0 220.561 63.0556 283.889 140.839 283.889Z" fill="white"/>
<path d="M253.864 202.68C251.431 207.743 248.704 212.55 245.711 217.095C246.828 216.356 247.698 215.502 248.328 214.545C251.058 210.017 254.594 203.911 257.015 199.208C266.148 178.068 269.458 166 269.838 140.369C269.966 143.198 268.83 145.508 266.306 147.181C266.389 165.978 262.397 184.931 253.864 202.68Z" fill="url(#paint0_radial_2_97)"/>
<path d="M14.1426 167.372C15.3121 172.433 17.0354 179.145 18.5391 184.116C21.329 191.858 32.5489 202.856 49.6654 214.681C47.9631 199.459 50.3461 180.983 57.0759 160.856C29.132 141.55 13.0433 123.911 15.0772 113.942C13.0909 124.499 9.39457 144.149 14.1426 167.372Z" fill="url(#paint1_radial_2_97)"/>
<path d="M260.165 108.002C239.935 141.336 74.1713 47.5162 88.263 24.6799C82.4903 27.2392 76.2595 30.5248 69.6827 34.8539C59.9256 41.8784 57.8952 43.3408 49.2251 51.6818C40.2797 61.4882 39.9322 61.8711 35.6376 67.9226C28.2522 79.3405 27.9645 79.7862 24.6526 86.6313C22.5403 91.5222 19.8354 98.098 18.0569 103.121C13.7234 117.336 48.9544 148.477 103.939 177.547C165.825 210.266 229.3 227.972 245.711 217.093C248.704 212.549 251.431 207.741 253.864 202.679C268.433 172.371 269.768 138.559 260.165 108.002Z" fill="url(#paint2_radial_2_97)"/>
<path d="M265.508 136.85C268.138 135.107 269.704 132.643 269.341 129.603C268.864 126.259 268.314 121.786 267.693 118.466C264.212 103.396 261.656 94.604 253.284 79.1429L249.058 72.1615C252.08 76.7193 251.833 80.3076 248.744 82.356C258.159 99.1381 263.622 117.625 266.02 136.85" fill="url(#paint3_radial_2_97)"/>
<path d="M34.8317 96.6974C30.2254 96.6974 24.5694 96.6383 21.6014 98.6049C19.7712 99.818 18.6027 101.336 18.0576 103.122C19.8991 98.1207 22.4781 91.4945 24.6523 86.6314C31.2101 74.2888 31.336 74.0529 35.6373 67.9227C43.9153 57.1335 44.0719 56.9269 49.2254 51.6818C50.7567 50.2488 52.0751 49.0151 53.2569 47.9208C53.2569 47.9203 34.8317 74.8362 34.8317 96.6974Z" fill="url(#paint4_radial_2_97)"/>
<path d="M173.941 236.022C162.696 226.352 146.186 215.387 126.144 204.79C80.1414 180.468 32.9591 167.305 20.7585 175.393C17.8208 177.34 17.1789 180.341 18.5393 184.113C17.071 179.134 15.2776 172.439 14.1429 167.371C12.1898 154.622 9.75769 138.757 15.0774 113.94C15.4971 111.868 16.706 110.127 18.7502 108.771C34.9255 98.0506 97.48 115.5 158.47 147.746C185.038 161.793 206.93 176.33 221.837 189.154C208.647 208.172 192.017 224.197 173.941 236.022Z" fill="url(#paint5_radial_2_97)"/>
<path d="M187.35 263.472C193.323 259.514 189.805 251.197 179.26 240.886C198.184 229.833 215.422 214.364 228.891 195.599C241.306 207.743 246.372 217.798 241.803 223.573C237.939 228.079 232.573 233.905 228.375 238.098C218.282 246.745 218.089 246.911 211.987 250.985C204.265 256.101 195.994 260.282 187.35 263.472ZM122.824 268.857C141.493 272.33 160.296 271.409 177.886 266.525C189.153 259.06 163.847 234.796 121.366 212.336C98.5398 200.269 75.4013 191.178 57.1302 186.504C58.6175 204.03 62.798 220.183 69.5897 233.58C77.6456 235.64 87.846 239.648 97.9072 244.967C116.635 254.869 127.791 265.565 122.824 268.857Z" fill="url(#paint6_radial_2_97)"/>
<path d="M113.217 35.568C125.091 25.427 137.758 18.9884 150.228 16.7092C165.219 20.5428 184.201 28.0017 202.924 37.9011C226.124 50.1661 243.077 63.0864 249.095 72.1614L253.32 79.1427C259.777 91.6483 263.97 100.536 267.731 118.466C268.243 121.804 269.011 126.246 269.377 129.603C267.768 116.154 238.376 91.4498 194.519 68.2631C165.631 52.9891 136.345 41.4823 113.217 35.568Z" fill="url(#paint7_linear_2_97)"/>
<path d="M167.804 140.492C170.351 135.508 172.847 130.472 175.279 125.411C183.812 107.661 190.643 91.4964 195.613 77.6688C240.011 101.694 269.24 126.884 269.849 140.344C269.402 164.5 266.646 177.148 257.026 199.183C254.545 203.853 251.13 210.031 248.34 214.52C256.786 201.736 222.889 170.3 167.804 140.492Z" fill="url(#paint8_linear_2_97)"/>
<path d="M51.1647 55.029C46.2063 64.0906 43.2404 73.8677 42.356 84.0889C39.8384 113.151 54.6553 141.009 80.1061 155.059C101.95 167.118 127.304 166.785 148.105 156.426L154.213 167.563C152.567 170.304 152.374 173.823 154.021 176.829L185.147 233.585C187.605 238.073 193.221 239.705 197.688 237.234C200.494 235.682 202.177 232.886 202.435 229.904C202.592 228.138 202.24 226.306 201.325 224.637L170.198 167.878C168.55 164.874 165.485 163.157 162.301 163.089L156.103 151.79C165.637 145.43 173.821 136.744 179.704 125.994C184.665 116.934 187.628 107.156 188.512 96.9363C191.031 67.8722 176.213 40.0166 150.762 25.9665C115.326 6.40043 70.6453 19.4385 51.1647 55.029Z" fill="url(#paint9_radial_2_97)"/>
<path d="M159.136 43.4093C177.709 60.7897 184.329 87.5865 176 111.676C173.072 120.139 168.476 127.788 162.34 134.403C138.243 160.377 97.5973 161.818 71.7365 137.616C53.1629 120.237 46.5436 93.4411 54.8744 69.3507C57.8019 60.8838 62.3969 53.2383 68.5341 46.6229C92.6306 20.6496 133.274 19.2099 159.136 43.4093Z" fill="url(#paint10_radial_2_97)"/>
<path d="M126.619 68.9378C140.385 66.967 153.137 76.5781 155.1 90.4046C157.062 104.232 147.493 117.038 133.727 119.009C119.959 120.98 107.206 111.37 105.244 97.5433C103.281 83.7163 112.851 70.9095 126.619 68.9378Z" fill="#5598E5"/>
<path d="M109.743 118.706C105.472 116.184 97.1805 111.27 92.5251 103.78C86.1822 93.765 80.7284 77.7436 85.2538 64.8037C86.7565 60.5081 84.5091 55.8012 80.2288 54.2905C75.9486 52.7814 71.2619 55.0405 69.7608 59.3387C63.183 78.1368 70.1016 100.977 80.3901 115.336C84.4799 124.475 87.0636 136.997 89.5525 149.409C111.114 158.944 136.753 155.914 155.582 140.705C144.829 128.132 125.198 127.835 109.743 118.706Z" fill="#5598E5"/>
<path d="M926.64 103.336H920.991C919.891 103.336 918.872 102.99 917.93 102.3C916.989 101.61 916.595 100.424 916.754 98.7347C917.537 91.0679 914.753 84.7418 908.397 79.7563C902.042 74.7746 893.685 72.28 883.328 72.28C871.088 72.28 860.69 74.62 852.138 79.2962C843.583 83.9762 838.287 90.8379 836.25 99.8849C835.779 102.185 835.543 104.18 835.543 105.866C835.543 110.467 836.992 114.342 839.898 117.483C842.8 120.628 846.997 123.464 852.492 125.995C857.983 128.525 865.986 131.555 876.502 135.081C891.567 140.142 902.472 145.397 909.221 150.839C915.966 156.285 919.343 163.455 919.343 172.348C919.343 174.957 918.949 178.178 918.166 182.01C915.183 195.812 907.926 206.279 896.392 213.41C884.858 220.541 869.911 224.107 851.55 224.107C840.093 224.107 830.401 222.457 822.479 219.161C814.553 215.865 808.591 211.379 804.589 205.704C800.588 200.032 798.587 193.742 798.587 186.84C798.587 185 798.664 183.62 798.822 182.7C798.977 181.319 799.488 180.209 800.352 179.364C801.213 178.523 802.353 178.099 803.765 178.099H809.415C812.24 178.099 813.652 179.634 813.652 182.7C813.336 187.3 814.435 191.711 816.947 195.927C819.456 200.147 823.616 203.598 829.423 206.279C835.227 208.964 842.605 210.305 851.55 210.305C866.457 210.305 878.385 207.623 887.33 202.253C896.274 196.887 901.766 189.525 903.807 180.169C904.278 178.329 904.513 176.568 904.513 174.878C904.513 170.277 902.902 166.406 899.688 163.261C896.469 160.12 891.956 157.32 886.153 154.865C880.345 152.413 871.636 149.193 860.024 145.203C846.213 140.602 836.25 135.581 830.129 130.135C824.009 124.693 820.949 117.598 820.949 108.857C820.949 104.87 821.339 101.265 822.126 98.0446C824.793 86.0825 831.424 76.4999 842.017 69.2895C852.609 62.0827 866.38 58.4775 883.328 58.4775C893.998 58.4775 902.983 60.2028 910.28 63.6535C917.577 67.1041 923.028 71.5144 926.64 76.8808C930.248 82.2509 932.054 87.8473 932.054 93.6738C932.054 94.9031 931.896 96.5889 931.583 98.7347C930.954 101.804 929.307 103.336 926.64 103.336Z" fill="#0F193F"/>
<path d="M1094.94 105.636C1095.26 104.871 1095.84 104.105 1096.71 103.336C1097.57 102.57 1098.71 102.186 1100.12 102.186H1105.77C1108.44 102.186 1109.77 103.185 1109.77 105.176C1109.77 105.791 1109.46 106.866 1108.83 108.397L1052.57 216.056C1051.47 218.205 1050.26 219.701 1048.92 220.542C1047.59 221.386 1045.9 221.807 1043.86 221.807H1039.39C1035.31 221.807 1033.04 219.891 1032.56 216.056L1022.21 125.42L973.481 216.056C971.44 219.891 968.38 221.807 964.301 221.807H959.593C957.552 221.807 956.062 221.347 955.121 220.427C954.179 219.506 953.55 218.051 953.237 216.056L943.116 107.476C942.957 105.945 943.351 104.68 944.293 103.681C945.234 102.685 946.647 102.186 948.53 102.186H952.531C955.356 102.186 956.923 103.336 957.239 105.636L965.949 201.333L1016.79 106.786C1018.36 103.72 1020.64 102.186 1023.62 102.186H1029.27C1032.41 102.186 1034.13 103.72 1034.45 106.786L1045.04 201.333L1094.94 105.636Z" fill="#0F193F"/>
<path d="M1114.95 220.426C1113.85 221.347 1112.51 221.807 1110.95 221.807H1106.95C1105.38 221.807 1104.2 221.347 1103.42 220.426C1102.63 219.506 1102.39 218.281 1102.71 216.746L1126.48 107.246C1126.8 105.715 1127.54 104.486 1128.72 103.566C1129.9 102.645 1131.27 102.185 1132.84 102.185H1136.84C1138.41 102.185 1139.55 102.645 1140.25 103.566C1140.96 104.486 1141.16 105.715 1140.84 107.246L1117.07 216.746C1116.75 218.281 1116.05 219.506 1114.95 220.426ZM1148.85 76.1907C1147.59 77.1109 1146.18 77.5709 1144.61 77.5709H1135.66C1134.09 77.5709 1132.92 77.1109 1132.13 76.1907C1131.35 75.2705 1131.11 74.0449 1131.43 72.51L1133.55 63.7685C1133.86 62.2373 1134.56 60.9721 1135.66 59.9728C1136.76 58.9772 1138.1 58.4775 1139.67 58.4775H1148.61C1150.18 58.4775 1151.39 58.9772 1152.26 59.9728C1153.12 60.9721 1153.4 62.2373 1153.08 63.7685L1150.96 72.51C1150.81 74.0449 1150.1 75.2705 1148.85 76.1907Z" fill="#0F193F"/>
<path d="M1148.61 260.456C1148.29 261.987 1147.59 263.216 1146.49 264.137C1145.39 265.057 1144.06 265.517 1142.49 265.517H1138.49C1136.92 265.517 1135.74 265.057 1134.96 264.137C1134.17 263.216 1133.94 261.987 1134.25 260.456L1167.68 107.249C1167.99 105.717 1168.7 104.488 1169.8 103.568C1170.89 102.648 1172.23 102.188 1173.8 102.188H1177.8C1179.37 102.188 1180.54 102.648 1181.33 103.568C1182.11 104.488 1182.35 105.717 1182.04 107.249L1179.68 118.061C1185.33 112.079 1191.25 107.558 1197.45 104.488C1203.65 101.422 1211.54 99.8873 1221.11 99.8873C1235.55 99.8873 1246.02 103.913 1252.54 111.964C1259.05 120.016 1262.3 130.332 1262.3 142.905C1262.3 147.66 1261.99 151.877 1261.36 155.557C1260.89 158.627 1259.95 162.919 1258.54 168.439C1254.3 184.391 1247.28 197.655 1237.47 208.237C1227.66 218.819 1214.13 224.109 1196.87 224.109C1179.13 224.109 1167.05 218.053 1160.62 205.936L1148.61 260.456ZM1166.97 180.862C1166.97 189.452 1169.4 196.584 1174.27 202.256C1179.13 207.931 1186.66 210.767 1196.87 210.767C1208.79 210.767 1218.68 206.781 1226.53 198.805C1234.37 190.833 1240.18 180.711 1243.94 168.439C1245.04 164.759 1245.98 160.467 1246.77 155.557C1247.55 150.496 1247.95 146.126 1247.95 142.445C1247.95 122.971 1239 113.23 1221.11 113.23C1212.64 113.23 1204.95 115.225 1198.04 119.211C1191.14 123.201 1185.49 128.297 1181.09 134.508C1176.7 140.72 1173.64 147.125 1171.91 153.717C1170.81 158.012 1169.48 163.993 1167.91 171.66C1167.28 175.65 1166.97 178.716 1166.97 180.862Z" fill="#0F193F"/>
<path d="M1369.17 110.699C1376.39 117.91 1380 128.107 1380 141.295C1380 147.585 1379.37 153.566 1378.12 159.238L1377.41 162.688C1377.09 164.223 1376.31 165.449 1375.06 166.369C1373.8 167.289 1372.39 167.749 1370.82 167.749H1287.02C1286.08 172.505 1285.61 177.181 1285.61 181.782C1285.61 201.105 1294.87 210.767 1313.38 210.767C1320.76 210.767 1327.04 209.886 1332.22 208.122C1337.39 206.36 1341.24 204.48 1343.75 202.486C1346.26 200.494 1348.69 198.269 1351.05 195.814C1352.77 193.974 1354.03 192.824 1354.81 192.364C1355.6 191.904 1356.93 191.674 1358.81 191.674H1362.58C1363.99 191.674 1365.13 192.098 1365.99 192.939C1366.85 193.784 1367.05 194.894 1366.58 196.274C1365.64 199.804 1363.01 203.715 1358.7 208.007C1354.38 212.302 1348.38 216.058 1340.69 219.279C1333 222.499 1323.9 224.109 1313.38 224.109C1300.67 224.109 1290.43 220.163 1282.67 212.262C1274.9 204.365 1271.01 193.899 1271.01 180.862C1271.01 177.796 1271.25 174.575 1271.72 171.2C1272.5 166.599 1273.84 160.467 1275.72 152.797C1279.8 137.003 1287.49 124.236 1298.79 114.495C1310.09 104.758 1323.04 99.8873 1337.63 99.8873C1351.44 99.8873 1361.95 103.492 1369.17 110.699ZM1366.35 141.295C1366.35 132.708 1363.95 125.882 1359.17 120.821C1354.38 115.76 1347.2 113.23 1337.63 113.23C1329.94 113.23 1322.76 115.07 1316.09 118.751C1309.42 122.431 1303.81 127.456 1299.26 133.818C1294.71 140.184 1291.57 147.2 1289.85 154.867H1364.7C1365.8 150.421 1366.35 145.895 1366.35 141.295Z" fill="#0F193F"/>
<path d="M482.456 66.9869C483.868 65.1465 485.24 63.6513 486.575 62.5011C487.907 61.3509 489.907 60.7758 492.578 60.7758H508.584C510.309 60.7758 511.799 61.3904 513.057 62.6161C514.311 63.8454 514.94 65.3011 514.94 66.9869V215.593C514.94 217.283 514.311 218.739 513.057 219.964C511.799 221.193 510.309 221.804 508.584 221.804H489.518C487.79 221.804 486.3 221.193 485.045 219.964C483.787 218.739 483.162 217.283 483.162 215.593V125.647L452.561 177.407C450.049 181.242 447.147 183.158 443.852 183.158H431.611C428.316 183.158 425.41 181.242 422.902 177.407L392.301 125.647V215.593C392.301 217.283 391.672 218.739 390.418 219.964C389.16 221.193 387.67 221.804 385.945 221.804H366.878C365.15 221.804 363.66 221.193 362.406 219.964C361.148 218.739 360.523 217.283 360.523 215.593V66.9869C360.523 65.3011 361.148 63.8454 362.406 62.6161C363.66 61.3904 365.15 60.7758 366.878 60.7758H382.885C385.552 60.7758 387.552 61.3509 388.888 62.5011C390.219 63.6513 391.595 65.1465 393.007 66.9869L437.731 142.9L482.456 66.9869Z" fill="#0F193F"/>
<path d="M626.633 112.309C636.126 120.591 640.874 132.478 640.874 147.966V215.598C640.874 217.287 640.245 218.743 638.991 219.969C637.733 221.198 636.243 221.809 634.518 221.809H616.629C614.9 221.809 613.41 221.198 612.156 219.969C610.898 218.743 610.273 217.287 610.273 215.598V208.007C606.661 212.917 601.681 216.827 595.326 219.739C588.97 222.65 581.32 224.109 572.375 224.109C559.193 224.109 548.755 220.774 541.068 214.103C533.377 207.431 529.534 198.805 529.534 188.223C529.534 177.95 533.259 169.784 540.715 163.724C548.166 157.667 558.564 153.487 571.904 151.186L610.273 144.745C610.273 138.919 608.272 134.588 604.271 131.748C600.269 128.912 594.892 127.492 588.146 127.492C584.534 127.492 581.592 127.992 579.319 128.987C577.042 129.987 574.806 131.482 572.61 133.473C570.256 135.623 567.667 136.694 564.842 136.694H542.951C541.38 136.694 540.086 136.198 539.067 135.199C538.044 134.203 537.614 133.013 537.772 131.633C538.714 126.881 541.185 122.05 545.187 117.14C549.189 112.234 554.838 108.133 562.135 104.833C569.433 101.537 578.102 99.8873 588.146 99.8873C604.307 99.8873 617.136 104.028 626.633 112.309ZM610.273 168.439L578.26 173.96C571.981 175.035 567.391 176.606 564.489 178.676C561.584 180.747 560.135 183.547 560.135 187.073C560.135 190.142 561.742 192.479 564.96 194.089C568.175 195.699 572.217 196.504 577.083 196.504C583.986 196.504 589.948 195.279 594.973 192.824C599.993 190.373 603.8 187.188 606.389 183.277C608.978 179.366 610.273 175.19 610.273 170.74V168.439Z" fill="#0F193F"/>
<path d="M691.013 259.306C691.013 260.991 690.384 262.447 689.13 263.676C687.872 264.902 686.383 265.517 684.658 265.517H666.768C665.039 265.517 663.55 264.902 662.295 263.676C661.037 262.447 660.412 260.991 660.412 259.306V108.399C660.412 106.713 661.037 105.257 662.295 104.028C663.55 102.802 665.039 102.188 666.768 102.188H684.658C686.383 102.188 687.872 102.802 689.13 104.028C690.384 105.257 691.013 106.713 691.013 108.399V113.69C694.309 110.009 698.858 106.788 704.666 104.028C710.47 101.268 717.767 99.8873 726.557 99.8873C736.756 99.8873 745.742 102.382 753.51 107.364C761.278 112.349 767.357 118.945 771.753 127.147C776.144 135.353 778.579 144.285 779.05 153.947C779.204 155.482 779.285 158.167 779.285 161.998C779.285 165.834 779.204 168.519 779.05 170.05C778.579 179.712 776.144 188.647 771.753 196.85C767.357 205.056 761.278 211.651 753.51 216.633C745.742 221.619 736.756 224.109 726.557 224.109C717.925 224.109 710.705 222.729 704.901 219.969C699.094 217.208 694.463 213.988 691.013 210.307V259.306ZM740.916 136.004C735.579 130.332 728.44 127.492 719.496 127.492C711.647 127.492 705.137 129.757 699.958 134.278C694.779 138.804 691.797 145.13 691.013 153.257C690.855 154.792 690.778 157.707 690.778 161.998C690.778 166.294 690.855 169.209 691.013 170.74C691.797 178.561 694.816 184.812 700.076 189.488C705.332 194.168 711.805 196.505 719.496 196.505C727.499 196.505 734.09 194.204 739.268 189.603C744.447 185.002 747.507 177.95 748.449 168.439C748.761 165.374 748.92 163.228 748.92 161.998C748.92 150.345 746.249 141.679 740.916 136.004Z" fill="#0F193F"/>
<defs>
<radialGradient id="paint0_radial_2_97" cx="0" cy="0" r="1" gradientUnits="userSpaceOnUse" gradientTransform="translate(155.68 104.719) scale(227.497 228.477)">
<stop stop-color="#D18E38"/>
<stop offset="1" stop-color="#BD4927"/>
</radialGradient>
<radialGradient id="paint1_radial_2_97" cx="0" cy="0" r="1" gradientUnits="userSpaceOnUse" gradientTransform="translate(161.378 104.686) scale(224.063 225.028)">
<stop stop-color="#D53924"/>
<stop offset="1" stop-color="#C30011"/>
</radialGradient>
<radialGradient id="paint2_radial_2_97" cx="0" cy="0" r="1" gradientUnits="userSpaceOnUse" gradientTransform="translate(152.049 110.601) scale(234.465 235.476)">
<stop stop-color="#6A9DB6"/>
<stop offset="1" stop-color="#2E55AF"/>
</radialGradient>
<radialGradient id="paint3_radial_2_97" cx="0" cy="0" r="1" gradientUnits="userSpaceOnUse" gradientTransform="translate(271.351 101.422) scale(114.083 114.575)">
<stop stop-color="#9CAD4C"/>
<stop offset="1" stop-color="#73633D"/>
</radialGradient>
<radialGradient id="paint4_radial_2_97" cx="0" cy="0" r="1" gradientUnits="userSpaceOnUse" gradientTransform="translate(149.278 102.25) scale(234.126 235.135)">
<stop stop-color="#71BEE6"/>
<stop offset="1" stop-color="#3871E4"/>
</radialGradient>
<radialGradient id="paint5_radial_2_97" cx="0" cy="0" r="1" gradientUnits="userSpaceOnUse" gradientTransform="translate(163.932 103.995) scale(217.413 218.35)">
<stop stop-color="#FF3924"/>
<stop offset="1" stop-color="#FF0011"/>
</radialGradient>
<radialGradient id="paint6_radial_2_97" cx="0" cy="0" r="1" gradientUnits="userSpaceOnUse" gradientTransform="translate(148.248 157.536) scale(150.141 150.788)">
<stop stop-color="#FDF240"/>
<stop offset="0.2407" stop-color="#FDDB3C"/>
<stop offset="0.7444" stop-color="#FCAF33"/>
<stop offset="1" stop-color="#FC9E30"/>
</radialGradient>
<linearGradient id="paint7_linear_2_97" x1="160.525" y1="86.7796" x2="358.202" y2="32.0723" gradientUnits="userSpaceOnUse">
<stop stop-color="#B2D25A"/>
<stop offset="0.2455" stop-color="#ACC457"/>
<stop offset="0.7116" stop-color="#9D9E51"/>
<stop offset="1" stop-color="#93834C"/>
</linearGradient>
<linearGradient id="paint8_linear_2_97" x1="156.284" y1="101.533" x2="342.324" y2="223.819" gradientUnits="userSpaceOnUse">
<stop stop-color="#F9AB3E"/>
<stop offset="1" stop-color="#F7612D"/>
</linearGradient>
<radialGradient id="paint9_radial_2_97" cx="0" cy="0" r="1" gradientUnits="userSpaceOnUse" gradientTransform="translate(182.016 193.919) scale(344.351 345.835)">
<stop stop-color="#563924"/>
<stop offset="1" stop-color="#110011"/>
</radialGradient>
<radialGradient id="paint10_radial_2_97" cx="0" cy="0" r="1" gradientUnits="userSpaceOnUse" gradientTransform="translate(151.381 106.848) rotate(-64.6656) scale(335.217 334.306)">
<stop stop-color="#EDF7FB"/>
<stop offset="0.1904" stop-color="#EDF2FB"/>
<stop offset="0.4306" stop-color="#ECE2FB"/>
<stop offset="0.6976" stop-color="#EAC8FB"/>
<stop offset="0.9822" stop-color="#E7A4FB"/>
<stop offset="1" stop-color="#E7A2FB"/>
</radialGradient>
</defs>
</svg>
