<?xml version="1.0" standalone="no"?>
<svg xmlns:xlink="http://www.w3.org/1999/xlink" xmlns="http://www.w3.org/2000/svg" class="vtree" width="960" height="800"><style>
.vtree-node text { font: 14px sans-serif; }
.vtree-link { fill: none; stroke: #888; stroke-width: 2px; }
.vtree-table { stroke-width: 2px; stroke: steelblue; }
path.vtree-table { fill: white; }
g.vtree-node rect { fill: white; stroke: black; stroke-width: 1px; }
g.vtree-node rect.number-text { fill: #d8f0ed; }
g.vtree-node rect.string-text { fill: #e7f0db; }
g.vtree-node rect.boolean-text { fill: #e1d8f0; }
g.vtree-node rect.null-text { fill: #888; }
</style><g class="vtree-root" transform="translate(213.38423508151493,205.86543707624142)scale(0.5)"><g class="vtree-node" transform="translate(480,59)"><g class="vtree-node" transform="translate(-8,0)"><path class="vtree-link" d="M8,4C8,43.5 731,43.5 731,83"/><path class="vtree-link" d="M8,4C8,43.5 579,43.5 579,83"/><path class="vtree-link" d="M8,4C8,43.5 407,43.5 407,83"/><path class="vtree-link" d="M8,4C8,43.5 119,43.5 119,83"/><path class="vtree-link" d="M8,4C8,43.5 -219,43.5 -219,83"/><path class="vtree-link" d="M8,4C8,43.5 -473,43.5 -473,83"/><path class="vtree-link" d="M8,4C8,48 -685,48 -685,92"/><g class="vtree-node" transform="translate(-808,58)"><g transform="translate(0,21)"><g transform="translate(0,0)"><rect class="string-text" x="0" y="0" width="129" height="25"/><text x="4" y="21">announcementId</text></g><g transform="translate(129,0)"><rect class="string-text" x="0" y="0" width="116" height="25"/><text x="4" y="21">announcement</text></g></g><g><text x="123" y="17" text-anchor="middle">announcement</text></g></g><g class="vtree-node" transform="translate(-502,58)"><path class="vtree-link" d="M29,25C29,64.5 29,64.5 29,104"/><g class="vtree-node" transform="translate(-11,79)"><path class="vtree-link" d="M40,25C40,131.5 40,131.5 40,238"/><g class="vtree-node" transform="translate(-40,79)"><g transform="translate(0,21)"><g transform="translate(0,0)"><rect class="string-text" x="0" y="0" width="130" height="25"/><text x="4" y="21">completedCount</text></g><g transform="translate(130,0)"><rect class="number-text" x="0" y="0" width="30" height="25"/><text x="4" y="21">1</text></g><g transform="translate(0,25)"><rect class="string-text" x="0" y="0" width="130" height="25"/><text x="4" y="21">groupId</text></g><g transform="translate(130,25)"><rect class="number-text" x="0" y="0" width="30" height="25"/><text x="4" y="21">1</text></g><g transform="translate(0,50)"><rect class="string-text" x="0" y="0" width="130" height="25"/><text x="4" y="21">neededCount</text></g><g transform="translate(130,50)"><rect class="number-text" x="0" y="0" width="30" height="25"/><text x="4" y="21">10</text></g><g transform="translate(0,75)"><rect class="string-text" x="0" y="0" width="130" height="25"/><text x="4" y="21">numberOfTasks</text></g><g transform="translate(130,75)"><rect class="number-text" x="0" y="0" width="30" height="25"/><text x="4" y="21">1</text></g><g transform="translate(0,100)"><rect class="string-text" x="0" y="0" width="130" height="25"/><text x="4" y="21">progress</text></g><g transform="translate(130,100)"><rect class="number-text" x="0" y="0" width="30" height="25"/><text x="4" y="21">0.8</text></g><g transform="translate(0,125)"><rect class="string-text" x="0" y="0" width="130" height="25"/><text x="4" y="21">projectId</text></g><g transform="translate(130,125)"><rect class="string-text" x="0" y="0" width="30" height="25"/><text x="4" y="21">id</text></g><g transform="translate(0,150)"><rect class="string-text" x="0" y="0" width="130" height="25"/><text x="4" y="21">verificationCount</text></g><g transform="translate(130,150)"><rect class="number-text" x="0" y="0" width="30" height="25"/><text x="4" y="21">1</text></g><g transform="translate(0,175)"><rect class="string-text" x="0" y="0" width="130" height="25"/><text x="4" y="21">xMax</text></g><g transform="translate(130,175)"><rect class="number-text" x="0" y="0" width="30" height="25"/><text x="4" y="21">5</text></g><g transform="translate(0,200)"><rect class="string-text" x="0" y="0" width="130" height="25"/><text x="4" y="21">xMin</text></g><g transform="translate(130,200)"><rect class="number-text" x="0" y="0" width="30" height="25"/><text x="4" y="21">6</text></g><g transform="translate(0,225)"><rect class="string-text" x="0" y="0" width="130" height="25"/><text x="4" y="21">yMax</text></g><g transform="translate(130,225)"><rect class="number-text" x="0" y="0" width="30" height="25"/><text x="4" y="21">3</text></g><g transform="translate(0,250)"><rect class="string-text" x="0" y="0" width="130" height="25"/><text x="4" y="21">yMin</text></g><g transform="translate(130,250)"><rect class="number-text" x="0" y="0" width="30" height="25"/><text x="4" y="21">4</text></g></g><g><text x="80" y="17" text-anchor="middle">groupId1</text></g></g><g transform="translate(32,21)"><g transform="translate(0,0)"><rect class="string-text" x="0" y="0" width="8" height="8"/><text x="4" y="4"> </text></g><g transform="translate(8,0)"><rect class="string-text" x="0" y="0" width="8" height="8"/><text x="4" y="4"> </text></g></g><g><text x="40" y="17" text-anchor="middle">projectId1</text></g></g><g transform="translate(21,21)"><g transform="translate(0,0)"><rect class="string-text" x="0" y="0" width="8" height="8"/><text x="4" y="4"> </text></g><g transform="translate(8,0)"><rect class="string-text" x="0" y="0" width="8" height="8"/><text x="4" y="4"> </text></g></g><g><text x="29" y="17" text-anchor="middle">groups</text></g></g><g class="vtree-node" transform="translate(-270,58)"><path class="vtree-link" d="M51,25C51,162.5 51,162.5 51,300"/><g class="vtree-node" transform="translate(-113,79)"><g transform="translate(0,21)"><g transform="translate(0,0)"><rect class="string-text" x="0" y="0" width="135" height="25"/><text x="4" y="21">country</text></g><g transform="translate(135,0)"><rect class="string-text" x="0" y="0" width="193" height="25"/><text x="4" y="21">name</text></g><g transform="translate(0,25)"><rect class="string-text" x="0" y="0" width="135" height="25"/><text x="4" y="21">exampleImage</text></g><g transform="translate(135,25)"><rect class="string-text" x="0" y="0" width="193" height="25"/><text x="4" y="21">exampleImage</text></g><g transform="translate(0,50)"><rect class="string-text" x="0" y="0" width="135" height="25"/><text x="4" y="21">exampleMessage</text></g><g transform="translate(135,50)"><rect class="string-text" x="0" y="0" width="193" height="25"/><text x="4" y="21">exampleMessage</text></g><g transform="translate(0,75)"><rect class="string-text" x="0" y="0" width="135" height="25"/><text x="4" y="21">image</text></g><g transform="translate(135,75)"><rect class="string-text" x="0" y="0" width="193" height="25"/><text x="4" y="21">image</text></g><g transform="translate(0,100)"><rect class="string-text" x="0" y="0" width="135" height="25"/><text x="4" y="21">kml</text></g><g transform="translate(135,100)"><rect class="string-text" x="0" y="0" width="193" height="25"/><text x="4" y="21">kml</text></g><g transform="translate(0,125)"><rect class="string-text" x="0" y="0" width="135" height="25"/><text x="4" y="21">lookFor</text></g><g transform="translate(135,125)"><rect class="string-text" x="0" y="0" width="193" height="25"/><text x="4" y="21">text</text></g><g transform="translate(0,150)"><rect class="string-text" x="0" y="0" width="135" height="25"/><text x="4" y="21">name</text></g><g transform="translate(135,150)"><rect class="string-text" x="0" y="0" width="193" height="25"/><text x="4" y="21">name</text></g><g transform="translate(0,175)"><rect class="string-text" x="0" y="0" width="135" height="25"/><text x="4" y="21">projectDetails</text></g><g transform="translate(135,175)"><rect class="string-text" x="0" y="0" width="193" height="25"/><text x="4" y="21">text</text></g><g transform="translate(0,200)"><rect class="string-text" x="0" y="0" width="135" height="25"/><text x="4" y="21">projectType</text></g><g transform="translate(135,200)"><rect class="number-text" x="0" y="0" width="193" height="25"/><text x="4" y="21">1</text></g><g transform="translate(0,225)"><rect class="string-text" x="0" y="0" width="135" height="25"/><text x="4" y="21">submissionKey</text></g><g transform="translate(135,225)"><rect class="string-text" x="0" y="0" width="193" height="25"/><text x="4" y="21">key</text></g><g transform="translate(0,250)"><rect class="string-text" x="0" y="0" width="135" height="25"/><text x="4" y="21">thankYouMessage</text></g><g transform="translate(135,250)"><rect class="string-text" x="0" y="0" width="193" height="25"/><text x="4" y="21">brief message (140 chars)</text></g><g transform="translate(0,275)"><rect class="string-text" x="0" y="0" width="135" height="25"/><text x="4" y="21">tileServer</text></g><g transform="translate(135,275)"><rect class="string-text" x="0" y="0" width="193" height="25"/><text x="4" y="21">name</text></g><g transform="translate(0,300)"><rect class="string-text" x="0" y="0" width="135" height="25"/><text x="4" y="21">tileServerUrl</text></g><g transform="translate(135,300)"><rect class="string-text" x="0" y="0" width="193" height="25"/><text x="4" y="21">url</text></g><g transform="translate(0,325)"><rect class="string-text" x="0" y="0" width="135" height="25"/><text x="4" y="21">verificationCount</text></g><g transform="translate(135,325)"><rect class="number-text" x="0" y="0" width="193" height="25"/><text x="4" y="21">3</text></g><g transform="translate(0,350)"><rect class="string-text" x="0" y="0" width="135" height="25"/><text x="4" y="21">wmtsLayerName</text></g><g transform="translate(135,350)"><rect class="string-text" x="0" y="0" width="193" height="25"/><text x="4" y="21">layer (optional)</text></g><g transform="translate(0,375)"><rect class="string-text" x="0" y="0" width="135" height="25"/><text x="4" y="21">zoomLevel</text></g><g transform="translate(135,375)"><rect class="number-text" x="0" y="0" width="193" height="25"/><text x="4" y="21">3</text></g></g><g><text x="164" y="17" text-anchor="middle">projectDraftId1</text></g></g><g transform="translate(43,21)"><g transform="translate(0,0)"><rect class="string-text" x="0" y="0" width="8" height="8"/><text x="4" y="4"> </text></g><g transform="translate(8,0)"><rect class="string-text" x="0" y="0" width="8" height="8"/><text x="4" y="4"> </text></g></g><g><text x="51" y="17" text-anchor="middle">projectDrafts</text></g></g><g class="vtree-node" transform="translate(86,58)"><path class="vtree-link" d="M33,25C33,194 33,194 33,363"/><g class="vtree-node" transform="translate(-131,79)"><g transform="translate(0,21)"><g transform="translate(0,0)"><rect class="string-text" x="0" y="0" width="135" height="25"/><text x="4" y="21">archived</text></g><g transform="translate(135,0)"><rect class="boolean-text" x="0" y="0" width="193" height="25"/><text x="4" y="21">false</text></g><g transform="translate(0,25)"><rect class="string-text" x="0" y="0" width="135" height="25"/><text x="4" y="21">centroid</text></g><g transform="translate(135,25)"><rect class="string-text" x="0" y="0" width="193" height="25"/><text x="4" y="21">wkt</text></g><g transform="translate(0,50)"><rect class="string-text" x="0" y="0" width="135" height="25"/><text x="4" y="21">contributors</text></g><g transform="translate(135,50)"><rect class="number-text" x="0" y="0" width="193" height="25"/><text x="4" y="21">2</text></g><g transform="translate(0,75)"><rect class="string-text" x="0" y="0" width="135" height="25"/><text x="4" y="21">country</text></g><g transform="translate(135,75)"><rect class="string-text" x="0" y="0" width="193" height="25"/><text x="4" y="21">name</text></g><g transform="translate(0,100)"><rect class="string-text" x="0" y="0" width="135" height="25"/><text x="4" y="21">exampleImage</text></g><g transform="translate(135,100)"><rect class="string-text" x="0" y="0" width="193" height="25"/><text x="4" y="21">exampleImage</text></g><g transform="translate(0,125)"><rect class="string-text" x="0" y="0" width="135" height="25"/><text x="4" y="21">exampleMessage</text></g><g transform="translate(135,125)"><rect class="string-text" x="0" y="0" width="193" height="25"/><text x="4" y="21">exampleMessage</text></g><g transform="translate(0,150)"><rect class="string-text" x="0" y="0" width="135" height="25"/><text x="4" y="21">groupAverage</text></g><g transform="translate(135,150)"><rect class="number-text" x="0" y="0" width="193" height="25"/><text x="4" y="21">2</text></g><g transform="translate(0,175)"><rect class="string-text" x="0" y="0" width="135" height="25"/><text x="4" y="21">groupSize</text></g><g transform="translate(135,175)"><rect class="number-text" x="0" y="0" width="193" height="25"/><text x="4" y="21">10</text></g><g transform="translate(0,200)"><rect class="string-text" x="0" y="0" width="135" height="25"/><text x="4" y="21">image</text></g><g transform="translate(135,200)"><rect class="string-text" x="0" y="0" width="193" height="25"/><text x="4" y="21">image</text></g><g transform="translate(0,225)"><rect class="string-text" x="0" y="0" width="135" height="25"/><text x="4" y="21">imageOfMap</text></g><g transform="translate(135,225)"><rect class="string-text" x="0" y="0" width="193" height="25"/><text x="4" y="21">image</text></g><g transform="translate(0,250)"><rect class="string-text" x="0" y="0" width="135" height="25"/><text x="4" y="21">isFeatured</text></g><g transform="translate(135,250)"><rect class="boolean-text" x="0" y="0" width="193" height="25"/><text x="4" y="21">true</text></g><g transform="translate(0,275)"><rect class="string-text" x="0" y="0" width="135" height="25"/><text x="4" y="21">lookFor</text></g><g transform="translate(135,275)"><rect class="string-text" x="0" y="0" width="193" height="25"/><text x="4" y="21">text</text></g><g transform="translate(0,300)"><rect class="string-text" x="0" y="0" width="135" height="25"/><text x="4" y="21">progress</text></g><g transform="translate(135,300)"><rect class="number-text" x="0" y="0" width="193" height="25"/><text x="4" y="21">44</text></g><g transform="translate(0,325)"><rect class="string-text" x="0" y="0" width="135" height="25"/><text x="4" y="21">projectDetails</text></g><g transform="translate(135,325)"><rect class="string-text" x="0" y="0" width="193" height="25"/><text x="4" y="21">details</text></g><g transform="translate(0,350)"><rect class="string-text" x="0" y="0" width="135" height="25"/><text x="4" y="21">projectId</text></g><g transform="translate(135,350)"><rect class="string-text" x="0" y="0" width="193" height="25"/><text x="4" y="21">id</text></g><g transform="translate(0,375)"><rect class="string-text" x="0" y="0" width="135" height="25"/><text x="4" y="21">projectType</text></g><g transform="translate(135,375)"><rect class="number-text" x="0" y="0" width="193" height="25"/><text x="4" y="21">1</text></g><g transform="translate(0,400)"><rect class="string-text" x="0" y="0" width="135" height="25"/><text x="4" y="21">scale</text></g><g transform="translate(135,400)"><rect class="string-text" x="0" y="0" width="193" height="25"/><text x="4" y="21">scale</text></g><g transform="translate(0,425)"><rect class="string-text" x="0" y="0" width="135" height="25"/><text x="4" y="21">status</text></g><g transform="translate(135,425)"><rect class="string-text" x="0" y="0" width="193" height="25"/><text x="4" y="21">active</text></g><g transform="translate(0,450)"><rect class="string-text" x="0" y="0" width="135" height="25"/><text x="4" y="21">thankYouMessage</text></g><g transform="translate(135,450)"><rect class="string-text" x="0" y="0" width="193" height="25"/><text x="4" y="21">brief message (140 chars)</text></g><g transform="translate(0,475)"><rect class="string-text" x="0" y="0" width="135" height="25"/><text x="4" y="21">verificationCount</text></g><g transform="translate(135,475)"><rect class="number-text" x="0" y="0" width="193" height="25"/><text x="4" y="21">1</text></g><g transform="translate(0,500)"><rect class="string-text" x="0" y="0" width="135" height="25"/><text x="4" y="21">zoomLevel</text></g><g transform="translate(135,500)"><rect class="number-text" x="0" y="0" width="193" height="25"/><text x="4" y="21">18</text></g></g><g><text x="164" y="17" text-anchor="middle">projectId1</text></g></g><g transform="translate(25,21)"><g transform="translate(0,0)"><rect class="string-text" x="0" y="0" width="8" height="8"/><text x="4" y="4"> </text></g><g transform="translate(8,0)"><rect class="string-text" x="0" y="0" width="8" height="8"/><text x="4" y="4"> </text></g></g><g><text x="33" y="17" text-anchor="middle">projects</text></g></g><g class="vtree-node" transform="translate(379,58)"><path class="vtree-link" d="M28,25C28,64.5 28,64.5 28,104"/><g class="vtree-node" transform="translate(-12,79)"><path class="vtree-link" d="M40,25C40,64.5 40,64.5 40,104"/><g class="vtree-node" transform="translate(4,79)"><path class="vtree-link" d="M36,25C36,81.5 36,81.5 36,138"/><g class="vtree-node" transform="translate(-78,79)"><g transform="translate(0,21)"><g transform="translate(0,0)"><rect class="string-text" x="0" y="0" width="143" height="25"/><text x="4" y="21">resultCount</text></g><g transform="translate(143,0)"><rect class="number-text" x="0" y="0" width="84" height="25"/><text x="4" y="21">1</text></g><g transform="translate(0,25)"><rect class="string-text" x="0" y="0" width="143" height="25"/><text x="4" y="21">resultId1(=taskId1)</text></g><g transform="translate(143,25)"><rect class="number-text" x="0" y="0" width="84" height="25"/><text x="4" y="21">1</text></g><g transform="translate(0,50)"><rect class="string-text" x="0" y="0" width="143" height="25"/><text x="4" y="21">timestamp</text></g><g transform="translate(143,50)"><rect class="string-text" x="0" y="0" width="84" height="25"/><text x="4" y="21">timestamp</text></g></g><g><text x="114" y="17" text-anchor="middle">userId1</text></g></g><g transform="translate(28,21)"><g transform="translate(0,0)"><rect class="string-text" x="0" y="0" width="8" height="8"/><text x="4" y="4"> </text></g><g transform="translate(8,0)"><rect class="string-text" x="0" y="0" width="8" height="8"/><text x="4" y="4"> </text></g></g><g><text x="36" y="17" text-anchor="middle">groupId1</text></g></g><g transform="translate(32,21)"><g transform="translate(0,0)"><rect class="string-text" x="0" y="0" width="8" height="8"/><text x="4" y="4"> </text></g><g transform="translate(8,0)"><rect class="string-text" x="0" y="0" width="8" height="8"/><text x="4" y="4"> </text></g></g><g><text x="40" y="17" text-anchor="middle">projectId1</text></g></g><g transform="translate(20,21)"><g transform="translate(0,0)"><rect class="string-text" x="0" y="0" width="8" height="8"/><text x="4" y="4"> </text></g><g transform="translate(8,0)"><rect class="string-text" x="0" y="0" width="8" height="8"/><text x="4" y="4"> </text></g></g><g><text x="28" y="17" text-anchor="middle">results</text></g></g><g class="vtree-node" transform="translate(557,58)"><path class="vtree-link" d="M22,25C22,64.5 22,64.5 22,104"/><g class="vtree-node" transform="translate(-18,79)"><path class="vtree-link" d="M40,25C40,64.5 40,64.5 40,104"/><g class="vtree-node" transform="translate(4,79)"><path class="vtree-link" d="M36,25C36,100 36,100 36,175"/><g class="vtree-node" transform="translate(-13,79)"><g transform="translate(0,21)"><g transform="translate(0,0)"><rect class="string-text" x="0" y="0" width="71" height="25"/><text x="4" y="21">groupId</text></g><g transform="translate(71,0)"><rect class="number-text" x="0" y="0" width="27" height="25"/><text x="4" y="21">1</text></g><g transform="translate(0,25)"><rect class="string-text" x="0" y="0" width="71" height="25"/><text x="4" y="21">projectId</text></g><g transform="translate(71,25)"><rect class="string-text" x="0" y="0" width="27" height="25"/><text x="4" y="21">id</text></g><g transform="translate(0,50)"><rect class="string-text" x="0" y="0" width="71" height="25"/><text x="4" y="21">taskId</text></g><g transform="translate(71,50)"><rect class="string-text" x="0" y="0" width="27" height="25"/><text x="4" y="21">id</text></g><g transform="translate(0,75)"><rect class="string-text" x="0" y="0" width="71" height="25"/><text x="4" y="21">taskX</text></g><g transform="translate(71,75)"><rect class="number-text" x="0" y="0" width="27" height="25"/><text x="4" y="21">1</text></g><g transform="translate(0,100)"><rect class="string-text" x="0" y="0" width="71" height="25"/><text x="4" y="21">taskY</text></g><g transform="translate(71,100)"><rect class="number-text" x="0" y="0" width="27" height="25"/><text x="4" y="21">2</text></g><g transform="translate(0,125)"><rect class="string-text" x="0" y="0" width="71" height="25"/><text x="4" y="21">url</text></g><g transform="translate(71,125)"><rect class="string-text" x="0" y="0" width="27" height="25"/><text x="4" y="21">url</text></g></g><g><text x="49" y="17" text-anchor="middle">taskId1</text></g></g><g transform="translate(28,21)"><g transform="translate(0,0)"><rect class="string-text" x="0" y="0" width="8" height="8"/><text x="4" y="4"> </text></g><g transform="translate(8,0)"><rect class="string-text" x="0" y="0" width="8" height="8"/><text x="4" y="4"> </text></g></g><g><text x="36" y="17" text-anchor="middle">groupId1</text></g></g><g transform="translate(32,21)"><g transform="translate(0,0)"><rect class="string-text" x="0" y="0" width="8" height="8"/><text x="4" y="4"> </text></g><g transform="translate(8,0)"><rect class="string-text" x="0" y="0" width="8" height="8"/><text x="4" y="4"> </text></g></g><g><text x="40" y="17" text-anchor="middle">projectId1</text></g></g><g transform="translate(14,21)"><g transform="translate(0,0)"><rect class="string-text" x="0" y="0" width="8" height="8"/><text x="4" y="4"> </text></g><g transform="translate(8,0)"><rect class="string-text" x="0" y="0" width="8" height="8"/><text x="4" y="4"> </text></g></g><g><text x="22" y="17" text-anchor="middle">tasks</text></g></g><g class="vtree-node" transform="translate(708,58)"><path class="vtree-link" d="M23,25C23,81.5 23,81.5 23,138"/><g class="vtree-node" transform="translate(-70,79)"><path class="vtree-link" d="M93,59C93,115 93,115 93,171"/><g class="vtree-node" transform="translate(42,146)"><path class="vtree-link" d="M51,25C51,69 51,69 51,113"/><g class="vtree-node" transform="translate(-27,79)"><g transform="translate(0,21)"><g transform="translate(0,0)"><rect class="string-text" x="0" y="0" width="72" height="25"/><text x="4" y="21">groupId1</text></g><g transform="translate(72,0)"><rect class="string-text" x="0" y="0" width="84" height="25"/><text x="4" y="21">timestamp</text></g></g><g><text x="78" y="17" text-anchor="middle">projectId1</text></g></g><g transform="translate(43,21)"><g transform="translate(0,0)"><rect class="string-text" x="0" y="0" width="8" height="8"/><text x="4" y="4"> </text></g><g transform="translate(8,0)"><rect class="string-text" x="0" y="0" width="8" height="8"/><text x="4" y="4"> </text></g></g><g><text x="51" y="17" text-anchor="middle">contributions</text></g></g><g transform="translate(0,21)"><g transform="translate(0,0)"><rect class="string-text" x="0" y="0" width="136" height="25"/><text x="4" y="21">contributionCount</text></g><g transform="translate(136,0)"><rect class="number-text" x="0" y="0" width="49" height="25"/><text x="4" y="21">1</text></g><g transform="translate(0,25)"><rect class="string-text" x="0" y="0" width="136" height="25"/><text x="4" y="21">distance</text></g><g transform="translate(136,25)"><rect class="number-text" x="0" y="0" width="49" height="25"/><text x="4" y="21">1</text></g><g transform="translate(0,50)"><rect class="string-text" x="0" y="0" width="136" height="25"/><text x="4" y="21">username</text></g><g transform="translate(136,50)"><rect class="string-text" x="0" y="0" width="49" height="25"/><text x="4" y="21">name</text></g></g><g><text x="93" y="17" text-anchor="middle">userId1</text></g></g><g transform="translate(15,21)"><g transform="translate(0,0)"><rect class="string-text" x="0" y="0" width="8" height="8"/><text x="4" y="4"> </text></g><g transform="translate(8,0)"><rect class="string-text" x="0" y="0" width="8" height="8"/><text x="4" y="4"> </text></g></g><g><text x="23" y="17" text-anchor="middle">users</text></g></g><g transform="translate(0,0)"><rect class="string-text" x="0" y="0" width="8" height="8"/><text x="4" y="4"> </text></g><g transform="translate(8,0)"><rect class="string-text" x="0" y="0" width="8" height="8"/><text x="4" y="4"> </text></g></g></g></g></svg>
