<?xml version="1.0" standalone="no"?>
<svg xmlns:xlink="http://www.w3.org/1999/xlink" xmlns="http://www.w3.org/2000/svg" class="vtree" width="960" height="800"><style>
.vtree-node text { font: 14px sans-serif; }
.vtree-link { fill: none; stroke: #888; stroke-width: 2px; }
.vtree-table { stroke-width: 2px; stroke: steelblue; }
path.vtree-table { fill: white; }
g.vtree-node rect { fill: white; stroke: black; stroke-width: 1px; }
g.vtree-node rect.number-text { fill: #d8f0ed; }
g.vtree-node rect.string-text { fill: #e7f0db; }
g.vtree-node rect.boolean-text { fill: #e1d8f0; }
g.vtree-node rect.null-text { fill: #888; }
</style><g class="vtree-root" transform="translate(281.8053525061329,267.1548486861481)scale(0.36856730432277535)"><g class="vtree-node" transform="translate(480,21)"><g class="vtree-node" transform="translate(-8,0)"><path class="vtree-link" d="M8,4C8,43.5 754,43.5 754,83"/><path class="vtree-link" d="M8,4C8,43.5 581,43.5 581,83"/><path class="vtree-link" d="M8,4C8,43.5 420,43.5 420,83"/><path class="vtree-link" d="M8,4C8,43.5 127,43.5 127,83"/><path class="vtree-link" d="M8,4C8,43.5 -233,43.5 -233,83"/><path class="vtree-link" d="M8,4C8,43.5 -504,43.5 -504,83"/><path class="vtree-link" d="M8,4C8,48 -729,48 -729,92"/><g class="vtree-node" transform="translate(-852,58)"><g transform="translate(0,21)"><g transform="translate(0,0)"><rect class="string-text" x="0" y="0" width="129" height="25"/><text x="4" y="21">announcementId</text></g><g transform="translate(129,0)"><rect class="string-text" x="0" y="0" width="116" height="25"/><text x="4" y="21">announcement</text></g></g><g><text x="123" y="17" text-anchor="middle">announcement</text></g></g><g class="vtree-node" transform="translate(-527,58)"><path class="vtree-link" d="M23,25C23,81.5 23,81.5 23,138"/><g class="vtree-node" transform="translate(-70,79)"><path class="vtree-link" d="M93,59C93,115 93,115 93,171"/><g class="vtree-node" transform="translate(42,146)"><path class="vtree-link" d="M51,25C51,69 51,69 51,113"/><g class="vtree-node" transform="translate(-27,79)"><g transform="translate(0,21)"><g transform="translate(0,0)"><rect class="string-text" x="0" y="0" width="72" height="25"/><text x="4" y="21">groupId1</text></g><g transform="translate(72,0)"><rect class="string-text" x="0" y="0" width="84" height="25"/><text x="4" y="21">timestamp</text></g></g><g><text x="78" y="17" text-anchor="middle">projectId1</text></g></g><g transform="translate(43,21)"><g transform="translate(0,0)"><rect class="string-text" x="0" y="0" width="8" height="8"/><text x="4" y="4"> </text></g><g transform="translate(8,0)"><rect class="string-text" x="0" y="0" width="8" height="8"/><text x="4" y="4"> </text></g></g><g><text x="51" y="17" text-anchor="middle">contributions</text></g></g><g transform="translate(0,21)"><g transform="translate(0,0)"><rect class="string-text" x="0" y="0" width="136" height="25"/><text x="4" y="21">contributionCount</text></g><g transform="translate(136,0)"><rect class="number-text" x="0" y="0" width="49" height="25"/><text x="4" y="21">1</text></g><g transform="translate(0,25)"><rect class="string-text" x="0" y="0" width="136" height="25"/><text x="4" y="21">distance</text></g><g transform="translate(136,25)"><rect class="number-text" x="0" y="0" width="49" height="25"/><text x="4" y="21">1</text></g><g transform="translate(0,50)"><rect class="string-text" x="0" y="0" width="136" height="25"/><text x="4" y="21">username</text></g><g transform="translate(136,50)"><rect class="string-text" x="0" y="0" width="49" height="25"/><text x="4" y="21">name</text></g></g><g><text x="93" y="17" text-anchor="middle">userId1</text></g></g><g transform="translate(15,21)"><g transform="translate(0,0)"><rect class="string-text" x="0" y="0" width="8" height="8"/><text x="4" y="4"> </text></g><g transform="translate(8,0)"><rect class="string-text" x="0" y="0" width="8" height="8"/><text x="4" y="4"> </text></g></g><g><text x="23" y="17" text-anchor="middle">users</text></g></g><g class="vtree-node" transform="translate(-284,58)"><path class="vtree-link" d="M51,25C51,175 51,175 51,325"/><g class="vtree-node" transform="translate(-118,79)"><g transform="translate(0,21)"><g transform="translate(0,0)"><rect class="string-text" x="0" y="0" width="145" height="25"/><text x="4" y="21">country</text></g><g transform="translate(145,0)"><rect class="string-text" x="0" y="0" width="193" height="25"/><text x="4" y="21">name</text></g><g transform="translate(0,25)"><rect class="string-text" x="0" y="0" width="145" height="25"/><text x="4" y="21">exampleImage</text></g><g transform="translate(145,25)"><rect class="string-text" x="0" y="0" width="193" height="25"/><text x="4" y="21">exampleImage</text></g><g transform="translate(0,50)"><rect class="string-text" x="0" y="0" width="145" height="25"/><text x="4" y="21">exampleMessage</text></g><g transform="translate(145,50)"><rect class="string-text" x="0" y="0" width="193" height="25"/><text x="4" y="21">exampleMessage</text></g><g transform="translate(0,75)"><rect class="string-text" x="0" y="0" width="145" height="25"/><text x="4" y="21">groupMaxSize</text></g><g transform="translate(145,75)"><rect class="number-text" x="0" y="0" width="193" height="25"/><text x="4" y="21">10</text></g><g transform="translate(0,100)"><rect class="string-text" x="0" y="0" width="145" height="25"/><text x="4" y="21">image</text></g><g transform="translate(145,100)"><rect class="string-text" x="0" y="0" width="193" height="25"/><text x="4" y="21">image</text></g><g transform="translate(0,125)"><rect class="string-text" x="0" y="0" width="145" height="25"/><text x="4" y="21">kml</text></g><g transform="translate(145,125)"><rect class="string-text" x="0" y="0" width="193" height="25"/><text x="4" y="21">kml</text></g><g transform="translate(0,150)"><rect class="string-text" x="0" y="0" width="145" height="25"/><text x="4" y="21">lookFor</text></g><g transform="translate(145,150)"><rect class="string-text" x="0" y="0" width="193" height="25"/><text x="4" y="21">text</text></g><g transform="translate(0,175)"><rect class="string-text" x="0" y="0" width="145" height="25"/><text x="4" y="21">name</text></g><g transform="translate(145,175)"><rect class="string-text" x="0" y="0" width="193" height="25"/><text x="4" y="21">name</text></g><g transform="translate(0,200)"><rect class="string-text" x="0" y="0" width="145" height="25"/><text x="4" y="21">projectDetails</text></g><g transform="translate(145,200)"><rect class="string-text" x="0" y="0" width="193" height="25"/><text x="4" y="21">text</text></g><g transform="translate(0,225)"><rect class="string-text" x="0" y="0" width="145" height="25"/><text x="4" y="21">projectType</text></g><g transform="translate(145,225)"><rect class="number-text" x="0" y="0" width="193" height="25"/><text x="4" y="21">1</text></g><g transform="translate(0,250)"><rect class="string-text" x="0" y="0" width="145" height="25"/><text x="4" y="21">purposeMessage</text></g><g transform="translate(145,250)"><rect class="string-text" x="0" y="0" width="193" height="25"/><text x="4" y="21">brief message (140 chars)</text></g><g transform="translate(0,275)"><rect class="string-text" x="0" y="0" width="145" height="25"/><text x="4" y="21">submissionKey</text></g><g transform="translate(145,275)"><rect class="string-text" x="0" y="0" width="193" height="25"/><text x="4" y="21">key</text></g><g transform="translate(0,300)"><rect class="string-text" x="0" y="0" width="145" height="25"/><text x="4" y="21">thankYouMessage</text></g><g transform="translate(145,300)"><rect class="string-text" x="0" y="0" width="193" height="25"/><text x="4" y="21">brief message (140 chars)</text></g><g transform="translate(0,325)"><rect class="string-text" x="0" y="0" width="145" height="25"/><text x="4" y="21">tileServer</text></g><g transform="translate(145,325)"><rect class="string-text" x="0" y="0" width="193" height="25"/><text x="4" y="21">name</text></g><g transform="translate(0,350)"><rect class="string-text" x="0" y="0" width="145" height="25"/><text x="4" y="21">tileServerUrl</text></g><g transform="translate(145,350)"><rect class="string-text" x="0" y="0" width="193" height="25"/><text x="4" y="21">url</text></g><g transform="translate(0,375)"><rect class="string-text" x="0" y="0" width="145" height="25"/><text x="4" y="21">verificationNumber</text></g><g transform="translate(145,375)"><rect class="number-text" x="0" y="0" width="193" height="25"/><text x="4" y="21">3</text></g><g transform="translate(0,400)"><rect class="string-text" x="0" y="0" width="145" height="25"/><text x="4" y="21">wmtsLayerName</text></g><g transform="translate(145,400)"><rect class="string-text" x="0" y="0" width="193" height="25"/><text x="4" y="21">layer (optional)</text></g><g transform="translate(0,425)"><rect class="string-text" x="0" y="0" width="145" height="25"/><text x="4" y="21">zoomLevel</text></g><g transform="translate(145,425)"><rect class="number-text" x="0" y="0" width="193" height="25"/><text x="4" y="21">3</text></g></g><g><text x="169" y="17" text-anchor="middle">projectDraftId1</text></g></g><g transform="translate(43,21)"><g transform="translate(0,0)"><rect class="string-text" x="0" y="0" width="8" height="8"/><text x="4" y="4"> </text></g><g transform="translate(8,0)"><rect class="string-text" x="0" y="0" width="8" height="8"/><text x="4" y="4"> </text></g></g><g><text x="51" y="17" text-anchor="middle">projectDrafts</text></g></g><g class="vtree-node" transform="translate(94,58)"><path class="vtree-link" d="M33,25C33,212.5 33,212.5 33,400"/><g class="vtree-node" transform="translate(-148,79)"><g transform="translate(0,21)"><g transform="translate(0,0)"><rect class="string-text" x="0" y="0" width="169" height="25"/><text x="4" y="21">archived</text></g><g transform="translate(169,0)"><rect class="boolean-text" x="0" y="0" width="193" height="25"/><text x="4" y="21">false</text></g><g transform="translate(0,25)"><rect class="string-text" x="0" y="0" width="169" height="25"/><text x="4" y="21">centroid</text></g><g transform="translate(169,25)"><rect class="string-text" x="0" y="0" width="193" height="25"/><text x="4" y="21">wkt</text></g><g transform="translate(0,50)"><rect class="string-text" x="0" y="0" width="169" height="25"/><text x="4" y="21">contributors</text></g><g transform="translate(169,50)"><rect class="number-text" x="0" y="0" width="193" height="25"/><text x="4" y="21">2</text></g><g transform="translate(0,75)"><rect class="string-text" x="0" y="0" width="169" height="25"/><text x="4" y="21">country</text></g><g transform="translate(169,75)"><rect class="string-text" x="0" y="0" width="193" height="25"/><text x="4" y="21">name</text></g><g transform="translate(0,100)"><rect class="string-text" x="0" y="0" width="169" height="25"/><text x="4" y="21">created</text></g><g transform="translate(169,100)"><rect class="string-text" x="0" y="0" width="193" height="25"/><text x="4" y="21">timestamp</text></g><g transform="translate(0,125)"><rect class="string-text" x="0" y="0" width="169" height="25"/><text x="4" y="21">exampleImage</text></g><g transform="translate(169,125)"><rect class="string-text" x="0" y="0" width="193" height="25"/><text x="4" y="21">exampleImage</text></g><g transform="translate(0,150)"><rect class="string-text" x="0" y="0" width="169" height="25"/><text x="4" y="21">exampleMessage</text></g><g transform="translate(169,150)"><rect class="string-text" x="0" y="0" width="193" height="25"/><text x="4" y="21">exampleMessage</text></g><g transform="translate(0,175)"><rect class="string-text" x="0" y="0" width="169" height="25"/><text x="4" y="21">groupMaxSize</text></g><g transform="translate(169,175)"><rect class="number-text" x="0" y="0" width="193" height="25"/><text x="4" y="21">10</text></g><g transform="translate(0,200)"><rect class="string-text" x="0" y="0" width="169" height="25"/><text x="4" y="21">image</text></g><g transform="translate(169,200)"><rect class="string-text" x="0" y="0" width="193" height="25"/><text x="4" y="21">image</text></g><g transform="translate(0,225)"><rect class="string-text" x="0" y="0" width="169" height="25"/><text x="4" y="21">imageOfMap</text></g><g transform="translate(169,225)"><rect class="string-text" x="0" y="0" width="193" height="25"/><text x="4" y="21">image</text></g><g transform="translate(0,250)"><rect class="string-text" x="0" y="0" width="169" height="25"/><text x="4" y="21">isFeatured</text></g><g transform="translate(169,250)"><rect class="boolean-text" x="0" y="0" width="193" height="25"/><text x="4" y="21">true</text></g><g transform="translate(0,275)"><rect class="string-text" x="0" y="0" width="169" height="25"/><text x="4" y="21">lookFor</text></g><g transform="translate(169,275)"><rect class="string-text" x="0" y="0" width="193" height="25"/><text x="4" y="21">text</text></g><g transform="translate(0,300)"><rect class="string-text" x="0" y="0" width="169" height="25"/><text x="4" y="21">progress</text></g><g transform="translate(169,300)"><rect class="number-text" x="0" y="0" width="193" height="25"/><text x="4" y="21">44</text></g><g transform="translate(0,325)"><rect class="string-text" x="0" y="0" width="169" height="25"/><text x="4" y="21">projectDetails</text></g><g transform="translate(169,325)"><rect class="string-text" x="0" y="0" width="193" height="25"/><text x="4" y="21">details</text></g><g transform="translate(0,350)"><rect class="string-text" x="0" y="0" width="169" height="25"/><text x="4" y="21">projectId</text></g><g transform="translate(169,350)"><rect class="string-text" x="0" y="0" width="193" height="25"/><text x="4" y="21">id</text></g><g transform="translate(0,375)"><rect class="string-text" x="0" y="0" width="169" height="25"/><text x="4" y="21">projectType</text></g><g transform="translate(169,375)"><rect class="number-text" x="0" y="0" width="193" height="25"/><text x="4" y="21">1</text></g><g transform="translate(0,400)"><rect class="string-text" x="0" y="0" width="169" height="25"/><text x="4" y="21">purposeMessage</text></g><g transform="translate(169,400)"><rect class="string-text" x="0" y="0" width="193" height="25"/><text x="4" y="21">brief message (140 chars)</text></g><g transform="translate(0,425)"><rect class="string-text" x="0" y="0" width="169" height="25"/><text x="4" y="21">resultCounter</text></g><g transform="translate(169,425)"><rect class="number-text" x="0" y="0" width="193" height="25"/><text x="4" y="21">3</text></g><g transform="translate(0,450)"><rect class="string-text" x="0" y="0" width="169" height="25"/><text x="4" y="21">resultRequiredCounter</text></g><g transform="translate(169,450)"><rect class="number-text" x="0" y="0" width="193" height="25"/><text x="4" y="21">125</text></g><g transform="translate(0,475)"><rect class="string-text" x="0" y="0" width="169" height="25"/><text x="4" y="21">scale</text></g><g transform="translate(169,475)"><rect class="string-text" x="0" y="0" width="193" height="25"/><text x="4" y="21">scale</text></g><g transform="translate(0,500)"><rect class="string-text" x="0" y="0" width="169" height="25"/><text x="4" y="21">status</text></g><g transform="translate(169,500)"><rect class="string-text" x="0" y="0" width="193" height="25"/><text x="4" y="21">active</text></g><g transform="translate(0,525)"><rect class="string-text" x="0" y="0" width="169" height="25"/><text x="4" y="21">thankYouMessage</text></g><g transform="translate(169,525)"><rect class="string-text" x="0" y="0" width="193" height="25"/><text x="4" y="21">brief message (140 chars)</text></g><g transform="translate(0,550)"><rect class="string-text" x="0" y="0" width="169" height="25"/><text x="4" y="21">verificationNumber</text></g><g transform="translate(169,550)"><rect class="number-text" x="0" y="0" width="193" height="25"/><text x="4" y="21">1</text></g><g transform="translate(0,575)"><rect class="string-text" x="0" y="0" width="169" height="25"/><text x="4" y="21">zoomLevel</text></g><g transform="translate(169,575)"><rect class="number-text" x="0" y="0" width="193" height="25"/><text x="4" y="21">18</text></g></g><g><text x="181" y="17" text-anchor="middle">projectId1</text></g></g><g transform="translate(25,21)"><g transform="translate(0,0)"><rect class="string-text" x="0" y="0" width="8" height="8"/><text x="4" y="4"> </text></g><g transform="translate(8,0)"><rect class="string-text" x="0" y="0" width="8" height="8"/><text x="4" y="4"> </text></g></g><g><text x="33" y="17" text-anchor="middle">projects</text></g></g><g class="vtree-node" transform="translate(391,58)"><path class="vtree-link" d="M29,25C29,64.5 29,64.5 29,104"/><g class="vtree-node" transform="translate(-11,79)"><path class="vtree-link" d="M40,25C40,125 40,125 40,225"/><g class="vtree-node" transform="translate(-62,79)"><g transform="translate(0,21)"><g transform="translate(0,0)"><rect class="string-text" x="0" y="0" width="169" height="25"/><text x="4" y="21">groupId</text></g><g transform="translate(169,0)"><rect class="number-text" x="0" y="0" width="35" height="25"/><text x="4" y="21">1</text></g><g transform="translate(0,25)"><rect class="string-text" x="0" y="0" width="169" height="25"/><text x="4" y="21">numberOfTasks</text></g><g transform="translate(169,25)"><rect class="number-text" x="0" y="0" width="35" height="25"/><text x="4" y="21">1</text></g><g transform="translate(0,50)"><rect class="string-text" x="0" y="0" width="169" height="25"/><text x="4" y="21">progress</text></g><g transform="translate(169,50)"><rect class="number-text" x="0" y="0" width="35" height="25"/><text x="4" y="21">0.8</text></g><g transform="translate(0,75)"><rect class="string-text" x="0" y="0" width="169" height="25"/><text x="4" y="21">projectId</text></g><g transform="translate(169,75)"><rect class="string-text" x="0" y="0" width="35" height="25"/><text x="4" y="21">id</text></g><g transform="translate(0,100)"><rect class="string-text" x="0" y="0" width="169" height="25"/><text x="4" y="21">resultCounter</text></g><g transform="translate(169,100)"><rect class="number-text" x="0" y="0" width="35" height="25"/><text x="4" y="21">3</text></g><g transform="translate(0,125)"><rect class="string-text" x="0" y="0" width="169" height="25"/><text x="4" y="21">resultRequiredCounter</text></g><g transform="translate(169,125)"><rect class="number-text" x="0" y="0" width="35" height="25"/><text x="4" y="21">125</text></g><g transform="translate(0,150)"><rect class="string-text" x="0" y="0" width="169" height="25"/><text x="4" y="21">xMax</text></g><g transform="translate(169,150)"><rect class="number-text" x="0" y="0" width="35" height="25"/><text x="4" y="21">5</text></g><g transform="translate(0,175)"><rect class="string-text" x="0" y="0" width="169" height="25"/><text x="4" y="21">xMin</text></g><g transform="translate(169,175)"><rect class="number-text" x="0" y="0" width="35" height="25"/><text x="4" y="21">6</text></g><g transform="translate(0,200)"><rect class="string-text" x="0" y="0" width="169" height="25"/><text x="4" y="21">yMax</text></g><g transform="translate(169,200)"><rect class="number-text" x="0" y="0" width="35" height="25"/><text x="4" y="21">3</text></g><g transform="translate(0,225)"><rect class="string-text" x="0" y="0" width="169" height="25"/><text x="4" y="21">yMin</text></g><g transform="translate(169,225)"><rect class="number-text" x="0" y="0" width="35" height="25"/><text x="4" y="21">4</text></g></g><g><text x="102" y="17" text-anchor="middle">groupId1</text></g></g><g transform="translate(32,21)"><g transform="translate(0,0)"><rect class="string-text" x="0" y="0" width="8" height="8"/><text x="4" y="4"> </text></g><g transform="translate(8,0)"><rect class="string-text" x="0" y="0" width="8" height="8"/><text x="4" y="4"> </text></g></g><g><text x="40" y="17" text-anchor="middle">projectId1</text></g></g><g transform="translate(21,21)"><g transform="translate(0,0)"><rect class="string-text" x="0" y="0" width="8" height="8"/><text x="4" y="4"> </text></g><g transform="translate(8,0)"><rect class="string-text" x="0" y="0" width="8" height="8"/><text x="4" y="4"> </text></g></g><g><text x="29" y="17" text-anchor="middle">groups</text></g></g><g class="vtree-node" transform="translate(559,58)"><path class="vtree-link" d="M22,25C22,64.5 22,64.5 22,104"/><g class="vtree-node" transform="translate(-18,79)"><path class="vtree-link" d="M40,25C40,64.5 40,64.5 40,104"/><g class="vtree-node" transform="translate(4,79)"><path class="vtree-link" d="M36,25C36,100 36,100 36,175"/><g class="vtree-node" transform="translate(-13,79)"><g transform="translate(0,21)"><g transform="translate(0,0)"><rect class="string-text" x="0" y="0" width="71" height="25"/><text x="4" y="21">groupId</text></g><g transform="translate(71,0)"><rect class="number-text" x="0" y="0" width="27" height="25"/><text x="4" y="21">1</text></g><g transform="translate(0,25)"><rect class="string-text" x="0" y="0" width="71" height="25"/><text x="4" y="21">projectId</text></g><g transform="translate(71,25)"><rect class="string-text" x="0" y="0" width="27" height="25"/><text x="4" y="21">id</text></g><g transform="translate(0,50)"><rect class="string-text" x="0" y="0" width="71" height="25"/><text x="4" y="21">taskId</text></g><g transform="translate(71,50)"><rect class="string-text" x="0" y="0" width="27" height="25"/><text x="4" y="21">id</text></g><g transform="translate(0,75)"><rect class="string-text" x="0" y="0" width="71" height="25"/><text x="4" y="21">taskX</text></g><g transform="translate(71,75)"><rect class="number-text" x="0" y="0" width="27" height="25"/><text x="4" y="21">1</text></g><g transform="translate(0,100)"><rect class="string-text" x="0" y="0" width="71" height="25"/><text x="4" y="21">taskY</text></g><g transform="translate(71,100)"><rect class="number-text" x="0" y="0" width="27" height="25"/><text x="4" y="21">2</text></g><g transform="translate(0,125)"><rect class="string-text" x="0" y="0" width="71" height="25"/><text x="4" y="21">url</text></g><g transform="translate(71,125)"><rect class="string-text" x="0" y="0" width="27" height="25"/><text x="4" y="21">url</text></g></g><g><text x="49" y="17" text-anchor="middle">taskId1</text></g></g><g transform="translate(28,21)"><g transform="translate(0,0)"><rect class="string-text" x="0" y="0" width="8" height="8"/><text x="4" y="4"> </text></g><g transform="translate(8,0)"><rect class="string-text" x="0" y="0" width="8" height="8"/><text x="4" y="4"> </text></g></g><g><text x="36" y="17" text-anchor="middle">groupId1</text></g></g><g transform="translate(32,21)"><g transform="translate(0,0)"><rect class="string-text" x="0" y="0" width="8" height="8"/><text x="4" y="4"> </text></g><g transform="translate(8,0)"><rect class="string-text" x="0" y="0" width="8" height="8"/><text x="4" y="4"> </text></g></g><g><text x="40" y="17" text-anchor="middle">projectId1</text></g></g><g transform="translate(14,21)"><g transform="translate(0,0)"><rect class="string-text" x="0" y="0" width="8" height="8"/><text x="4" y="4"> </text></g><g transform="translate(8,0)"><rect class="string-text" x="0" y="0" width="8" height="8"/><text x="4" y="4"> </text></g></g><g><text x="22" y="17" text-anchor="middle">tasks</text></g></g><g class="vtree-node" transform="translate(726,58)"><path class="vtree-link" d="M28,25C28,64.5 28,64.5 28,104"/><g class="vtree-node" transform="translate(-12,79)"><path class="vtree-link" d="M40,25C40,64.5 40,64.5 40,104"/><g class="vtree-node" transform="translate(4,79)"><path class="vtree-link" d="M36,25C36,75 36,75 36,125"/><g class="vtree-node" transform="translate(-78,79)"><g transform="translate(0,21)"><g transform="translate(0,0)"><rect class="string-text" x="0" y="0" width="143" height="25"/><text x="4" y="21">resultId1(=taskId1)</text></g><g transform="translate(143,0)"><rect class="number-text" x="0" y="0" width="84" height="25"/><text x="4" y="21">1</text></g><g transform="translate(0,25)"><rect class="string-text" x="0" y="0" width="143" height="25"/><text x="4" y="21">timestamp</text></g><g transform="translate(143,25)"><rect class="string-text" x="0" y="0" width="84" height="25"/><text x="4" y="21">timestamp</text></g></g><g><text x="114" y="17" text-anchor="middle">userId1</text></g></g><g transform="translate(28,21)"><g transform="translate(0,0)"><rect class="string-text" x="0" y="0" width="8" height="8"/><text x="4" y="4"> </text></g><g transform="translate(8,0)"><rect class="string-text" x="0" y="0" width="8" height="8"/><text x="4" y="4"> </text></g></g><g><text x="36" y="17" text-anchor="middle">groupId1</text></g></g><g transform="translate(32,21)"><g transform="translate(0,0)"><rect class="string-text" x="0" y="0" width="8" height="8"/><text x="4" y="4"> </text></g><g transform="translate(8,0)"><rect class="string-text" x="0" y="0" width="8" height="8"/><text x="4" y="4"> </text></g></g><g><text x="40" y="17" text-anchor="middle">projectId1</text></g></g><g transform="translate(20,21)"><g transform="translate(0,0)"><rect class="string-text" x="0" y="0" width="8" height="8"/><text x="4" y="4"> </text></g><g transform="translate(8,0)"><rect class="string-text" x="0" y="0" width="8" height="8"/><text x="4" y="4"> </text></g></g><g><text x="28" y="17" text-anchor="middle">results</text></g></g><g transform="translate(0,0)"><rect class="string-text" x="0" y="0" width="8" height="8"/><text x="4" y="4"> </text></g><g transform="translate(8,0)"><rect class="string-text" x="0" y="0" width="8" height="8"/><text x="4" y="4"> </text></g></g></g></g></svg>
