<?xml version="1.0" standalone="no"?>
<svg xmlns:xlink="http://www.w3.org/1999/xlink" xmlns="http://www.w3.org/2000/svg" class="vtree" width="960" height="800"><style>
.vtree-node text { font: 14px sans-serif; }
.vtree-link { fill: none; stroke: #888; stroke-width: 2px; }
.vtree-table { stroke-width: 2px; stroke: steelblue; }
path.vtree-table { fill: white; }
g.vtree-node rect { fill: white; stroke: black; stroke-width: 1px; }
g.vtree-node rect.number-text { fill: #d8f0ed; }
g.vtree-node rect.string-text { fill: #e7f0db; }
g.vtree-node rect.boolean-text { fill: #e1d8f0; }
g.vtree-node rect.null-text { fill: #888; }
</style><g class="vtree-root"><g class="vtree-node" transform="translate(480,73)"><g class="vtree-node" transform="translate(-8,0)"><path class="vtree-link" d="M8,4C8,43.5 421,43.5 421,83"/><path class="vtree-link" d="M8,4C8,43.5 296,43.5 296,83"/><path class="vtree-link" d="M8,4C8,43.5 188,43.5 188,83"/><path class="vtree-link" d="M8,4C8,43.5 -1,43.5 -1,83"/><path class="vtree-link" d="M8,4C8,43.5 -223,43.5 -223,83"/><path class="vtree-link" d="M8,4C8,43.5 -403,43.5 -403,83"/><g class="vtree-node" transform="translate(-432,58)"><path class="vtree-link" d="M29,25C29,64.5 29,64.5 29,104"/><g class="vtree-node" transform="translate(-11,79)"><path class="vtree-link" d="M40,25C40,119 40,119 40,213"/><g class="vtree-node" transform="translate(-38,79)"><g transform="translate(0,21)"><g transform="translate(0,0)"><rect class="string-text" x="0" y="0" width="130" height="25"/><text x="4" y="21">completedcount</text></g><g transform="translate(130,0)"><rect class="number-text" x="0" y="0" width="26" height="25"/><text x="4" y="21">1</text></g><g transform="translate(0,25)"><rect class="string-text" x="0" y="0" width="130" height="25"/><text x="4" y="21">count</text></g><g transform="translate(130,25)"><rect class="number-text" x="0" y="0" width="26" height="25"/><text x="4" y="21">1</text></g><g transform="translate(0,50)"><rect class="string-text" x="0" y="0" width="130" height="25"/><text x="4" y="21">neededCount</text></g><g transform="translate(130,50)"><rect class="number-text" x="0" y="0" width="26" height="25"/><text x="4" y="21">10</text></g><g transform="translate(0,75)"><rect class="string-text" x="0" y="0" width="130" height="25"/><text x="4" y="21">verificationCount</text></g><g transform="translate(130,75)"><rect class="number-text" x="0" y="0" width="26" height="25"/><text x="4" y="21">1</text></g><g transform="translate(0,100)"><rect class="string-text" x="0" y="0" width="130" height="25"/><text x="4" y="21">xMax</text></g><g transform="translate(130,100)"><rect class="number-text" x="0" y="0" width="26" height="25"/><text x="4" y="21">5</text></g><g transform="translate(0,125)"><rect class="string-text" x="0" y="0" width="130" height="25"/><text x="4" y="21">xMin</text></g><g transform="translate(130,125)"><rect class="number-text" x="0" y="0" width="26" height="25"/><text x="4" y="21">6</text></g><g transform="translate(0,150)"><rect class="string-text" x="0" y="0" width="130" height="25"/><text x="4" y="21">yMax</text></g><g transform="translate(130,150)"><rect class="number-text" x="0" y="0" width="26" height="25"/><text x="4" y="21">3</text></g><g transform="translate(0,175)"><rect class="string-text" x="0" y="0" width="130" height="25"/><text x="4" y="21">yMin</text></g><g transform="translate(130,175)"><rect class="number-text" x="0" y="0" width="26" height="25"/><text x="4" y="21">4</text></g><g transform="translate(0,200)"><rect class="string-text" x="0" y="0" width="130" height="25"/><text x="4" y="21">zoomLevel</text></g><g transform="translate(130,200)"><rect class="number-text" x="0" y="0" width="26" height="25"/><text x="4" y="21">1</text></g></g><g><text x="78" y="17" text-anchor="middle">groupId1</text></g></g><g transform="translate(32,21)"><g transform="translate(0,0)"><rect class="string-text" x="0" y="0" width="8" height="8"/><text x="4" y="4"> </text></g><g transform="translate(8,0)"><rect class="string-text" x="0" y="0" width="8" height="8"/><text x="4" y="4"> </text></g></g><g><text x="40" y="17" text-anchor="middle">projectId1</text></g></g><g transform="translate(21,21)"><g transform="translate(0,0)"><rect class="string-text" x="0" y="0" width="8" height="8"/><text x="4" y="4"> </text></g><g transform="translate(8,0)"><rect class="string-text" x="0" y="0" width="8" height="8"/><text x="4" y="4"> </text></g></g><g><text x="29" y="17" text-anchor="middle">groups</text></g></g><g class="vtree-node" transform="translate(-254,58)"><path class="vtree-link" d="M31,25C31,106.5 31,106.5 31,188"/><g class="vtree-node" transform="translate(-55,79)"><path class="vtree-link" d="M86,109C86,219.5 86,219.5 86,330"/><g class="vtree-node" transform="translate(-6,246)"><g transform="translate(0,21)"><g transform="translate(0,0)"><rect class="string-text" x="0" y="0" width="130" height="25"/><text x="4" y="21">image</text></g><g transform="translate(130,0)"><rect class="string-text" x="0" y="0" width="53" height="25"/><text x="4" y="21">image</text></g><g transform="translate(0,25)"><rect class="string-text" x="0" y="0" width="130" height="25"/><text x="4" y="21">lookFor</text></g><g transform="translate(130,25)"><rect class="string-text" x="0" y="0" width="53" height="25"/><text x="4" y="21">text</text></g><g transform="translate(0,50)"><rect class="string-text" x="0" y="0" width="130" height="25"/><text x="4" y="21">name</text></g><g transform="translate(130,50)"><rect class="string-text" x="0" y="0" width="53" height="25"/><text x="4" y="21">name</text></g><g transform="translate(0,75)"><rect class="string-text" x="0" y="0" width="130" height="25"/><text x="4" y="21">projectDetails</text></g><g transform="translate(130,75)"><rect class="string-text" x="0" y="0" width="53" height="25"/><text x="4" y="21">text</text></g><g transform="translate(0,100)"><rect class="string-text" x="0" y="0" width="130" height="25"/><text x="4" y="21">verificationCount</text></g><g transform="translate(130,100)"><rect class="number-text" x="0" y="0" width="53" height="25"/><text x="4" y="21">3</text></g></g><g><text x="92" y="17" text-anchor="middle">project</text></g></g><g transform="translate(0,21)"><g transform="translate(0,0)"><rect class="string-text" x="0" y="0" width="127" height="25"/><text x="4" y="21">complete</text></g><g transform="translate(127,0)"><rect class="boolean-text" x="0" y="0" width="44" height="25"/><text x="4" y="21">true</text></g><g transform="translate(0,25)"><rect class="string-text" x="0" y="0" width="127" height="25"/><text x="4" y="21">key</text></g><g transform="translate(127,25)"><rect class="string-text" x="0" y="0" width="44" height="25"/><text x="4" y="21">key</text></g><g transform="translate(0,50)"><rect class="string-text" x="0" y="0" width="127" height="25"/><text x="4" y="21">kml</text></g><g transform="translate(127,50)"><rect class="string-text" x="0" y="0" width="44" height="25"/><text x="4" y="21">kml</text></g><g transform="translate(0,75)"><rect class="string-text" x="0" y="0" width="127" height="25"/><text x="4" y="21">projectType</text></g><g transform="translate(127,75)"><rect class="number-text" x="0" y="0" width="44" height="25"/><text x="4" y="21">1</text></g><g transform="translate(0,100)"><rect class="string-text" x="0" y="0" width="127" height="25"/><text x="4" y="21">tileServer</text></g><g transform="translate(127,100)"><rect class="string-text" x="0" y="0" width="44" height="25"/><text x="4" y="21">url</text></g><g transform="translate(0,125)"><rect class="string-text" x="0" y="0" width="127" height="25"/><text x="4" y="21">wmtsLayerName</text></g><g transform="translate(127,125)"><rect class="string-text" x="0" y="0" width="44" height="25"/><text x="4" y="21">layer</text></g><g transform="translate(0,150)"><rect class="string-text" x="0" y="0" width="127" height="25"/><text x="4" y="21">zoomLeve</text></g><g transform="translate(127,150)"><rect class="number-text" x="0" y="0" width="44" height="25"/><text x="4" y="21">3</text></g></g><g><text x="86" y="17" text-anchor="middle">importId1</text></g></g><g transform="translate(23,21)"><g transform="translate(0,0)"><rect class="string-text" x="0" y="0" width="8" height="8"/><text x="4" y="4"> </text></g><g transform="translate(8,0)"><rect class="string-text" x="0" y="0" width="8" height="8"/><text x="4" y="4"> </text></g></g><g><text x="31" y="17" text-anchor="middle">imports</text></g></g><g class="vtree-node" transform="translate(-34,58)"><path class="vtree-link" d="M33,25C33,131.5 33,131.5 33,238"/><g class="vtree-node" transform="translate(-72,79)"><path class="vtree-link" d="M105,159C105,300.5 105,300.5 105,442"/><g class="vtree-node" transform="translate(-16,346)"><g transform="translate(0,21)"><g transform="translate(0,0)"><rect class="string-text" x="0" y="0" width="161" height="25"/><text x="4" y="21">apiKey</text></g><g transform="translate(161,0)"><rect class="string-text" x="0" y="0" width="81" height="25"/><text x="4" y="21">Text string</text></g><g transform="translate(0,25)"><rect class="string-text" x="0" y="0" width="161" height="25"/><text x="4" y="21">groupSize</text></g><g transform="translate(161,25)"><rect class="string-text" x="0" y="0" width="81" height="25"/><text x="4" y="21">Text string</text></g><g transform="translate(0,50)"><rect class="string-text" x="0" y="0" width="161" height="25"/><text x="4" y="21">inputGeometries</text></g><g transform="translate(161,50)"><rect class="string-text" x="0" y="0" width="81" height="25"/><text x="4" y="21">Text string</text></g><g transform="translate(0,75)"><rect class="string-text" x="0" y="0" width="161" height="25"/><text x="4" y="21">tileServer</text></g><g transform="translate(161,75)"><rect class="string-text" x="0" y="0" width="81" height="25"/><text x="4" y="21">Text string</text></g><g transform="translate(0,100)"><rect class="string-text" x="0" y="0" width="161" height="25"/><text x="4" y="21">tileServerUrl</text></g><g transform="translate(161,100)"><rect class="string-text" x="0" y="0" width="81" height="25"/><text x="4" y="21">Text string</text></g><g transform="translate(0,125)"><rect class="string-text" x="0" y="0" width="161" height="25"/><text x="4" y="21">validinputGeometries</text></g><g transform="translate(161,125)"><rect class="string-text" x="0" y="0" width="81" height="25"/><text x="4" y="21">Text string</text></g></g><g><text x="121" y="17" text-anchor="middle">info</text></g></g><g transform="translate(0,21)"><g transform="translate(0,0)"><rect class="string-text" x="0" y="0" width="130" height="25"/><text x="4" y="21">contributors</text></g><g transform="translate(130,0)"><rect class="number-text" x="0" y="0" width="80" height="25"/><text x="4" y="21">2</text></g><g transform="translate(0,25)"><rect class="string-text" x="0" y="0" width="130" height="25"/><text x="4" y="21">groupAverage</text></g><g transform="translate(130,25)"><rect class="number-text" x="0" y="0" width="80" height="25"/><text x="4" y="21">2</text></g><g transform="translate(0,50)"><rect class="string-text" x="0" y="0" width="130" height="25"/><text x="4" y="21">image</text></g><g transform="translate(130,50)"><rect class="string-text" x="0" y="0" width="80" height="25"/><text x="4" y="21">image</text></g><g transform="translate(0,75)"><rect class="string-text" x="0" y="0" width="130" height="25"/><text x="4" y="21">importKey</text></g><g transform="translate(130,75)"><rect class="string-text" x="0" y="0" width="80" height="25"/><text x="4" y="21">importKey</text></g><g transform="translate(0,100)"><rect class="string-text" x="0" y="0" width="130" height="25"/><text x="4" y="21">isFeatured</text></g><g transform="translate(130,100)"><rect class="boolean-text" x="0" y="0" width="80" height="25"/><text x="4" y="21">true</text></g><g transform="translate(0,125)"><rect class="string-text" x="0" y="0" width="130" height="25"/><text x="4" y="21">lookFor</text></g><g transform="translate(130,125)"><rect class="string-text" x="0" y="0" width="80" height="25"/><text x="4" y="21">text</text></g><g transform="translate(0,150)"><rect class="string-text" x="0" y="0" width="130" height="25"/><text x="4" y="21">progress</text></g><g transform="translate(130,150)"><rect class="number-text" x="0" y="0" width="80" height="25"/><text x="4" y="21">44</text></g><g transform="translate(0,175)"><rect class="string-text" x="0" y="0" width="130" height="25"/><text x="4" y="21">projectDetails</text></g><g transform="translate(130,175)"><rect class="string-text" x="0" y="0" width="80" height="25"/><text x="4" y="21">details</text></g><g transform="translate(0,200)"><rect class="string-text" x="0" y="0" width="130" height="25"/><text x="4" y="21">projectType</text></g><g transform="translate(130,200)"><rect class="number-text" x="0" y="0" width="80" height="25"/><text x="4" y="21">2</text></g><g transform="translate(0,225)"><rect class="string-text" x="0" y="0" width="130" height="25"/><text x="4" y="21">state</text></g><g transform="translate(130,225)"><rect class="number-text" x="0" y="0" width="80" height="25"/><text x="4" y="21">1</text></g><g transform="translate(0,250)"><rect class="string-text" x="0" y="0" width="130" height="25"/><text x="4" y="21">verificationCount</text></g><g transform="translate(130,250)"><rect class="number-text" x="0" y="0" width="80" height="25"/><text x="4" y="21">1</text></g></g><g><text x="105" y="17" text-anchor="middle">projectId1</text></g></g><g transform="translate(25,21)"><g transform="translate(0,0)"><rect class="string-text" x="0" y="0" width="8" height="8"/><text x="4" y="4"> </text></g><g transform="translate(8,0)"><rect class="string-text" x="0" y="0" width="8" height="8"/><text x="4" y="4"> </text></g></g><g><text x="33" y="17" text-anchor="middle">projects</text></g></g><g class="vtree-node" transform="translate(160,58)"><path class="vtree-link" d="M28,25C28,64.5 28,64.5 28,104"/><g class="vtree-node" transform="translate(-12,79)"><path class="vtree-link" d="M40,25C40,64.5 40,64.5 40,104"/><g class="vtree-node" transform="translate(4,79)"><path class="vtree-link" d="M36,25C36,64.5 36,64.5 36,104"/><g class="vtree-node" transform="translate(6,79)"><path class="vtree-link" d="M30,25C30,64.5 30,64.5 30,104"/><g class="vtree-node" transform="translate(-1,79)"><path class="vtree-link" d="M31,25C31,87.5 31,87.5 31,150"/><g class="vtree-node" transform="translate(-27,79)"><g transform="translate(0,21)"><g transform="translate(0,0)"><rect class="string-text" x="0" y="0" width="84" height="25"/><text x="4" y="21">item</text></g><g transform="translate(84,0)"><rect class="number-text" x="0" y="0" width="32" height="25"/><text x="4" y="21">1</text></g><g transform="translate(0,25)"><rect class="string-text" x="0" y="0" width="84" height="25"/><text x="4" y="21">result</text></g><g transform="translate(84,25)"><rect class="number-text" x="0" y="0" width="32" height="25"/><text x="4" y="21">1</text></g><g transform="translate(0,50)"><rect class="string-text" x="0" y="0" width="84" height="25"/><text x="4" y="21">timestamp</text></g><g transform="translate(84,50)"><rect class="number-text" x="0" y="0" width="32" height="25"/><text x="4" y="21">1</text></g><g transform="translate(0,75)"><rect class="string-text" x="0" y="0" width="84" height="25"/><text x="4" y="21">wkt</text></g><g transform="translate(84,75)"><rect class="string-text" x="0" y="0" width="32" height="25"/><text x="4" y="21">wkt</text></g></g><g><text x="58" y="17" text-anchor="middle">resultId1</text></g></g><g transform="translate(23,21)"><g transform="translate(0,0)"><rect class="string-text" x="0" y="0" width="8" height="8"/><text x="4" y="4"> </text></g><g transform="translate(8,0)"><rect class="string-text" x="0" y="0" width="8" height="8"/><text x="4" y="4"> </text></g></g><g><text x="31" y="17" text-anchor="middle">userId1</text></g></g><g transform="translate(22,21)"><g transform="translate(0,0)"><rect class="string-text" x="0" y="0" width="8" height="8"/><text x="4" y="4"> </text></g><g transform="translate(8,0)"><rect class="string-text" x="0" y="0" width="8" height="8"/><text x="4" y="4"> </text></g></g><g><text x="30" y="17" text-anchor="middle">taskId1</text></g></g><g transform="translate(28,21)"><g transform="translate(0,0)"><rect class="string-text" x="0" y="0" width="8" height="8"/><text x="4" y="4"> </text></g><g transform="translate(8,0)"><rect class="string-text" x="0" y="0" width="8" height="8"/><text x="4" y="4"> </text></g></g><g><text x="36" y="17" text-anchor="middle">groupId1</text></g></g><g transform="translate(32,21)"><g transform="translate(0,0)"><rect class="string-text" x="0" y="0" width="8" height="8"/><text x="4" y="4"> </text></g><g transform="translate(8,0)"><rect class="string-text" x="0" y="0" width="8" height="8"/><text x="4" y="4"> </text></g></g><g><text x="40" y="17" text-anchor="middle">projectId1</text></g></g><g transform="translate(20,21)"><g transform="translate(0,0)"><rect class="string-text" x="0" y="0" width="8" height="8"/><text x="4" y="4"> </text></g><g transform="translate(8,0)"><rect class="string-text" x="0" y="0" width="8" height="8"/><text x="4" y="4"> </text></g></g><g><text x="28" y="17" text-anchor="middle">results</text></g></g><g class="vtree-node" transform="translate(274,58)"><path class="vtree-link" d="M22,25C22,64.5 22,64.5 22,104"/><g class="vtree-node" transform="translate(-18,79)"><path class="vtree-link" d="M40,25C40,64.5 40,64.5 40,104"/><g class="vtree-node" transform="translate(4,79)"><path class="vtree-link" d="M36,25C36,94 36,94 36,163"/><g class="vtree-node" transform="translate(-4,79)"><g transform="translate(0,21)"><g transform="translate(0,0)"><rect class="string-text" x="0" y="0" width="47" height="25"/><text x="4" y="21">taskX</text></g><g transform="translate(47,0)"><rect class="number-text" x="0" y="0" width="32" height="25"/><text x="4" y="21">1</text></g><g transform="translate(0,25)"><rect class="string-text" x="0" y="0" width="47" height="25"/><text x="4" y="21">taskY</text></g><g transform="translate(47,25)"><rect class="number-text" x="0" y="0" width="32" height="25"/><text x="4" y="21">2</text></g><g transform="translate(0,50)"><rect class="string-text" x="0" y="0" width="47" height="25"/><text x="4" y="21">taskZ</text></g><g transform="translate(47,50)"><rect class="number-text" x="0" y="0" width="32" height="25"/><text x="4" y="21">3</text></g><g transform="translate(0,75)"><rect class="string-text" x="0" y="0" width="47" height="25"/><text x="4" y="21">url</text></g><g transform="translate(47,75)"><rect class="string-text" x="0" y="0" width="32" height="25"/><text x="4" y="21">url</text></g><g transform="translate(0,100)"><rect class="string-text" x="0" y="0" width="47" height="25"/><text x="4" y="21">wkt</text></g><g transform="translate(47,100)"><rect class="string-text" x="0" y="0" width="32" height="25"/><text x="4" y="21">wkt</text></g></g><g><text x="40" y="17" text-anchor="middle">taskId1</text></g></g><g transform="translate(28,21)"><g transform="translate(0,0)"><rect class="string-text" x="0" y="0" width="8" height="8"/><text x="4" y="4"> </text></g><g transform="translate(8,0)"><rect class="string-text" x="0" y="0" width="8" height="8"/><text x="4" y="4"> </text></g></g><g><text x="36" y="17" text-anchor="middle">groupId1</text></g></g><g transform="translate(32,21)"><g transform="translate(0,0)"><rect class="string-text" x="0" y="0" width="8" height="8"/><text x="4" y="4"> </text></g><g transform="translate(8,0)"><rect class="string-text" x="0" y="0" width="8" height="8"/><text x="4" y="4"> </text></g></g><g><text x="40" y="17" text-anchor="middle">projectId1</text></g></g><g transform="translate(14,21)"><g transform="translate(0,0)"><rect class="string-text" x="0" y="0" width="8" height="8"/><text x="4" y="4"> </text></g><g transform="translate(8,0)"><rect class="string-text" x="0" y="0" width="8" height="8"/><text x="4" y="4"> </text></g></g><g><text x="22" y="17" text-anchor="middle">tasks</text></g></g><g class="vtree-node" transform="translate(398,58)"><path class="vtree-link" d="M23,25C23,81.5 23,81.5 23,138"/><g class="vtree-node" transform="translate(-52,79)"><g transform="translate(0,21)"><g transform="translate(0,0)"><rect class="string-text" x="0" y="0" width="101" height="25"/><text x="4" y="21">contributions</text></g><g transform="translate(101,0)"><rect class="number-text" x="0" y="0" width="49" height="25"/><text x="4" y="21">1</text></g><g transform="translate(0,25)"><rect class="string-text" x="0" y="0" width="101" height="25"/><text x="4" y="21">distance</text></g><g transform="translate(101,25)"><rect class="number-text" x="0" y="0" width="49" height="25"/><text x="4" y="21">1</text></g><g transform="translate(0,50)"><rect class="string-text" x="0" y="0" width="101" height="25"/><text x="4" y="21">username</text></g><g transform="translate(101,50)"><rect class="string-text" x="0" y="0" width="49" height="25"/><text x="4" y="21">name</text></g></g><g><text x="75" y="17" text-anchor="middle">userId1</text></g></g><g transform="translate(15,21)"><g transform="translate(0,0)"><rect class="string-text" x="0" y="0" width="8" height="8"/><text x="4" y="4"> </text></g><g transform="translate(8,0)"><rect class="string-text" x="0" y="0" width="8" height="8"/><text x="4" y="4"> </text></g></g><g><text x="23" y="17" text-anchor="middle">users</text></g></g><g transform="translate(0,0)"><rect class="string-text" x="0" y="0" width="8" height="8"/><text x="4" y="4"> </text></g><g transform="translate(8,0)"><rect class="string-text" x="0" y="0" width="8" height="8"/><text x="4" y="4"> </text></g></g></g></g></svg>
