<svg width="54" height="40" viewBox="0 0 54 40" fill="none" xmlns="http://www.w3.org/2000/svg">
<path d="M35.7503 20C33.5015 20 31.3271 18.9959 29.6253 17.1738C27.9704 15.3964 26.9598 13.0263 26.7815 10.5019C26.5912 7.80906 27.4126 5.33281 29.0937 3.52813C30.7748 1.72344 33.1253 0.75 35.7503 0.75C38.3567 0.75 40.7137 1.74094 42.3893 3.54125C44.0814 5.35906 44.905 7.83094 44.7146 10.5008C44.532 13.0284 43.5225 15.3975 41.8709 17.1727C40.1734 18.9959 38.0001 20 35.7503 20ZM50.1692 39.25H21.3325C20.8688 39.2525 20.4108 39.1486 19.9936 38.9462C19.5765 38.7439 19.2113 38.4486 18.9262 38.083C18.6238 37.6866 18.4149 37.227 18.3153 36.7385C18.2157 36.25 18.2278 35.7453 18.3509 35.2622C19.2718 31.5642 21.5534 28.4973 24.9484 26.3941C27.9617 24.5281 31.7975 23.5 35.7503 23.5C39.7807 23.5 43.5159 24.4844 46.5467 26.3492C49.9493 28.4416 52.2342 31.5259 53.1507 35.2688C53.2723 35.7522 53.2831 36.2569 53.1823 36.7452C53.0816 37.2334 52.8719 37.6926 52.5689 38.0884C52.284 38.4524 51.9197 38.7462 51.5038 38.9476C51.0878 39.1489 50.6313 39.2524 50.1692 39.25ZM15.0784 20.4375C11.2295 20.4375 7.84543 16.8588 7.53152 12.4608C7.37621 10.2077 8.07839 8.12406 9.50027 6.59609C10.9068 5.08344 12.8909 4.25 15.0784 4.25C17.2659 4.25 19.2346 5.08781 20.6489 6.60922C22.0817 8.14922 22.7817 10.2284 22.6176 12.463C22.3037 16.8598 18.9207 20.4375 15.0784 20.4375ZM22.26 23.8773C20.3361 22.9367 17.839 22.4664 15.0795 22.4664C11.8573 22.4664 8.72808 23.3064 6.26715 24.8311C3.47699 26.5625 1.60011 29.0836 0.842145 32.1275C0.731223 32.5653 0.720732 33.0226 0.811456 33.465C0.902181 33.9075 1.09177 34.3237 1.36605 34.6825C1.62631 35.0166 1.95972 35.2866 2.34066 35.4716C2.72159 35.6567 3.13989 35.7519 3.5634 35.75H15.704C15.9089 35.75 16.1073 35.678 16.2646 35.5467C16.4219 35.4154 16.5282 35.233 16.5648 35.0314C16.5768 34.9625 16.5921 34.8936 16.6096 34.8258C17.5371 31.1005 19.7104 27.9527 22.9217 25.658C23.0398 25.5728 23.1348 25.4596 23.1981 25.3284C23.2613 25.1973 23.2909 25.0525 23.2841 24.907C23.2772 24.7616 23.2342 24.6202 23.1589 24.4956C23.0836 24.371 22.9783 24.2671 22.8528 24.1934C22.681 24.0928 22.4842 23.9867 22.26 23.8773Z" fill="#D4E5F7"/>
</svg>
