<svg width="123" height="40" viewBox="0 0 123 40" fill="none" xmlns="http://www.w3.org/2000/svg">
<g clip-path="url(#clip0_480_109)">
<path d="M112.568 0.00013H9.74532C9.37052 0.00013 9.00021 0.00013 8.6264 0.00213C8.31349 0.00413 8.00307 0.00994 7.68715 0.01483C7.00083 0.0227318 6.31613 0.0818063 5.63898 0.19154C4.96279 0.303663 4.30778 0.515046 3.69611 0.81854C3.08518 1.1246 2.52696 1.5223 2.0417 1.9972C1.55389 2.47077 1.14726 3.01815 0.837451 3.61829C0.526786 4.21724 0.311371 4.85907 0.198644 5.52161C0.0848448 6.18332 0.0236087 6.85265 0.0154847 7.52361C0.00599968 7.83021 0.00499803 8.13783 0 8.44447V31.5587C0.00499803 31.8692 0.00599968 32.17 0.0154847 32.4806C0.0236112 33.1516 0.0848473 33.8209 0.198644 34.4825C0.311059 35.1455 0.526488 35.7877 0.837451 36.3868C1.14712 36.985 1.55381 37.5302 2.0417 38.0011C2.52512 38.4781 3.0837 38.8761 3.69611 39.1798C4.30778 39.4841 4.96272 39.6968 5.63898 39.8106C6.31624 39.9195 7.00088 39.9786 7.68715 39.9874C8.00307 39.9942 8.31349 39.9981 8.6264 39.9981C9.00021 40.0001 9.37054 40.0001 9.74532 40.0001H112.568C112.935 40.0001 113.308 40.0001 113.676 39.9981C113.987 39.9981 114.307 39.9942 114.618 39.9874C115.303 39.9791 115.986 39.92 116.662 39.8106C117.341 39.696 117.998 39.4834 118.613 39.1798C119.224 38.8759 119.783 38.478 120.266 38.0011C120.752 37.5284 121.16 36.9836 121.473 36.3868C121.782 35.7872 121.995 35.1451 122.106 34.4825C122.22 33.8208 122.283 33.1516 122.296 32.4806C122.3 32.17 122.3 31.8692 122.3 31.5587C122.308 31.1954 122.308 30.8341 122.308 30.4649V9.53626C122.308 9.17005 122.308 8.80677 122.3 8.44447C122.3 8.13783 122.3 7.83021 122.296 7.52357C122.283 6.85255 122.22 6.18337 122.106 5.52157C121.995 4.85941 121.782 4.21763 121.473 3.61825C120.842 2.41533 119.842 1.43616 118.613 0.81845C117.998 0.515697 117.341 0.30437 116.662 0.19145C115.987 0.0812328 115.303 0.0221378 114.618 0.01469C114.307 0.00981 113.987 0.00395 113.676 0.002C113.308 0 112.935 0 112.568 0V0.00013Z" fill="#A6A6A6"/>
<path d="M8.63143 39.125C8.32002 39.125 8.01613 39.1211 7.70716 39.1143C7.06711 39.1061 6.42855 39.0516 5.79673 38.9512C5.20759 38.8519 4.63686 38.6673 4.10339 38.4033C3.57481 38.1415 3.0927 37.7983 2.67553 37.3867C2.25232 36.98 1.89998 36.5082 1.63247 35.9902C1.36202 35.4688 1.17484 34.9099 1.07748 34.333C0.972327 33.7131 0.915438 33.0863 0.907297 32.458C0.900817 32.2471 0.892334 31.5449 0.892334 31.5449V8.44434C0.892334 8.44434 0.901369 7.75293 0.907349 7.5498C0.915143 6.92248 0.971702 6.29665 1.07654 5.67773C1.17408 5.09925 1.3614 4.53875 1.632 4.01563C1.89853 3.49794 2.24891 3.02586 2.66957 2.61768C3.08975 2.20562 3.57341 1.8606 4.10289 1.59521C4.63514 1.33209 5.20478 1.14873 5.79273 1.05127C6.42663 0.949836 7.06741 0.894996 7.70968 0.88721L8.63193 0.875H113.671L114.604 0.8877C115.241 0.895099 115.876 0.94945 116.504 1.05029C117.097 1.14898 117.673 1.33362 118.211 1.59814C119.272 2.13299 120.135 2.97916 120.68 4.01807C120.946 4.53758 121.13 5.09351 121.227 5.66699C121.333 6.29099 121.392 6.92174 121.404 7.5542C121.407 7.8374 121.407 8.1416 121.407 8.44434C121.415 8.81934 121.415 9.17627 121.415 9.53613V30.4648C121.415 30.8281 121.415 31.1826 121.407 31.54C121.407 31.8652 121.407 32.1631 121.403 32.4697C121.391 33.0909 121.333 33.7104 121.229 34.3232C121.133 34.9043 120.947 35.4675 120.677 35.9932C120.407 36.5056 120.057 36.9733 119.639 37.3789C119.221 37.7927 118.738 38.1379 118.208 38.4014C117.672 38.6674 117.097 38.8527 116.504 38.9512C115.872 39.0522 115.233 39.1067 114.593 39.1143C114.294 39.1211 113.98 39.125 113.676 39.125L112.568 39.127L8.63143 39.125Z" fill="black"/>
<path d="M25.3161 20.3013C25.3271 19.4666 25.5537 18.6483 25.9748 17.9223C26.396 17.1964 26.9979 16.5864 27.7247 16.1492C27.263 15.5041 26.6539 14.9731 25.9458 14.5986C25.2376 14.224 24.45 14.0162 23.6454 13.9916C21.9291 13.8153 20.2651 14.9964 19.3905 14.9964C18.499 14.9964 17.1524 14.0091 15.7023 14.0383C14.7644 14.0679 13.8503 14.3348 13.0491 14.8128C12.2479 15.2909 11.5869 15.9638 11.1306 16.7661C9.15385 20.1145 10.6283 25.0356 12.5218 27.7422C13.4692 29.0676 14.5764 30.548 16.0252 30.4955C17.4429 30.438 17.9724 29.611 19.6837 29.611C21.3791 29.611 21.8759 30.4955 23.354 30.4621C24.8753 30.438 25.8337 29.1309 26.7479 27.793C27.4286 26.8486 27.9524 25.8049 28.2998 24.7005C27.416 24.3347 26.6618 23.7226 26.1312 22.9403C25.6006 22.158 25.3171 21.2402 25.3161 20.3013Z" fill="white"/>
<path d="M22.5241 12.2113C23.3535 11.2371 23.7622 9.98494 23.6632 8.7207C22.396 8.85092 21.2255 9.44348 20.3848 10.3803C19.9738 10.838 19.659 11.3704 19.4584 11.9472C19.2578 12.524 19.1754 13.1337 19.2158 13.7417C19.8497 13.7481 20.4767 13.6137 21.0498 13.3486C21.6228 13.0835 22.1269 12.6947 22.5241 12.2113Z" fill="white"/>
<path d="M43.2369 27.1397H38.3989L37.2371 30.4961H35.1879L39.7704 18.0781H41.8994L46.4818 30.4961H44.3977L43.2369 27.1397ZM38.9 25.5908H42.7349L40.8444 20.1436H40.7915L38.9 25.5908Z" fill="white"/>
<path d="M56.3784 25.9695C56.3784 28.7829 54.8393 30.5905 52.5166 30.5905C51.9282 30.6207 51.3431 30.4881 50.8281 30.2079C50.3132 29.9278 49.8893 29.5114 49.605 29.0065H49.5611V33.4909H47.6616V21.4421H49.5002V22.948H49.5352C49.8325 22.4455 50.2636 22.0313 50.7824 21.7495C51.3013 21.4676 51.8885 21.3287 52.4817 21.3474C54.8302 21.3474 56.3784 23.1638 56.3784 25.9695ZM54.426 25.9695C54.426 24.1365 53.4578 22.9314 51.9806 22.9314C50.5293 22.9314 49.5531 24.1618 49.5531 25.9695C49.5531 27.7937 50.5293 29.0154 51.9806 29.0154C53.4578 29.0154 54.426 27.8191 54.426 25.9695Z" fill="white"/>
<path d="M66.5634 25.9694C66.5634 28.7829 65.0243 30.5905 62.7016 30.5905C62.1132 30.6206 61.5281 30.488 61.0131 30.2079C60.4982 29.9278 60.0743 29.5114 59.79 29.0065H59.7461V33.4909H57.8466V21.4421H59.6852V22.948H59.7201C60.0175 22.4455 60.4485 22.0313 60.9674 21.7495C61.4862 21.4676 62.0735 21.3287 62.6666 21.3474C65.0153 21.3474 66.5634 23.1638 66.5634 25.9694ZM64.611 25.9694C64.611 24.1364 63.6428 22.9314 62.1656 22.9314C60.7143 22.9314 59.7381 24.1618 59.7381 25.9694C59.7381 27.7937 60.7143 29.0153 62.1656 29.0153C63.6428 29.0153 64.611 27.8191 64.611 25.9694H64.611Z" fill="white"/>
<path d="M73.2948 27.0362C73.4355 28.2676 74.6583 29.0762 76.3291 29.0762C77.9301 29.0762 79.082 28.2676 79.082 27.1572C79.082 26.1934 78.3873 25.6162 76.7424 25.2207L75.0974 24.833C72.7668 24.2822 71.6848 23.2158 71.6848 21.4854C71.6848 19.3428 73.5933 17.8711 76.3032 17.8711C78.9852 17.8711 80.8237 19.3428 80.8856 21.4854H78.9682C78.8534 20.2461 77.8064 19.4981 76.2762 19.4981C74.7461 19.4981 73.699 20.2549 73.699 21.3565C73.699 22.2344 74.3678 22.751 76.0037 23.1465L77.4021 23.4824C80.0062 24.0849 81.0882 25.1084 81.0882 26.9248C81.0882 29.248 79.1967 30.7031 76.1884 30.7031C73.3736 30.7031 71.4732 29.2822 71.3504 27.0361L73.2948 27.0362Z" fill="white"/>
<path d="M85.1876 19.2998V21.4424H86.9473V22.9141H85.1876V27.9053C85.1876 28.6807 85.5399 29.042 86.3135 29.042C86.5224 29.0384 86.7309 29.0241 86.9383 28.999V30.4619C86.5905 30.5255 86.237 30.5543 85.8833 30.5478C84.0098 30.5478 83.2791 29.8593 83.2791 28.1035V22.9141H81.9337V21.4424H83.2791V19.2998H85.1876Z" fill="white"/>
<path d="M87.9664 25.9697C87.9664 23.1211 89.6812 21.3311 92.3552 21.3311C95.0382 21.3311 96.745 23.1211 96.745 25.9697C96.745 28.8262 95.0472 30.6084 92.3552 30.6084C89.6642 30.6084 87.9664 28.8262 87.9664 25.9697ZM94.8097 25.9697C94.8097 24.0156 93.8944 22.8623 92.3552 22.8623C90.8161 22.8623 89.9018 24.0244 89.9018 25.9697C89.9018 27.9316 90.8161 29.0762 92.3552 29.0762C93.8944 29.0762 94.8096 27.9316 94.8096 25.9697H94.8097Z" fill="white"/>
<path d="M98.3111 21.442H100.123V22.983H100.167C100.289 22.5017 100.577 22.0764 100.983 21.7785C101.388 21.4806 101.886 21.3284 102.393 21.3473C102.611 21.3465 102.83 21.3698 103.043 21.4166V23.1549C102.767 23.0723 102.479 23.0343 102.19 23.0426C101.914 23.0316 101.639 23.0792 101.383 23.1821C101.128 23.285 100.899 23.4408 100.71 23.6386C100.522 23.8365 100.38 24.0719 100.294 24.3286C100.208 24.5852 100.179 24.8571 100.211 25.1256V30.4957H98.3111L98.3111 21.442Z" fill="white"/>
<path d="M111.801 27.8369C111.545 29.4805 109.909 30.6084 107.816 30.6084C105.124 30.6084 103.453 28.8437 103.453 26.0127C103.453 23.1729 105.133 21.3311 107.736 21.3311C110.297 21.3311 111.907 23.0518 111.907 25.7969V26.4336H105.371V26.5459C105.341 26.8791 105.383 27.2148 105.496 27.5306C105.609 27.8464 105.789 28.1352 106.024 28.3778C106.26 28.6203 106.545 28.8111 106.862 28.9374C107.178 29.0637 107.519 29.1226 107.86 29.1103C108.309 29.1515 108.76 29.0498 109.145 28.8203C109.53 28.5909 109.829 28.246 109.997 27.8369L111.801 27.8369ZM105.38 25.1348H110.006C110.023 24.8352 109.977 24.5354 109.87 24.2541C109.763 23.9729 109.598 23.7164 109.385 23.5006C109.171 23.2849 108.915 23.1145 108.631 23.0003C108.348 22.8861 108.043 22.8305 107.736 22.8369C107.427 22.8351 107.121 22.8933 106.834 23.008C106.548 23.1227 106.288 23.2918 106.069 23.5054C105.85 23.7191 105.676 23.973 105.558 24.2527C105.44 24.5323 105.379 24.8321 105.38 25.1348V25.1348Z" fill="white"/>
<path d="M38.6618 8.73138C39.06 8.70342 39.4596 8.76228 39.8318 8.90371C40.2039 9.04515 40.5394 9.26563 40.8139 9.54925C41.0884 9.83288 41.2952 10.1726 41.4193 10.5438C41.5433 10.9151 41.5817 11.3087 41.5314 11.6962C41.5314 13.6025 40.4784 14.6982 38.6618 14.6982H36.4589V8.73138H38.6618ZM37.4061 13.8544H38.556C38.8406 13.871 39.1253 13.8254 39.3896 13.7208C39.6538 13.6161 39.8909 13.4552 40.0836 13.2496C40.2762 13.0441 40.4196 12.7991 40.5033 12.5324C40.5869 12.2658 40.6088 11.9843 40.5672 11.7084C40.6058 11.4335 40.5817 11.1538 40.4968 10.8891C40.4118 10.6244 40.2681 10.3814 40.0758 10.1775C39.8836 9.97358 39.6477 9.81378 39.3849 9.70954C39.1222 9.6053 38.8391 9.55922 38.556 9.57459H37.4061V13.8544Z" fill="white"/>
<path d="M42.6015 12.4448C42.5725 12.1489 42.6071 11.8503 42.703 11.5682C42.7989 11.2862 42.9541 11.0268 43.1584 10.8068C43.3628 10.5868 43.6119 10.4111 43.8897 10.2908C44.1676 10.1705 44.4681 10.1084 44.7719 10.1084C45.0757 10.1084 45.3762 10.1705 45.6541 10.2908C45.9319 10.4111 46.181 10.5868 46.3854 10.8068C46.5897 11.0268 46.7449 11.2862 46.8408 11.5682C46.9367 11.8503 46.9713 12.1489 46.9423 12.4448C46.9718 12.741 46.9376 13.04 46.842 13.3225C46.7463 13.605 46.5913 13.8648 46.3869 14.0853C46.1825 14.3057 45.9332 14.4818 45.6551 14.6023C45.3769 14.7229 45.0761 14.7851 44.7719 14.7851C44.4677 14.7851 44.1669 14.7229 43.8887 14.6023C43.6106 14.4818 43.3613 14.3057 43.1569 14.0853C42.9525 13.8648 42.7975 13.605 42.7018 13.3225C42.6062 13.04 42.572 12.741 42.6015 12.4448ZM46.0081 12.4448C46.0081 11.4687 45.5599 10.8979 44.7734 10.8979C43.9839 10.8979 43.5397 11.4687 43.5397 12.4448C43.5397 13.4287 43.9839 13.9951 44.7734 13.9951C45.5599 13.9951 46.0081 13.4248 46.0081 12.4448H46.0081Z" fill="white"/>
<path d="M52.7126 14.6982H51.7704L50.8191 11.3818H50.7473L49.8 14.6982H48.8668L47.5981 10.1953H48.5194L49.3439 13.6313H49.4118L50.358 10.1953H51.2294L52.1756 13.6313H52.2475L53.0679 10.1953H53.9762L52.7126 14.6982Z" fill="white"/>
<path d="M55.0432 10.1949H55.9176V10.9102H55.9855C56.1006 10.6533 56.2948 10.4379 56.541 10.2941C56.7872 10.1503 57.0731 10.0852 57.3589 10.1079C57.5828 10.0915 57.8077 10.1245 58.0168 10.2046C58.2259 10.2847 58.414 10.4098 58.5669 10.5707C58.7199 10.7315 58.834 10.924 58.9006 11.1338C58.9673 11.3436 58.9848 11.5654 58.9519 11.7827V14.6977H58.0436V12.0059C58.0436 11.2823 57.7222 10.9224 57.0505 10.9224C56.8984 10.9155 56.7467 10.9408 56.6055 10.9966C56.4644 11.0525 56.3373 11.1375 56.233 11.2459C56.1286 11.3543 56.0494 11.4834 56.0008 11.6246C55.9522 11.7657 55.9354 11.9154 55.9515 12.0635V14.6978H55.0432L55.0432 10.1949Z" fill="white"/>
<path d="M60.3992 8.4375H61.3075V14.6982H60.3992V8.4375Z" fill="white"/>
<path d="M62.5702 12.4449C62.5413 12.1489 62.5759 11.8503 62.6718 11.5683C62.7678 11.2862 62.9229 11.0268 63.1273 10.8068C63.3317 10.5869 63.5808 10.4111 63.8586 10.2908C64.1365 10.1705 64.437 10.1084 64.7409 10.1084C65.0447 10.1084 65.3452 10.1705 65.6231 10.2908C65.901 10.4111 66.1501 10.5869 66.3545 10.8068C66.5589 11.0268 66.714 11.2862 66.8099 11.5683C66.9059 11.8503 66.9405 12.1489 66.9116 12.4449C66.941 12.7411 66.9068 13.0401 66.8111 13.3226C66.7154 13.6051 66.5604 13.8649 66.356 14.0853C66.1515 14.3058 65.9022 14.4819 65.6241 14.6024C65.3459 14.7229 65.0451 14.7852 64.7409 14.7852C64.4367 14.7852 64.1358 14.7229 63.8577 14.6024C63.5795 14.4819 63.3302 14.3058 63.1258 14.0853C62.9214 13.8649 62.7663 13.6051 62.6706 13.3226C62.575 13.0401 62.5407 12.7411 62.5702 12.4449ZM65.9768 12.4449C65.9768 11.4688 65.5286 10.898 64.7421 10.898C63.9526 10.898 63.5085 11.4688 63.5085 12.4449C63.5085 13.4288 63.9526 13.9952 64.7421 13.9952C65.5287 13.9952 65.9768 13.4248 65.9768 12.4449H65.9768Z" fill="white"/>
<path d="M67.8678 13.4248C67.8678 12.6142 68.4846 12.147 69.5796 12.0806L70.8263 12.0102V11.6216C70.8263 11.146 70.5049 10.8774 69.884 10.8774C69.377 10.8774 69.0256 11.0596 68.9248 11.3779H68.0455C68.1383 10.6045 68.8819 10.1084 69.926 10.1084C71.0798 10.1084 71.7306 10.6704 71.7306 11.6216V14.6982H70.8562V14.0654H70.7843C70.6385 14.2924 70.4336 14.4775 70.1908 14.6017C69.9479 14.7259 69.6757 14.7848 69.4019 14.7724C69.2087 14.7921 69.0134 14.7719 68.8287 14.7132C68.6439 14.6545 68.4738 14.5586 68.3293 14.4316C68.1847 14.3047 68.069 14.1495 67.9895 13.9761C67.91 13.8026 67.8686 13.6148 67.8678 13.4248ZM70.8263 13.04V12.6636L69.7024 12.7339C69.0686 12.7754 68.7811 12.9863 68.7811 13.3833C68.7811 13.7886 69.1404 14.0244 69.6345 14.0244C69.7793 14.0387 69.9255 14.0244 70.0646 13.9823C70.2036 13.9403 70.3325 13.8712 70.4437 13.7794C70.5549 13.6876 70.646 13.5748 70.7118 13.4477C70.7775 13.3207 70.8164 13.1821 70.8263 13.04Z" fill="white"/>
<path d="M72.9243 12.4448C72.9243 11.022 73.6719 10.1206 74.8348 10.1206C75.1224 10.1077 75.4078 10.1751 75.6578 10.315C75.9077 10.4548 76.1118 10.6615 76.2461 10.9106H76.314V8.4375H77.2223V14.6982H76.3519V13.9868H76.2801C76.1353 14.2343 75.9241 14.4383 75.6694 14.5768C75.4146 14.7153 75.126 14.783 74.8348 14.7725C73.6639 14.7725 72.9243 13.8711 72.9243 12.4448ZM73.8626 12.4448C73.8626 13.3999 74.3227 13.9746 75.0923 13.9746C75.8579 13.9746 76.331 13.3916 76.331 12.4488C76.331 11.5103 75.8529 10.919 75.0923 10.919C74.3277 10.919 73.8626 11.4976 73.8626 12.4448H73.8626Z" fill="white"/>
<path d="M80.9803 12.4448C80.9514 12.1489 80.986 11.8503 81.0819 11.5682C81.1778 11.2862 81.3329 11.0268 81.5373 10.8068C81.7416 10.5868 81.9907 10.4111 82.2686 10.2908C82.5464 10.1705 82.8469 10.1084 83.1507 10.1084C83.4546 10.1084 83.7551 10.1705 84.0329 10.2908C84.3108 10.4111 84.5599 10.5868 84.7642 10.8068C84.9686 11.0268 85.1237 11.2862 85.2196 11.5682C85.3155 11.8503 85.3501 12.1489 85.3212 12.4448C85.3507 12.741 85.3165 13.04 85.2208 13.3225C85.1252 13.605 84.9702 13.8648 84.7657 14.0853C84.5613 14.3057 84.312 14.4818 84.0339 14.6023C83.7558 14.7229 83.4549 14.7851 83.1507 14.7851C82.8466 14.7851 82.5457 14.7229 82.2676 14.6023C81.9894 14.4818 81.7402 14.3057 81.5357 14.0853C81.3313 13.8648 81.1763 13.605 81.0807 13.3225C80.985 13.04 80.9508 12.741 80.9803 12.4448ZM84.3869 12.4448C84.3869 11.4687 83.9388 10.8979 83.1522 10.8979C82.3627 10.8979 81.9186 11.4687 81.9186 12.4448C81.9186 13.4287 82.3628 13.9951 83.1522 13.9951C83.9388 13.9951 84.3869 13.4248 84.3869 12.4448Z" fill="white"/>
<path d="M86.5399 10.1949H87.4143V10.9102H87.4822C87.5973 10.6533 87.7915 10.4379 88.0377 10.2941C88.2839 10.1503 88.5698 10.0852 88.8556 10.1079C89.0795 10.0915 89.3044 10.1245 89.5135 10.2046C89.7226 10.2847 89.9107 10.4098 90.0636 10.5707C90.2166 10.7315 90.3307 10.924 90.3973 11.1338C90.464 11.3436 90.4815 11.5654 90.4486 11.7827V14.6977H89.5403V12.0059C89.5403 11.2823 89.2189 10.9224 88.5472 10.9224C88.3951 10.9155 88.2433 10.9408 88.1022 10.9966C87.9611 11.0525 87.834 11.1375 87.7297 11.2459C87.6253 11.3543 87.5461 11.4834 87.4975 11.6246C87.4489 11.7657 87.4321 11.9154 87.4482 12.0635V14.6978H86.5399V10.1949Z" fill="white"/>
<path d="M95.581 9.07422V10.2158H96.5782V10.9644H95.581V13.2798C95.581 13.7515 95.7797 13.958 96.2318 13.958C96.3476 13.9576 96.4632 13.9508 96.5782 13.9375V14.6777C96.4151 14.7063 96.2498 14.7215 96.0841 14.7231C95.074 14.7231 94.6717 14.3755 94.6717 13.5073V10.9643H93.9411V10.2158H94.6717V9.07422H95.581Z" fill="white"/>
<path d="M97.8188 8.4375H98.7192V10.9189H98.791C98.9118 10.6596 99.1113 10.443 99.3624 10.2987C99.6136 10.1543 99.9041 10.0893 100.194 10.1123C100.417 10.1004 100.64 10.1368 100.847 10.2189C101.053 10.3009 101.239 10.4266 101.39 10.5869C101.542 10.7473 101.655 10.9383 101.722 11.1465C101.79 11.3546 101.809 11.5747 101.779 11.791V14.6982H100.87V12.0102C100.87 11.291 100.528 10.9267 99.886 10.9267C99.7299 10.9142 99.5729 10.9352 99.4259 10.9883C99.279 11.0413 99.1457 11.1252 99.0353 11.2339C98.9249 11.3426 98.8401 11.4737 98.7869 11.6178C98.7337 11.7619 98.7133 11.9157 98.7272 12.0683V14.6982H97.8189L97.8188 8.4375Z" fill="white"/>
<path d="M107.076 13.4825C106.952 13.894 106.685 14.25 106.32 14.4882C105.956 14.7263 105.517 14.8315 105.081 14.7852C104.778 14.7931 104.477 14.7362 104.198 14.6187C103.92 14.5012 103.671 14.3258 103.468 14.1046C103.266 13.8835 103.115 13.6219 103.027 13.3381C102.938 13.0543 102.914 12.755 102.955 12.461C102.915 12.1661 102.94 11.8662 103.028 11.5815C103.116 11.2969 103.266 11.0341 103.468 10.811C103.669 10.5879 103.917 10.4098 104.194 10.2886C104.472 10.1674 104.773 10.1059 105.077 10.1085C106.358 10.1085 107.13 10.9645 107.13 12.3785V12.6886H103.88V12.7384C103.866 12.9036 103.888 13.0699 103.943 13.2267C103.998 13.3834 104.086 13.5271 104.202 13.6486C104.317 13.7701 104.457 13.8666 104.613 13.932C104.769 13.9974 104.937 14.0302 105.106 14.0284C105.323 14.0539 105.544 14.0156 105.739 13.9184C105.934 13.8212 106.095 13.6694 106.201 13.4825L107.076 13.4825ZM103.88 12.0313H106.205C106.217 11.8802 106.196 11.7284 106.144 11.5857C106.091 11.443 106.009 11.3125 105.903 11.2026C105.796 11.0928 105.667 11.006 105.524 10.9478C105.381 10.8896 105.227 10.8614 105.072 10.8648C104.915 10.8629 104.759 10.8918 104.614 10.9497C104.468 11.0076 104.336 11.0935 104.225 11.2022C104.114 11.3109 104.026 11.4403 103.967 11.5827C103.908 11.7251 103.878 11.8776 103.88 12.0313H103.88Z" fill="white"/>
</g>
<defs>
<clipPath id="clip0_480_109">
<rect width="122.308" height="40" fill="white"/>
</clipPath>
</defs>
</svg>