<svg width="50" height="58" viewBox="0 0 50 58" fill="none" xmlns="http://www.w3.org/2000/svg">
<path d="M44.8627 0.39384C44.2939 -0.132584 43.3919 -0.131278 42.8243 0.397763C42.2575 0.926815 42.2302 1.79263 42.763 2.35312L44.7161 4.30312H37.0008C36.1915 4.30312 35.5354 4.93287 35.5354 5.70976C35.5354 6.48599 36.1915 7.11574 37.0008 7.11574H44.7264L42.7733 9.06574H42.7726C42.2398 9.62684 42.2678 10.492 42.8346 11.0211C43.4014 11.5502 44.3034 11.5521 44.8723 11.025L49.2577 6.69394C49.8102 6.14855 49.8102 5.28011 49.2577 4.73473L44.8627 0.39384Z" fill="#D4E5F7"/>
<path d="M32.6455 23.0158C32.2811 22.1931 31.6706 21.4921 30.8926 21.0016C30.1139 20.5112 29.201 20.2529 28.2697 20.2594L32.3621 10.5379C32.9392 9.18419 32.7981 7.64667 31.984 6.41085C31.1699 5.17489 29.7828 4.39405 28.2615 4.31436C26.7409 4.23458 25.2734 4.8663 24.3238 6.0094C23.2365 4.8663 21.613 4.33986 20.0256 4.61584C18.4389 4.8918 17.1111 5.93224 16.511 7.36891L9.97691 22.8472L9.90879 22.5006L9.90811 22.5C9.91151 22.447 9.91151 22.394 9.90811 22.3411C9.5232 21.1881 8.66411 20.236 7.52975 19.705C6.39612 19.174 5.08598 19.1106 3.90195 19.5284C2.80716 19.9045 1.89839 20.6611 1.35599 21.6485C0.813696 22.636 0.676769 23.783 0.971757 24.8626L4.56607 43.0502L2.04609 49.041C1.88599 49.3915 1.8819 49.7904 2.03451 50.1442C2.1878 50.498 2.48482 50.7765 2.85679 50.9158L20.817 57.8816C21.1829 58.0353 21.5977 58.0392 21.9663 57.8921C22.3349 57.7456 22.6258 57.4605 22.7702 57.1034L25.2801 51.1408L30.6322 47.7376C30.8877 47.5807 31.0852 47.3512 31.199 47.0811L37.3911 32.3718C37.8605 31.2582 37.8496 30.011 37.3604 28.9046C36.8713 27.7988 35.9441 26.9251 34.7832 26.4751L34.6272 26.4097C34.0311 26.1815 33.3935 26.073 32.7517 26.0906C33.095 25.0855 33.0576 23.9966 32.6447 23.0158L32.6455 23.0158ZM33.5339 28.9876L33.6899 29.053H33.6906C34.6001 29.412 35.0368 30.4093 34.6669 31.2843L28.6607 45.6096L23.2502 48.9284H23.2495C22.9947 49.0853 22.7971 49.3149 22.6833 49.5843L20.5441 54.6563L5.30826 48.7499L7.43722 43.6779V43.6785C7.54213 43.4287 7.56938 43.1547 7.51556 42.8905L3.84347 24.2343V24.1126V24.112C3.59958 23.2867 4.05943 22.4208 4.89808 22.1246C5.76942 21.8127 6.73962 22.2306 7.07605 23.0624L8.05299 28.0312C8.17698 28.6406 8.70361 29.0997 9.34741 29.1599C9.99188 29.2207 10.6009 28.8682 10.8462 28.2934L19.2359 8.37151H19.2353C19.6134 7.49717 20.6557 7.07864 21.57 7.43439C22.4795 7.7934 22.9162 8.79003 22.5463 9.66564L21.3745 12.4783L15.8657 25.537C15.6048 26.2472 15.9727 27.028 16.7003 27.3099C17.4272 27.5911 18.2563 27.2726 18.5813 26.5873L25.242 10.7526L26.3259 8.18382C26.6958 7.30361 27.7381 6.87788 28.655 7.23232C29.572 7.58742 30.0162 8.58797 29.647 9.4681L21.9016 27.8632C21.6462 28.5041 21.9105 29.2293 22.527 29.5772C23.1443 29.925 23.9325 29.7949 24.3923 29.2692C24.4809 29.1645 24.5531 29.0475 24.6069 28.9226L26.6289 24.1226C26.8081 23.7008 27.1556 23.3646 27.5936 23.1887C28.031 23.0128 28.5242 23.0115 28.963 23.1848C29.8725 23.5438 30.3092 24.5411 29.9399 25.4161L27.0881 32.1851C26.9402 32.533 26.9423 32.9228 27.0949 33.2694C27.2468 33.616 27.5356 33.89 27.8981 34.0319C28.6536 34.3268 29.5147 33.9783 29.8226 33.2537L30.4474 31.8006V31.7444L31.209 29.9258C31.583 29.0521 32.622 28.6336 33.5335 28.988L33.5339 28.9876Z" fill="#D4E5F7"/>
</svg>
