<svg width="58" height="58" viewBox="0 0 58 58" fill="none" xmlns="http://www.w3.org/2000/svg">
<path d="M16.4948 52.5625H41.505C43.748 52.5625 45.5322 50.7171 45.2909 48.5909C43.7333 34.8906 34.4374 35.1172 34.4374 29C34.4374 22.8828 43.8522 23.2227 45.2898 9.40914C45.5163 7.28172 43.748 5.4375 41.505 5.4375H16.4948C14.2518 5.4375 12.4881 7.28172 12.7101 9.40914C14.1476 23.2227 23.5624 22.7695 23.5624 29C23.5624 35.2305 14.2666 34.8906 12.7101 48.5909C12.4677 50.7171 14.2518 52.5625 16.4948 52.5625Z" stroke="#D4E5F7" stroke-width="3.625" stroke-linecap="round" stroke-linejoin="round"/>
<path d="M38.8894 48.9375H19.1592C17.392 48.9375 16.8936 46.8984 18.1329 45.6342C21.1325 42.5938 27.1874 40.4165 27.1874 36.9297V25.375C27.1874 23.1264 22.8827 21.4102 20.2195 17.7625C19.78 17.161 19.8241 16.3125 20.9411 16.3125H37.1097C38.0624 16.3125 38.2686 17.1542 37.8347 17.7568C35.21 21.4102 30.8124 23.115 30.8124 25.375V36.9297C30.8124 40.3882 37.1233 42.2539 39.9202 45.6376C41.0474 47.0015 40.6532 48.9375 38.8894 48.9375Z" fill="#D4E5F7"/>
</svg>
