<svg width="36" height="38" viewBox="0 0 36 38" fill="none" xmlns="http://www.w3.org/2000/svg">
<path d="M24.2869 3.29758C22.6906 1.5741 20.4609 0.625 18 0.625C15.5259 0.625 13.289 1.56836 11.7 3.28117C10.0938 5.01285 9.31126 7.36633 9.49501 9.90766C9.85923 14.9214 13.6745 19 18 19C22.3255 19 26.1342 14.9222 26.5042 9.9093C26.6904 7.39094 25.9029 5.04238 24.2869 3.29758ZM32.4375 37.375H3.56251C3.18456 37.3799 2.81027 37.3005 2.46687 37.1426C2.12347 36.9846 1.8196 36.7521 1.57736 36.462C1.04415 35.8246 0.82923 34.9543 0.988371 34.0741C1.68071 30.2334 3.84142 27.0071 7.23751 24.7422C10.2546 22.7316 14.0765 21.625 18 21.625C21.9236 21.625 25.7454 22.7324 28.7625 24.7422C32.1586 27.0063 34.3193 30.2325 35.0117 34.0732C35.1708 34.9534 34.9559 35.8238 34.4227 36.4612C34.1805 36.7515 33.8767 36.9841 33.5333 37.1422C33.1899 37.3003 32.8155 37.3798 32.4375 37.375Z" fill="#D4E5F7"/>
</svg>
