<?xml version="1.0" encoding="UTF-8" standalone="no"?>
<svg width="396px" height="115px" viewBox="0 0 396 115" version="1.1" xmlns="http://www.w3.org/2000/svg" xmlns:xlink="http://www.w3.org/1999/xlink">
    <!-- Generator: Sketch 3.7.2 (28276) - http://www.bohemiancoding.com/sketch -->
    <title>mapswipe-logo</title>
    <desc>Created with Sketch.</desc>
    <defs>
        <radialGradient cx="-372.998031%" cy="-46.4635421%" fx="-372.998031%" fy="-46.4635421%" r="942.523396%" id="radialGradient-1">
            <stop stop-color="#D18E38" offset="0%"></stop>
            <stop stop-color="#BD4927" offset="100%"></stop>
        </radialGradient>
        <radialGradient cx="330.492579%" cy="-9.18784186%" fx="330.492579%" fy="-9.18784186%" r="495.146298%" id="radialGradient-2">
            <stop stop-color="#D53924" offset="0%"></stop>
            <stop stop-color="#C30011" offset="100%"></stop>
        </radialGradient>
        <radialGradient cx="54.0413236%" cy="43.9228664%" fx="54.0413236%" fy="43.9228664%" r="94.3108332%" id="radialGradient-3">
            <stop stop-color="#6A9DB6" offset="0%"></stop>
            <stop stop-color="#2E55AF" offset="100%"></stop>
        </radialGradient>
        <radialGradient cx="109.484869%" cy="45.2332557%" fx="109.484869%" fy="45.2332557%" r="552.479184%" id="radialGradient-4">
            <stop stop-color="#9CAD4C" offset="0%"></stop>
            <stop stop-color="#73633D" offset="100%"></stop>
        </radialGradient>
        <radialGradient cx="372.793498%" cy="98.4206312%" fx="372.793498%" fy="98.4206312%" r="665.144677%" id="radialGradient-5">
            <stop stop-color="#71BEE6" offset="0%"></stop>
            <stop stop-color="#3871E4" offset="100%"></stop>
        </radialGradient>
        <radialGradient cx="72.4239612%" cy="-1.23990137%" fx="72.4239612%" fy="-1.23990137%" r="103.538858%" id="radialGradient-6">
            <stop stop-color="#FF3924" offset="0%"></stop>
            <stop stop-color="#FF0011" offset="100%"></stop>
        </radialGradient>
        <radialGradient cx="48.9015095%" cy="-34.305878%" fx="48.9015095%" fy="-34.305878%" r="80.5777601%" id="radialGradient-7">
            <stop stop-color="#FDF240" offset="0%"></stop>
            <stop stop-color="#FDDB3C" offset="24.07%"></stop>
            <stop stop-color="#FCAF33" offset="74.44%"></stop>
            <stop stop-color="#FC9E30" offset="100%"></stop>
        </radialGradient>
        <linearGradient x1="30.2943509%" y1="62.0673766%" x2="156.803469%" y2="13.2197641%" id="linearGradient-8">
            <stop stop-color="#B2D25A" offset="0%"></stop>
            <stop stop-color="#ACC457" offset="24.55%"></stop>
            <stop stop-color="#9D9E51" offset="71.16%"></stop>
            <stop stop-color="#93834C" offset="100%"></stop>
        </linearGradient>
        <linearGradient x1="-11.2893033%" y1="17.438204%" x2="170.549306%" y2="107.332397%" id="linearGradient-9">
            <stop stop-color="#F9AB3E" offset="0%"></stop>
            <stop stop-color="#F7612D" offset="100%"></stop>
        </linearGradient>
        <radialGradient cx="78.032632%" cy="62.6914712%" fx="78.032632%" fy="62.6914712%" r="260.519902%" id="radialGradient-10">
            <stop stop-color="#EDF7FB" offset="0%"></stop>
            <stop stop-color="#EDF2FB" offset="19.04%"></stop>
            <stop stop-color="#ECE2FB" offset="43.06%"></stop>
            <stop stop-color="#EAC8FB" offset="69.76%"></stop>
            <stop stop-color="#E7A4FB" offset="98.22%"></stop>
            <stop stop-color="#E7A2FB" offset="100%"></stop>
        </radialGradient>
    </defs>
    <g id="Page-1" stroke="none" stroke-width="1" fill="none" fill-rule="evenodd">
        <g id="mapswipe-logo">
            <path d="M145.573758,35.1991517 L156.610127,66.2491517 L167.587477,35.1991517 L179.214026,35.1991517 L179.214026,78.0105153 L170.331815,78.0105153 L170.331815,66.3079585 L171.217085,46.1078165 L159.620045,78.0105153 L153.54119,78.0105153 L141.973659,46.1372199 L142.858929,66.3079585 L142.858929,78.0105153 L134.006227,78.0105153 L134.006227,35.1991517 L145.573758,35.1991517 Z M203.417969,78.0105153 C203.024514,77.2460229 202.739263,76.2953221 202.562208,75.1583846 C200.496567,77.451862 197.811275,78.5985835 194.506249,78.5985835 C191.378279,78.5985835 188.78643,77.696888 186.730626,75.8934699 C184.674822,74.0900518 183.646935,71.8162109 183.646935,69.071879 C183.646935,65.7002712 184.901055,63.1127971 187.409333,61.309379 C189.917611,59.5059608 193.542265,58.5944643 198.283402,58.5748619 L202.2081,58.5748619 L202.2081,56.7518505 C202.2081,55.2816727 201.829405,54.1055481 201.072003,53.2234415 C200.314602,52.3413348 199.119499,51.900288 197.486659,51.900288 C196.050547,51.900288 194.924298,52.2433244 194.107878,52.9294074 C193.291458,53.6154903 192.883254,54.55639 192.883254,55.7521346 L184.355151,55.7521346 C184.355151,53.9095118 184.925653,52.2041311 186.066673,50.6359415 C187.207694,49.0677518 188.820837,47.8377215 190.906151,46.9458136 C192.991464,46.0539057 195.332489,45.6079585 197.929294,45.6079585 C201.863848,45.6079585 204.986853,46.5929629 207.298404,48.5630011 C209.609954,50.5330394 210.765712,53.3018327 210.765712,56.8694642 L210.765712,70.659663 C210.785385,73.6784281 211.208343,75.9620701 212.0346,77.5106574 L212.0346,78.0105153 L203.417969,78.0105153 Z M196.365317,72.1004301 C197.624374,72.1004301 198.78505,71.8211005 199.84738,71.2624329 C200.909709,70.7037654 201.696608,69.9539859 202.2081,69.0130721 L202.2081,63.544038 L199.021127,63.544038 C194.752136,63.544038 192.479966,65.0141938 192.204547,67.9545494 L192.175038,68.4544074 C192.175038,69.5129354 192.548815,70.3852278 193.29638,71.0713108 C194.043945,71.7573937 195.066914,72.1004301 196.365317,72.1004301 L196.365317,72.1004301 Z M244.589592,62.3973051 C244.589592,67.2978978 243.473179,71.2232136 241.24032,74.1733704 C239.00746,77.1235272 235.992654,78.5985835 232.195809,78.5985835 C228.969475,78.5985835 226.362872,77.4812651 224.375922,75.2465949 L224.375922,90.2423335 L215.847819,90.2423335 L215.847819,46.1960267 L223.756233,46.1960267 L224.051323,49.312788 C226.116964,46.8428893 228.812093,45.6079585 232.136791,45.6079585 C236.071345,45.6079585 239.130415,47.0585122 241.314092,49.959663 C243.49777,52.8608139 244.589592,56.8596376 244.589592,61.956254 L244.589592,62.3973051 Z M236.061489,61.7798335 C236.061489,58.8198755 235.53525,56.5362336 234.482757,54.9288392 C233.430264,53.3214448 231.900729,52.5177596 229.894106,52.5177596 C227.21861,52.5177596 225.379233,53.5370676 224.375922,55.5757142 L224.375922,68.6014244 C225.418579,70.6988781 227.277628,71.7475892 229.953124,71.7475892 C234.025388,71.7475892 236.061489,68.4250372 236.061489,61.7798335 L236.061489,61.7798335 Z M271.006711,66.9842369 C271.439512,63.8478576 269.806696,61.5544146 266.108216,60.1038392 L261.003157,58.2514244 L259.291635,57.5163392 C253.547186,54.9092239 250.861894,51.2436355 251.235676,46.5194642 C251.432404,44.1475773 252.248812,42.0501551 253.684924,40.2271346 C255.121036,38.4041142 257.024348,36.9976652 259.394917,36.0077454 C261.765485,35.0178257 264.28848,34.5522764 266.963977,34.6110835 C269.560782,34.6698906 271.877216,35.2481519 273.913348,36.3458846 C275.94948,37.4436174 277.498687,38.9774799 278.561017,40.9475182 C279.623346,42.9175564 280.095486,45.1374916 279.977449,47.6073903 L274.400247,47.5779869 C274.596974,44.9512692 274.0068,42.9175538 272.629706,41.4767795 C271.252612,40.0360053 269.285365,39.2960269 266.727905,39.2568221 C264.032735,39.2176174 261.780237,39.8448838 259.970342,41.1386403 C258.160447,42.4323968 257.117806,44.1965837 256.842387,46.431254 C256.448932,49.3520072 258.248964,51.5670419 262.242536,53.0764244 L266.639378,54.6348051 L268.852553,55.5757142 C274.400274,58.1240224 276.967532,61.9072232 276.554404,66.9254301 C276.338004,69.3365217 275.521596,71.4192423 274.105157,73.1736545 C272.688717,74.9280667 270.765733,76.2855105 268.336146,77.2460267 C265.906559,78.2065428 263.295038,78.6573906 260.501504,78.5985835 C257.806335,78.5789811 255.342357,78.0056204 253.109498,76.8784841 C250.876639,75.7513477 249.179888,74.2076842 248.019194,72.2474471 C246.858501,70.2872101 246.347017,68.0623744 246.484726,65.5728733 L252.032419,65.6022767 C251.855364,68.1505849 252.548819,70.1744993 254.112804,71.6740807 C255.67679,73.173662 257.885025,73.9430435 260.737576,73.9822483 C263.590128,74.021453 265.940989,73.4039876 267.790229,72.1298335 C269.639469,70.8556794 270.711619,69.1404977 271.006711,66.9842369 L271.006711,66.9842369 Z M308.312653,70.4832426 L318.493261,46.1960267 L324.011445,46.1960267 L309.463505,78.0105153 L305.125681,78.0105153 L301.820672,53.9585267 L290.312159,78.0105153 L285.974335,78.0105153 L282.521781,46.1960267 L287.626839,46.1960267 L289.574434,69.8951744 L300.905893,46.1960267 L305.214208,46.1960267 L308.312653,70.4832426 Z M328.326318,78.0105153 L323.014696,78.0105153 L328.56239,46.1960267 L333.874011,46.1960267 L328.326318,78.0105153 Z M332.72316,34.5816801 C333.628107,34.5424753 334.380579,34.8120039 334.980599,35.3902738 C335.580618,35.9685438 335.880623,36.7281242 335.880623,37.669038 C335.860951,38.5903495 335.560945,39.3450294 334.980599,39.9331005 C334.400252,40.5211717 333.64778,40.8348049 332.72316,40.8740096 C331.798539,40.9132144 331.041149,40.6485863 330.450966,40.0801176 C329.860783,39.5116488 329.575532,38.7667699 329.595205,37.8454585 C329.614878,36.9241471 329.909965,36.1596661 330.480475,35.5519926 C331.050985,34.9443191 331.798539,34.6208848 332.72316,34.5816801 L332.72316,34.5816801 Z M364.510918,62.250288 C364.117462,65.4846792 363.242037,68.3955876 361.884616,70.9831005 C360.527195,73.5706135 358.845198,75.5063186 356.838576,76.7902738 C354.831953,78.0742291 352.608964,78.686794 350.16954,78.6279869 C346.47106,78.5495774 343.638223,77.3048456 341.670946,74.893754 L338.808573,90.2423335 L333.467442,90.2423335 L341.139784,46.1960267 L345.979261,46.1666233 L345.389081,49.7244358 C348.025232,46.9016944 351.182665,45.529549 354.861472,45.6079585 C357.930425,45.686368 360.32063,46.8134874 362.032161,48.9893505 C363.743692,51.1652137 364.648626,54.1643314 364.74699,57.9867937 C364.766663,59.2413455 364.717481,60.4566742 364.599445,61.6328165 L364.510918,62.250288 Z M359.258315,61.6328165 L359.40586,59.1629301 C359.40586,56.300984 358.859948,54.1104519 357.76811,52.5912682 C356.676271,51.0720844 355.097555,50.2732998 353.031914,50.1948903 C349.943289,50.1164808 347.277669,51.5768355 345.034973,54.5759983 L342.349654,69.8363676 C343.549692,72.659109 345.703828,74.1096627 348.812126,74.1880721 C351.46795,74.2468792 353.725366,73.2128697 355.584443,71.0860125 C357.44352,68.9591553 358.668131,65.8081214 359.258315,61.6328165 L359.258315,61.6328165 Z M381.131046,78.5985835 C377.157147,78.520174 374.048896,77.0598193 371.8062,74.2174755 C369.563504,71.3751318 368.619226,67.7389466 368.973335,63.3088108 L369.12088,62.0444642 C369.455318,58.8884825 370.394678,56.0069772 371.938991,53.3998619 C373.483303,50.7927466 375.366942,48.8276384 377.589965,47.5044784 C379.812988,46.1813184 382.21303,45.5491514 384.790163,45.6079585 C388.075516,45.686368 390.65261,46.7742832 392.521523,48.8717369 C394.390436,50.9691906 395.413405,53.8114917 395.59046,57.3987255 C395.649478,58.6728796 395.610133,59.9470146 395.472424,61.2211687 L395.147825,63.6616517 L374.284957,63.6616517 C373.930847,66.5432002 374.407904,68.9934598 375.716144,71.012504 C377.024383,73.0315481 378.976876,74.0802592 381.573681,74.1586687 C384.721325,74.2370782 387.632851,72.8257287 390.308347,69.9245778 L393.377284,72.5120778 C392.039536,74.4331101 390.313276,75.9375695 388.198453,77.0255011 C386.083631,78.1134327 383.727852,78.6377882 381.131046,78.5985835 L381.131046,78.5985835 Z M384.524582,50.0478733 C382.321232,49.9890662 380.398248,50.7339451 378.755571,52.2825324 C377.112895,53.8311197 375.809594,56.1343637 374.845628,59.1923335 L390.367366,59.2217369 L390.485402,58.7512824 C390.800166,56.2813836 390.401798,54.2280661 389.290287,52.5912682 C388.178775,50.9544702 386.590223,50.1066804 384.524582,50.0478733 L384.524582,50.0478733 Z" id="MapSwipe" fill="#FFFFFF"></path>
            <g id="logo_circle">
                <g id="Layer_1">
                    <g id="Layer_1_1_">
                        <ellipse id="whitecircle_1_" fill="#FFFFFF" cx="57.9841192" cy="57.4325862" rx="57.7743757" ry="57.4325862"></ellipse>
                        <g id="mapswipelogo_copy_2" transform="translate(5.038884, 6.261343)">
                            <g id="bgcolors_1_" transform="translate(0.000000, 3.339383)">
                                <path d="M99.3101075,72.2897096 C98.3119885,74.3453085 97.1933562,76.2971779 95.9655481,78.1426044 C96.4240866,77.8424773 96.7807976,77.4960163 97.0394603,77.1071869 C98.1593523,75.2686479 99.6097111,72.7893648 100.603001,70.8796552 C104.349412,62.29598 105.707181,57.3960617 105.862966,46.9886661 C105.915455,48.1374138 105.449568,49.075363 104.414287,49.7549274 C104.44809,57.3872958 102.810452,65.0829038 99.3101075,72.2897096" id="Shape" fill="url(#radialGradient-1)"></path>
                                <path d="M0.972294682,57.9535299 C1.45203844,60.0085027 2.15895189,62.7338566 2.77579529,64.7520962 C3.92025185,67.8959165 8.52285259,72.3615064 15.5443277,77.1627042 C14.8460223,70.9821325 15.8235658,63.4802087 18.5842445,55.3079038 C7.12120299,47.4689111 0.521314553,40.3067695 1.35566978,36.2586025 C0.540840229,40.5453267 -0.975443985,48.5241561 0.972294682,57.9535299" id="Shape" fill="url(#radialGradient-2)"></path>
                                <path d="M101.895055,33.8471506 C93.5962228,47.3820871 25.5971114,9.2876588 31.3777613,0.0152359347 C29.0096957,1.05441016 26.4537217,2.38849365 23.7558192,4.14626134 C19.7532656,6.9985118 18.92038,7.59229583 15.3637676,10.9790563 C11.6942003,14.960853 11.5516419,15.116343 9.78992199,17.5735027 C6.76029291,22.2096098 6.64229904,22.3905626 5.28368991,25.1699728 C4.4172118,27.1558621 3.30760752,29.8259074 2.57801909,31.8656443 C0.800342762,37.6373503 15.2527022,50.2817151 37.8084272,62.0853902 C63.1951652,75.3707078 89.233599,82.5599819 95.9655481,78.1428131 C97.1933562,76.2973866 98.3119885,74.3455172 99.3101075,72.2899183 C105.286434,59.9838748 105.834203,46.2546279 101.895055,33.8471506 L101.895055,33.8471506 Z" id="Shape" fill="url(#radialGradient-3)"></path>
                                <path d="M104.08697,45.5610799 C105.165501,44.8535481 105.807959,43.8527768 105.659101,42.6186661 C105.463425,41.2607895 105.237935,39.4443739 104.983261,38.0963067 C103.554947,31.9775136 102.50644,28.4075045 99.0722302,22.1296733 L97.338854,19.2949546 C98.5784195,21.1455989 98.4772219,22.6026134 97.2097326,23.4343285 C101.072037,30.2485481 103.313081,37.7548548 104.296923,45.5610799" id="Shape" fill="url(#radialGradient-4)"></path>
                            </g>
                            <g id="fgcolors_1_">
                                <path d="M9.45945518,32.5967604 C7.56987363,32.5967604 5.24967744,32.5727586 4.03215707,33.3712886 C3.28136333,33.8638475 2.80203948,34.4803811 2.578439,35.2052359 C3.33385171,33.1746824 4.39180742,30.4841833 5.28368991,28.5095644 C7.97382417,23.4979855 8.02547273,23.4021869 9.78992199,20.9130944 C13.18571,16.5322414 13.2499558,16.4483394 15.3639776,14.3186479 C15.9921585,13.7367604 16.5329987,13.235853 17.0177814,12.7915064 C17.0177814,12.7912976 9.45945518,23.7202632 9.45945518,32.5967604 L9.45945518,32.5967604 Z" id="Shape" fill="url(#radialGradient-5)"></path>
                                <path d="M66.524188,89.1688294 C61.9112996,85.2423412 55.1386194,80.7899002 46.91726,76.4871053 C28.0460091,66.6115064 8.69102535,61.2666152 3.68615369,64.5508984 C2.48102057,65.3412886 2.21773888,66.5597459 2.77579529,68.0916878 C2.17343869,66.0696915 1.4377616,63.351225 0.972294682,61.293539 C0.171112107,56.1168693 -0.82658695,49.6751996 1.35566978,39.5986116 C1.52783166,38.7572958 2.02374184,38.0501815 2.86229614,37.4998094 C9.49766671,33.1467151 35.158604,40.2318421 60.1779234,53.3249365 C71.07619,59.0286025 80.0567412,64.9313793 86.1720569,70.1385209 C80.7611352,77.8602178 73.9393259,84.3672142 66.524188,89.1688294" id="Shape" fill="url(#radialGradient-6)"></path>
                                <path d="M72.0247599,100.314229 C74.4749173,98.7069419 73.0319069,95.3299909 68.7060248,91.1432396 C76.4690557,86.6555263 83.5400798,80.374147 89.0654262,72.7549274 C94.1584783,77.685735 96.2365981,81.7687568 94.3623432,84.1134211 C92.7769843,85.9429855 90.5758317,88.3089383 88.854003,90.0111887 C84.7135099,93.5221325 84.6343575,93.589755 82.1310818,95.2440018 C78.9635133,97.3213067 75.5704547,99.0189655 72.0247599,100.314229 M45.5550817,102.50069 C53.2131358,103.910953 60.9268276,103.536733 68.1422997,101.553975 C72.7642161,98.5228584 62.383275,88.6706352 44.9567142,79.5509891 C35.5932078,74.6510708 26.1014198,70.9598004 18.6062896,69.0619873 C19.2164145,76.1784211 20.9313147,82.7369691 23.7173977,88.1766152 C27.0220659,89.0131307 31.2064392,90.6406624 35.3337052,92.8004083 C43.0163239,96.8210254 47.5926805,101.163893 45.5550817,102.50069" id="Shape" fill="url(#radialGradient-7)"></path>
                                <path d="M41.6142544,7.7761706 C46.4849658,3.65850272 51.681315,1.0441833 56.7966222,0.118756806 C62.9463703,1.67532668 70.7331259,4.70393829 78.4136451,8.7235118 C87.9304175,13.7035753 94.8851274,18.9497459 97.3537607,22.6345463 L99.0867169,25.469265 C101.7357,30.5470054 103.455639,34.1556261 104.998588,41.4358984 C105.208541,42.7914791 105.523472,44.5949546 105.673588,45.9582577 C105.013704,40.497323 92.9567045,30.4664428 74.9657886,21.0516788 C63.115173,14.8498185 51.1018433,10.1776044 41.6142544,7.7761706" id="Shape" fill="url(#linearGradient-8)"></path>
                                <path d="M64.0070554,50.3796007 C65.0515741,48.355726 66.0755174,46.3111887 67.0734264,44.2560073 C70.5737712,37.048784 73.3758107,30.4854356 75.4146692,24.8708893 C93.627296,34.6260617 105.617531,44.8543829 105.867375,50.3197005 C105.684086,60.1278857 104.553486,65.2634392 100.60741,74.2104809 C99.5895556,76.106833 98.1887458,78.615127 97.0442893,80.4380127 C100.508732,75.2469419 86.6037213,62.4829855 64.0070554,50.3796007" id="Shape" fill="url(#linearGradient-9)"></path>
                            </g>
                        </g>
                        <g id="magni" transform="translate(17.426141, 6.261343)">
                            <path d="M3.77202467,15.6786116 C1.73799512,19.3579855 0.521314553,23.3278857 0.158514896,27.4781125 C-0.874246396,39.278657 5.20390758,50.5897731 15.6442655,56.2946915 C24.6050811,61.1912704 35.0057579,61.0558167 43.5384783,56.8496552 L46.0442734,61.3718058 C45.3690629,62.4848639 45.2899104,63.9137024 45.9655408,65.1342468 L58.7336533,88.1793285 C59.7420599,90.0017967 62.0460897,90.6646642 63.8783539,89.660971 C65.029529,89.0310799 65.7198561,87.8954809 65.8254628,86.6847459 C65.8899185,85.9678221 65.7456804,85.2239746 65.3704935,84.5460799 L52.6015412,61.4999546 C51.925281,60.2800363 50.6680794,59.5829401 49.3619586,59.5553902 L46.8194217,54.9674955 C50.7304356,52.3851089 54.0875921,48.8583031 56.5010077,44.4933122 C58.536297,40.8143557 59.7517178,36.8444555 60.1143075,32.6946461 C61.1474887,20.8934755 55.0689148,9.58298548 44.6285569,3.87806715 C30.092006,-4.06653358 11.763275,1.22743194 3.77202467,15.6786116 L3.77202467,15.6786116 Z" id="frame" fill="#000000"></path>
                            <path d="M48.0636062,10.9596461 C55.6826089,18.0168058 58.3979376,28.8973503 54.9811543,38.6788203 C53.7802202,42.1148367 51.8948377,45.2206715 49.3779151,47.9065789 C39.4926742,58.4531851 22.8192166,59.038412 12.2106859,49.2114428 C4.5914732,42.1549093 1.87614452,31.2745735 5.29355773,21.4928947 C6.49449178,18.055 8.37945434,14.9506261 10.8970068,12.26451 C20.7818278,1.71832123 37.4542356,1.13372051 48.0636062,10.9596461 L48.0636062,10.9596461 Z" id="lens_1_" fill="url(#radialGradient-10)"></path>
                            <g id="human_2_" transform="translate(10.287722, 15.027223)" fill="#5598E5">
                                <path d="M24.4369084,6.29953721 C30.0842378,5.49933757 35.3152293,9.40182396 36.1201911,15.0159528 C36.9253628,20.6302904 32.9998621,25.830127 27.3527427,26.6303267 C21.7047834,27.4309437 16.4735819,23.5286661 15.6686201,17.9145372 C14.8634484,12.3001996 18.7889491,7.10015426 24.4369084,6.29953721 L24.4369084,6.29953721 Z" id="head_2_"></path>
                                <path d="M17.5141114,26.5078131 C15.7620494,25.4836661 12.3605927,23.4885935 10.4508556,20.4470417 C7.84890184,16.3807169 5.61163729,9.8753902 7.46804618,4.62128857 C8.08446967,2.87708711 7.16256383,0.965916515 5.40672266,0.352513612 C3.6508815,-0.260263158 1.72833725,0.657023593 1.11254362,2.4022686 C-1.58577882,10.0350544 1.25237266,19.309147 5.47285802,25.1392922 C7.15059648,28.8503902 8.21044177,33.9348094 9.23144567,38.9743557 C18.0763669,42.8459528 28.5937778,41.6155989 36.3179673,35.440245 C31.9066342,30.3349546 23.8538675,30.2143194 17.5141114,26.5078131 L17.5141114,26.5078131 Z" id="body"></path>
                            </g>
                        </g>
                    </g>
                </g>
            </g>
        </g>
    </g>
</svg>