<svg width="33" height="32" viewBox="0 0 33 32" fill="none" xmlns="http://www.w3.org/2000/svg">
<path d="M16.4998 32C25.3362 32 32.4995 24.8366 32.4995 16C32.4995 7.16344 25.3362 0 16.4998 0C7.66334 0 0.5 7.16344 0.5 16C0.5 24.8366 7.66334 32 16.4998 32Z" fill="#333333"/>
<path d="M29.3399 22.8133C29.0634 23.3859 28.7537 23.9297 28.4137 24.4439C28.5407 24.3602 28.6395 24.2637 28.7112 24.1555C29.0213 23.6431 29.423 22.9525 29.698 22.4205C30.7356 20.0291 31.1115 18.6641 31.1547 15.7646C31.1693 16.0848 31.0402 16.346 30.7536 16.5354C30.7628 18.6617 30.3092 20.8056 29.3399 22.8133Z" fill="url(#paint0_radial_480_771)"/>
<path d="M2.1066 18.8194C2.23942 19.3919 2.43524 20.1512 2.6061 20.7133C2.92296 21.5891 4.19766 22.8332 6.14215 24.1708C5.94878 22.4489 6.21948 20.3591 6.98404 18.0823C3.8095 15.8984 1.98171 13.9032 2.21276 12.7754C1.98708 13.9697 1.56707 16.1924 2.1066 18.8194Z" fill="url(#paint1_radial_480_771)"/>
<path d="M30.0558 12.1039C27.7575 15.8746 8.92608 5.26186 10.527 2.67871C9.8711 2.96826 9.16325 3.33985 8.41612 3.82966C7.30768 4.62417 7.077 4.78958 6.09204 5.73311C5.0759 6.84242 5.03634 6.88565 4.54852 7.57015C3.70956 8.86173 3.67687 8.91222 3.30057 9.68648C3.06067 10.2398 2.75332 10.9836 2.55119 11.5518C2.05894 13.1598 6.06133 16.6823 12.3078 19.9707C19.3384 23.6718 26.5493 25.6747 28.4137 24.4442C28.7537 23.9301 29.0635 23.3863 29.3399 22.8136C30.9949 19.3853 31.1466 15.5605 30.0558 12.1039Z" fill="url(#paint2_radial_480_771)"/>
<path d="M30.6628 15.3672C30.9616 15.17 31.1394 14.8912 31.0982 14.5475C31.044 14.1692 30.9815 13.6631 30.911 13.2876C30.5155 11.583 30.2251 10.5884 29.274 8.83952L28.794 8.0498C29.1374 8.56542 29.1093 8.97129 28.7582 9.20301C29.8279 11.1014 30.4485 13.1925 30.7209 15.3673" fill="url(#paint3_radial_480_771)"/>
<path d="M4.45705 10.8253C3.93372 10.8253 3.29114 10.8186 2.95393 11.0411C2.74605 11.1783 2.61334 11.35 2.55145 11.552C2.76056 10.9862 3.05359 10.2366 3.30056 9.68656C4.04562 8.29043 4.05993 8.26377 4.54851 7.57023C5.48892 6.34977 5.50662 6.32641 6.09221 5.73309C6.26618 5.57098 6.41595 5.43148 6.55027 5.30762C6.55017 5.30771 4.45705 8.35231 4.45705 10.8253Z" fill="url(#paint4_radial_480_771)"/>
<path d="M20.2602 26.5858C18.9828 25.4919 17.1071 24.2514 14.8303 23.0527C9.60421 20.3015 4.24414 18.8124 2.85811 19.7275C2.52439 19.9477 2.45148 20.2871 2.60596 20.7139C2.43914 20.1506 2.23541 19.3933 2.10646 18.8201C1.88464 17.3779 1.60828 15.5833 2.21261 12.7761C2.26027 12.5417 2.3977 12.3447 2.62988 12.1913C4.46747 10.9786 11.5739 12.9525 18.5027 16.6C21.5208 18.189 24.0078 19.8335 25.7014 21.2842C24.203 23.4353 22.3138 25.2481 20.2602 26.5858Z" fill="url(#paint5_radial_480_771)"/>
<path d="M21.7835 29.6905C22.4621 29.2428 22.0624 28.302 20.8645 27.1356C23.0143 25.8854 24.9727 24.1354 26.5027 22.0128C27.9131 23.3865 28.4886 24.524 27.9696 25.1772C27.5304 25.6869 26.921 26.3461 26.4441 26.8203C25.2975 27.7983 25.2757 27.8172 24.5823 28.278C23.7051 28.8566 22.7656 29.3297 21.7835 29.6905ZM14.4532 30.2996C16.574 30.6925 18.7101 30.5882 20.7083 30.0358C21.9885 29.1914 19.1135 26.4466 14.2875 23.906C11.6944 22.5409 9.06566 21.5126 6.99005 20.9839C7.15894 22.9665 7.63385 24.7936 8.40547 26.309C9.32073 26.5421 10.4795 26.9955 11.6224 27.5971C13.75 28.7173 15.0174 29.9272 14.4532 30.2996Z" fill="url(#paint6_radial_480_771)"/>
<path d="M13.3617 3.91053C14.7106 2.76345 16.1497 2.03506 17.5663 1.77734C19.2693 2.21101 21.4258 3.0547 23.5529 4.17456C26.1882 5.56192 28.1143 7.02342 28.7981 8.05003L29.278 8.83975C30.0116 10.2543 30.4878 11.2596 30.9152 13.2879C30.9734 13.6655 31.0605 14.168 31.1021 14.5478C30.9194 13.0263 27.5804 10.2319 22.5979 7.60902C19.3161 5.88115 15.9892 4.57949 13.3617 3.91053Z" fill="url(#paint7_linear_480_771)"/>
<path d="M19.5632 15.7792C19.8524 15.2154 20.136 14.6458 20.4122 14.0732C21.3816 12.0654 22.1577 10.2368 22.7223 8.67285C27.766 11.3905 31.0865 14.24 31.1557 15.7626C31.105 18.495 30.7919 19.9257 29.699 22.4183C29.4171 22.9467 29.0292 23.6454 28.7122 24.1532C29.6717 22.7069 25.821 19.1511 19.5632 15.7792Z" fill="url(#paint8_linear_480_771)"/>
<path d="M6.31238 6.1122C5.74912 7.13721 5.4121 8.24313 5.3116 9.39935C5.02563 12.6869 6.70883 15.838 9.60014 17.4273C12.0817 18.7914 14.9621 18.7537 17.3251 17.5818L18.019 18.8416C17.832 19.1517 17.8101 19.5499 17.9972 19.8898L21.5332 26.3099C21.8125 26.8175 22.4506 27.0023 22.9579 26.7227C23.2768 26.5473 23.468 26.2309 23.4972 25.8936C23.515 25.6938 23.475 25.4867 23.3712 25.2978L19.8351 18.8773C19.6478 18.5375 19.2996 18.3433 18.9379 18.3357L18.2337 17.0576C19.317 16.3382 20.2466 15.3556 20.9149 14.1396C21.4785 13.1147 21.8151 12.0087 21.9156 10.8527C22.2018 7.56503 20.5184 4.41399 17.627 2.82467C13.6014 0.611327 8.52551 2.0862 6.31238 6.1122Z" fill="url(#paint9_radial_480_771)"/>
<path d="M18.5784 4.79725C20.6884 6.76334 21.4403 9.79448 20.4941 12.5196C20.1616 13.4769 19.6393 14.3421 18.9423 15.0903C16.2048 18.0284 11.5873 18.1915 8.64945 15.4538C6.53947 13.4879 5.78753 10.4568 6.73388 7.73174C7.06647 6.77399 7.58848 5.90911 8.28568 5.16084C11.0231 2.22277 15.6403 2.05991 18.5784 4.79725Z" fill="url(#paint10_radial_480_771)"/>
<path d="M14.8843 7.68573C16.4483 7.46278 17.8969 8.54995 18.1199 10.114C18.3428 11.6781 17.2558 13.1268 15.6918 13.3497C14.1277 13.5728 12.679 12.4856 12.4561 10.9216C12.2331 9.35737 13.3203 7.90868 14.8843 7.68573Z" fill="#5598E5"/>
<path d="M12.9671 13.3155C12.4818 13.0302 11.5399 12.4745 11.0109 11.6271C10.2905 10.4944 9.67077 8.68201 10.1849 7.21825C10.3556 6.7324 10.1004 6.19983 9.61407 6.02906C9.12785 5.85829 8.59539 6.11393 8.4249 6.60006C7.67758 8.72647 8.46361 11.3102 9.63244 12.9343C10.097 13.9682 10.3906 15.3847 10.6733 16.7886C13.1227 17.8672 16.0354 17.5245 18.1746 15.804C16.9529 14.3818 14.7228 14.3481 12.9671 13.3155Z" fill="#5598E5"/>
<defs>
<radialGradient id="paint0_radial_480_771" cx="0" cy="0" r="1" gradientUnits="userSpaceOnUse" gradientTransform="translate(18.1858 11.7321) scale(25.8446 25.845)">
<stop stop-color="#D18E38"/>
<stop offset="1" stop-color="#BD4927"/>
</radialGradient>
<radialGradient id="paint1_radial_480_771" cx="0" cy="0" r="1" gradientUnits="userSpaceOnUse" gradientTransform="translate(18.8331 11.7284) scale(25.4545 25.4549)">
<stop stop-color="#D53924"/>
<stop offset="1" stop-color="#C30011"/>
</radialGradient>
<radialGradient id="paint2_radial_480_771" cx="0" cy="0" r="1" gradientUnits="userSpaceOnUse" gradientTransform="translate(17.7733 12.3979) scale(26.6361 26.6364)">
<stop stop-color="#6A9DB6"/>
<stop offset="1" stop-color="#2E55AF"/>
</radialGradient>
<radialGradient id="paint3_radial_480_771" cx="0" cy="0" r="1" gradientUnits="userSpaceOnUse" gradientTransform="translate(31.3266 11.3597) scale(12.9605 12.9607)">
<stop stop-color="#9CAD4C"/>
<stop offset="1" stop-color="#73633D"/>
</radialGradient>
<radialGradient id="paint4_radial_480_771" cx="0" cy="0" r="1" gradientUnits="userSpaceOnUse" gradientTransform="translate(17.4586 11.4535) scale(26.5978 26.5982)">
<stop stop-color="#71BEE6"/>
<stop offset="1" stop-color="#3871E4"/>
</radialGradient>
<radialGradient id="paint5_radial_480_771" cx="0" cy="0" r="1" gradientUnits="userSpaceOnUse" gradientTransform="translate(19.1232 11.6512) scale(24.699 24.6993)">
<stop stop-color="#FF3924"/>
<stop offset="1" stop-color="#FF0011"/>
</radialGradient>
<radialGradient id="paint6_radial_480_771" cx="0" cy="0" r="1" gradientUnits="userSpaceOnUse" gradientTransform="translate(17.3415 17.7073) scale(17.0565 17.0567)">
<stop stop-color="#FDF240"/>
<stop offset="0.2407" stop-color="#FDDB3C"/>
<stop offset="0.7444" stop-color="#FCAF33"/>
<stop offset="1" stop-color="#FC9E30"/>
</radialGradient>
<linearGradient id="paint7_linear_480_771" x1="18.736" y1="9.70351" x2="41.1793" y2="3.46566" gradientUnits="userSpaceOnUse">
<stop stop-color="#B2D25A"/>
<stop offset="0.2455" stop-color="#ACC457"/>
<stop offset="0.7116" stop-color="#9D9E51"/>
<stop offset="1" stop-color="#93834C"/>
</linearGradient>
<linearGradient id="paint8_linear_480_771" x1="18.2544" y1="11.3723" x2="39.3345" y2="25.288" gradientUnits="userSpaceOnUse">
<stop stop-color="#F9AB3E"/>
<stop offset="1" stop-color="#F7612D"/>
</linearGradient>
<radialGradient id="paint9_radial_480_771" cx="0" cy="0" r="1" gradientUnits="userSpaceOnUse" gradientTransform="translate(21.1776 21.8232) scale(39.1195 39.1201)">
<stop stop-color="#563924"/>
<stop offset="1" stop-color="#110011"/>
</radialGradient>
<radialGradient id="paint10_radial_480_771" cx="0" cy="0" r="1" gradientUnits="userSpaceOnUse" gradientTransform="translate(17.6972 11.9734) rotate(-64.5705) scale(37.9491 37.9487)">
<stop stop-color="#EDF7FB"/>
<stop offset="0.1904" stop-color="#EDF2FB"/>
<stop offset="0.4306" stop-color="#ECE2FB"/>
<stop offset="0.6976" stop-color="#EAC8FB"/>
<stop offset="0.9822" stop-color="#E7A4FB"/>
<stop offset="1" stop-color="#E7A2FB"/>
</radialGradient>
</defs>
</svg>
