<?xml version="1.0" standalone="no"?>
<svg xmlns:xlink="http://www.w3.org/1999/xlink" xmlns="http://www.w3.org/2000/svg" class="vtree" width="960" height="800"><style>
.vtree-node text { font: 14px sans-serif; }
.vtree-link { fill: none; stroke: #888; stroke-width: 2px; }
.vtree-table { stroke-width: 2px; stroke: steelblue; }
path.vtree-table { fill: white; }
g.vtree-node rect { fill: white; stroke: black; stroke-width: 1px; }
g.vtree-node rect.number-text { fill: #d8f0ed; }
g.vtree-node rect.string-text { fill: #e7f0db; }
g.vtree-node rect.boolean-text { fill: #e1d8f0; }
g.vtree-node rect.null-text { fill: #888; }
</style><g class="vtree-root" transform="translate(211.23894012680864,212.96445085241044)scale(0.5327617825163881)"><g class="vtree-node" transform="translate(480,20)"><g class="vtree-node" transform="translate(-8,0)"><path class="vtree-link" d="M8,4C8,43.5 740,43.5 740,83"/><path class="vtree-link" d="M8,4C8,43.5 581,43.5 581,83"/><path class="vtree-link" d="M8,4C8,43.5 433,43.5 433,83"/><path class="vtree-link" d="M8,4C8,43.5 206,43.5 206,83"/><path class="vtree-link" d="M8,4C8,43.5 -113,43.5 -113,83"/><path class="vtree-link" d="M8,4C8,43.5 -422,43.5 -422,83"/><path class="vtree-link" d="M8,4C8,48 -688,48 -688,92"/><g class="vtree-node" transform="translate(-809,58)"><g transform="translate(0,21)"><g transform="translate(0,0)"><rect class="string-text" x="0" y="0" width="127" height="25"/><text x="4" y="21">announcementId</text></g><g transform="translate(127,0)"><rect class="string-text" x="0" y="0" width="114" height="25"/><text x="4" y="21">announcement</text></g></g><g><text x="121" y="17" text-anchor="middle">announcement</text></g></g><g class="vtree-node" transform="translate(-446,58)"><path class="vtree-link" d="M24,25C24,100 24,100 24,175"/><g class="vtree-node" transform="translate(-112,79)"><path class="vtree-link" d="M136,96C136,171 136,171 136,246"/><g class="vtree-node" transform="translate(85,221)"><path class="vtree-link" d="M51,25C51,64.5 51,64.5 51,104"/><g class="vtree-node" transform="translate(11,79)"><path class="vtree-link" d="M40,25C40,81.5 40,81.5 40,138"/><g class="vtree-node" transform="translate(-44,79)"><g transform="translate(0,21)"><g transform="translate(0,0)"><rect class="string-text" x="0" y="0" width="84" height="25"/><text x="4" y="21">timestamp</text></g><g transform="translate(84,0)"><rect class="string-text" x="0" y="0" width="84" height="25"/><text x="4" y="21">timestamp</text></g><g transform="translate(0,25)"><rect class="string-text" x="0" y="0" width="84" height="25"/><text x="4" y="21">startTime</text></g><g transform="translate(84,25)"><rect class="string-text" x="0" y="0" width="84" height="25"/><text x="4" y="21">timestamp</text></g><g transform="translate(0,50)"><rect class="string-text" x="0" y="0" width="84" height="25"/><text x="4" y="21">endTime</text></g><g transform="translate(84,50)"><rect class="string-text" x="0" y="0" width="84" height="25"/><text x="4" y="21">timestamp</text></g></g><g><text x="84" y="17" text-anchor="middle">groupId1</text></g></g><g transform="translate(32,21)"><g transform="translate(0,0)"><rect class="string-text" x="0" y="0" width="8" height="8"/><text x="4" y="4"> </text></g><g transform="translate(8,0)"><rect class="string-text" x="0" y="0" width="8" height="8"/><text x="4" y="4"> </text></g></g><g><text x="40" y="17" text-anchor="middle">projectId1</text></g></g><g transform="translate(43,21)"><g transform="translate(0,0)"><rect class="string-text" x="0" y="0" width="8" height="8"/><text x="4" y="4"> </text></g><g transform="translate(8,0)"><rect class="string-text" x="0" y="0" width="8" height="8"/><text x="4" y="4"> </text></g></g><g><text x="51" y="17" text-anchor="middle">contributions</text></g></g><g transform="translate(0,21)"><g transform="translate(0,0)"><rect class="string-text" x="0" y="0" width="187" height="25"/><text x="4" y="21">created</text></g><g transform="translate(187,0)"><rect class="string-text" x="0" y="0" width="84" height="25"/><text x="4" y="21">timestamp</text></g><g transform="translate(0,25)"><rect class="string-text" x="0" y="0" width="187" height="25"/><text x="4" y="21">projectContributionCount</text></g><g transform="translate(187,25)"><rect class="number-text" x="0" y="0" width="84" height="25"/><text x="4" y="21">1</text></g><g transform="translate(0,50)"><rect class="string-text" x="0" y="0" width="187" height="25"/><text x="4" y="21">groupContributionCount</text></g><g transform="translate(187,50)"><rect class="number-text" x="0" y="0" width="84" height="25"/><text x="4" y="21">1</text></g><g transform="translate(0,75)"><rect class="string-text" x="0" y="0" width="187" height="25"/><text x="4" y="21">taskContributionCount</text></g><g transform="translate(187,75)"><rect class="number-text" x="0" y="0" width="84" height="25"/><text x="4" y="21">1</text></g><g transform="translate(0,100)"><rect class="string-text" x="0" y="0" width="187" height="25"/><text x="4" y="21">timeSpentMapping</text></g><g transform="translate(187,100)"><rect class="number-text" x="0" y="0" width="84" height="25"/><text x="4" y="21">1</text></g><g transform="translate(0,125)"><rect class="string-text" x="0" y="0" width="187" height="25"/><text x="4" y="21">username</text></g><g transform="translate(187,125)"><rect class="string-text" x="0" y="0" width="84" height="25"/><text x="4" y="21">name</text></g></g><g><text x="136" y="17" text-anchor="middle">userId1</text></g></g><g transform="translate(16,21)"><g transform="translate(0,0)"><rect class="string-text" x="0" y="0" width="8" height="8"/><text x="4" y="4"> </text></g><g transform="translate(8,0)"><rect class="string-text" x="0" y="0" width="8" height="8"/><text x="4" y="4"> </text></g></g><g><text x="24" y="17" text-anchor="middle">users</text></g></g><g class="vtree-node" transform="translate(-163,58)"><path class="vtree-link" d="M50,25C50,169 50,169 50,313"/><g class="vtree-node" transform="translate(-114,79)"><g transform="translate(0,21)"><g transform="translate(0,0)"><rect class="string-text" x="0" y="0" width="134" height="25"/><text x="4" y="21">country</text></g><g transform="translate(134,0)"><rect class="string-text" x="0" y="0" width="194" height="25"/><text x="4" y="21">name</text></g><g transform="translate(0,25)"><rect class="string-text" x="0" y="0" width="134" height="25"/><text x="4" y="21">createdBy</text></g><g transform="translate(134,25)"><rect class="string-text" x="0" y="0" width="194" height="25"/><text x="4" y="21">user name</text></g><g transform="translate(0,50)"><rect class="string-text" x="0" y="0" width="134" height="25"/><text x="4" y="21">exampleImage</text></g><g transform="translate(134,50)"><rect class="string-text" x="0" y="0" width="194" height="25"/><text x="4" y="21">exampleImage</text></g><g transform="translate(0,75)"><rect class="string-text" x="0" y="0" width="134" height="25"/><text x="4" y="21">exampleMessage</text></g><g transform="translate(134,75)"><rect class="string-text" x="0" y="0" width="194" height="25"/><text x="4" y="21">exampleMessage</text></g><g transform="translate(0,100)"><rect class="string-text" x="0" y="0" width="134" height="25"/><text x="4" y="21">groupMaxSize</text></g><g transform="translate(134,100)"><rect class="number-text" x="0" y="0" width="194" height="25"/><text x="4" y="21">10</text></g><g transform="translate(0,125)"><rect class="string-text" x="0" y="0" width="134" height="25"/><text x="4" y="21">image</text></g><g transform="translate(134,125)"><rect class="string-text" x="0" y="0" width="194" height="25"/><text x="4" y="21">image</text></g><g transform="translate(0,150)"><rect class="string-text" x="0" y="0" width="134" height="25"/><text x="4" y="21">kml</text></g><g transform="translate(134,150)"><rect class="string-text" x="0" y="0" width="194" height="25"/><text x="4" y="21">kml</text></g><g transform="translate(0,175)"><rect class="string-text" x="0" y="0" width="134" height="25"/><text x="4" y="21">lookFor</text></g><g transform="translate(134,175)"><rect class="string-text" x="0" y="0" width="194" height="25"/><text x="4" y="21">text</text></g><g transform="translate(0,200)"><rect class="string-text" x="0" y="0" width="134" height="25"/><text x="4" y="21">name</text></g><g transform="translate(134,200)"><rect class="string-text" x="0" y="0" width="194" height="25"/><text x="4" y="21">name</text></g><g transform="translate(0,225)"><rect class="string-text" x="0" y="0" width="134" height="25"/><text x="4" y="21">projectDetails</text></g><g transform="translate(134,225)"><rect class="string-text" x="0" y="0" width="194" height="25"/><text x="4" y="21">text</text></g><g transform="translate(0,250)"><rect class="string-text" x="0" y="0" width="134" height="25"/><text x="4" y="21">projectType</text></g><g transform="translate(134,250)"><rect class="number-text" x="0" y="0" width="194" height="25"/><text x="4" y="21">2</text></g><g transform="translate(0,275)"><rect class="string-text" x="0" y="0" width="134" height="25"/><text x="4" y="21">purposeMessage</text></g><g transform="translate(134,275)"><rect class="string-text" x="0" y="0" width="194" height="25"/><text x="4" y="21">brief message (140 chars)</text></g><g transform="translate(0,300)"><rect class="string-text" x="0" y="0" width="134" height="25"/><text x="4" y="21">thankYouMessage</text></g><g transform="translate(134,300)"><rect class="string-text" x="0" y="0" width="194" height="25"/><text x="4" y="21">brief message (140 chars)</text></g><g transform="translate(0,325)"><rect class="string-text" x="0" y="0" width="134" height="25"/><text x="4" y="21">tileServer</text></g><g transform="translate(134,325)"><rect class="string-text" x="0" y="0" width="194" height="25"/><text x="4" y="21">name</text></g><g transform="translate(0,350)"><rect class="string-text" x="0" y="0" width="134" height="25"/><text x="4" y="21">tileServerUrl</text></g><g transform="translate(134,350)"><rect class="string-text" x="0" y="0" width="194" height="25"/><text x="4" y="21">url (optional</text></g><g transform="translate(0,375)"><rect class="string-text" x="0" y="0" width="134" height="25"/><text x="4" y="21">verificationCount</text></g><g transform="translate(134,375)"><rect class="number-text" x="0" y="0" width="194" height="25"/><text x="4" y="21">3</text></g><g transform="translate(0,400)"><rect class="string-text" x="0" y="0" width="134" height="25"/><text x="4" y="21">wmtsLayerName</text></g><g transform="translate(134,400)"><rect class="string-text" x="0" y="0" width="194" height="25"/><text x="4" y="21">name (optional)</text></g></g><g><text x="164" y="17" text-anchor="middle">projectDraftId1</text></g></g><g transform="translate(42,21)"><g transform="translate(0,0)"><rect class="string-text" x="0" y="0" width="8" height="8"/><text x="4" y="4"> </text></g><g transform="translate(8,0)"><rect class="string-text" x="0" y="0" width="8" height="8"/><text x="4" y="4"> </text></g></g><g><text x="50" y="17" text-anchor="middle">projectDrafts</text></g></g><g class="vtree-node" transform="translate(174,58)"><path class="vtree-link" d="M32,25C32,225 32,225 32,425"/><g class="vtree-node" transform="translate(-113,79)"><g transform="translate(0,21)"><g transform="translate(0,0)"><rect class="string-text" x="0" y="0" width="160" height="25"/><text x="4" y="21">achived</text></g><g transform="translate(160,0)"><rect class="boolean-text" x="0" y="0" width="130" height="25"/><text x="4" y="21">false</text></g><g transform="translate(0,25)"><rect class="string-text" x="0" y="0" width="160" height="25"/><text x="4" y="21">apiKey</text></g><g transform="translate(160,25)"><rect class="string-text" x="0" y="0" width="130" height="25"/><text x="4" y="21">Text string</text></g><g transform="translate(0,50)"><rect class="string-text" x="0" y="0" width="160" height="25"/><text x="4" y="21">centroid</text></g><g transform="translate(160,50)"><rect class="string-text" x="0" y="0" width="130" height="25"/><text x="4" y="21">wkt</text></g><g transform="translate(0,75)"><rect class="string-text" x="0" y="0" width="160" height="25"/><text x="4" y="21">contributorCount</text></g><g transform="translate(160,75)"><rect class="number-text" x="0" y="0" width="130" height="25"/><text x="4" y="21">2</text></g><g transform="translate(0,100)"><rect class="string-text" x="0" y="0" width="160" height="25"/><text x="4" y="21">country</text></g><g transform="translate(160,100)"><rect class="string-text" x="0" y="0" width="130" height="25"/><text x="4" y="21">name</text></g><g transform="translate(0,125)"><rect class="string-text" x="0" y="0" width="160" height="25"/><text x="4" y="21">created</text></g><g transform="translate(160,125)"><rect class="string-text" x="0" y="0" width="130" height="25"/><text x="4" y="21">timestamp</text></g><g transform="translate(0,150)"><rect class="string-text" x="0" y="0" width="160" height="25"/><text x="4" y="21">createdBy</text></g><g transform="translate(160,150)"><rect class="string-text" x="0" y="0" width="130" height="25"/><text x="4" y="21">user name</text></g><g transform="translate(0,175)"><rect class="string-text" x="0" y="0" width="160" height="25"/><text x="4" y="21">exampleImage</text></g><g transform="translate(160,175)"><rect class="string-text" x="0" y="0" width="130" height="25"/><text x="4" y="21">exampleImage</text></g><g transform="translate(0,200)"><rect class="string-text" x="0" y="0" width="160" height="25"/><text x="4" y="21">exampleMessage</text></g><g transform="translate(160,200)"><rect class="string-text" x="0" y="0" width="130" height="25"/><text x="4" y="21">exampleMessage</text></g><g transform="translate(0,225)"><rect class="string-text" x="0" y="0" width="160" height="25"/><text x="4" y="21">groupMaxSize</text></g><g transform="translate(160,225)"><rect class="number-text" x="0" y="0" width="130" height="25"/><text x="4" y="21">10</text></g><g transform="translate(0,250)"><rect class="string-text" x="0" y="0" width="160" height="25"/><text x="4" y="21">image</text></g><g transform="translate(160,250)"><rect class="string-text" x="0" y="0" width="130" height="25"/><text x="4" y="21">image</text></g><g transform="translate(0,275)"><rect class="string-text" x="0" y="0" width="160" height="25"/><text x="4" y="21">imageOfMap</text></g><g transform="translate(160,275)"><rect class="string-text" x="0" y="0" width="130" height="25"/><text x="4" y="21">image</text></g><g transform="translate(0,300)"><rect class="string-text" x="0" y="0" width="160" height="25"/><text x="4" y="21">inputGeometries</text></g><g transform="translate(160,300)"><rect class="string-text" x="0" y="0" width="130" height="25"/><text x="4" y="21">Text string</text></g><g transform="translate(0,325)"><rect class="string-text" x="0" y="0" width="160" height="25"/><text x="4" y="21">isFeatured</text></g><g transform="translate(160,325)"><rect class="boolean-text" x="0" y="0" width="130" height="25"/><text x="4" y="21">true</text></g><g transform="translate(0,350)"><rect class="string-text" x="0" y="0" width="160" height="25"/><text x="4" y="21">numberOfTasks</text></g><g transform="translate(160,350)"><rect class="number-text" x="0" y="0" width="130" height="25"/><text x="4" y="21">100</text></g><g transform="translate(0,375)"><rect class="string-text" x="0" y="0" width="160" height="25"/><text x="4" y="21">lookFor</text></g><g transform="translate(160,375)"><rect class="string-text" x="0" y="0" width="130" height="25"/><text x="4" y="21">text</text></g><g transform="translate(0,400)"><rect class="string-text" x="0" y="0" width="160" height="25"/><text x="4" y="21">progress</text></g><g transform="translate(160,400)"><rect class="number-text" x="0" y="0" width="130" height="25"/><text x="4" y="21">44</text></g><g transform="translate(0,425)"><rect class="string-text" x="0" y="0" width="160" height="25"/><text x="4" y="21">projectDetails</text></g><g transform="translate(160,425)"><rect class="string-text" x="0" y="0" width="130" height="25"/><text x="4" y="21">details</text></g><g transform="translate(0,450)"><rect class="string-text" x="0" y="0" width="160" height="25"/><text x="4" y="21">projectType</text></g><g transform="translate(160,450)"><rect class="number-text" x="0" y="0" width="130" height="25"/><text x="4" y="21">2</text></g><g transform="translate(0,475)"><rect class="string-text" x="0" y="0" width="160" height="25"/><text x="4" y="21">resultCount</text></g><g transform="translate(160,475)"><rect class="number-text" x="0" y="0" width="130" height="25"/><text x="4" y="21">2</text></g><g transform="translate(0,500)"><rect class="string-text" x="0" y="0" width="160" height="25"/><text x="4" y="21">scale</text></g><g transform="translate(160,500)"><rect class="string-text" x="0" y="0" width="130" height="25"/><text x="4" y="21">scale</text></g><g transform="translate(0,525)"><rect class="string-text" x="0" y="0" width="160" height="25"/><text x="4" y="21">status</text></g><g transform="translate(160,525)"><rect class="string-text" x="0" y="0" width="130" height="25"/><text x="4" y="21">active/inactive</text></g><g transform="translate(0,550)"><rect class="string-text" x="0" y="0" width="160" height="25"/><text x="4" y="21">tileServer</text></g><g transform="translate(160,550)"><rect class="string-text" x="0" y="0" width="130" height="25"/><text x="4" y="21">Text string</text></g><g transform="translate(0,575)"><rect class="string-text" x="0" y="0" width="160" height="25"/><text x="4" y="21">tileServerUrl</text></g><g transform="translate(160,575)"><rect class="string-text" x="0" y="0" width="130" height="25"/><text x="4" y="21">url</text></g><g transform="translate(0,600)"><rect class="string-text" x="0" y="0" width="160" height="25"/><text x="4" y="21">validinputGeometries</text></g><g transform="translate(160,600)"><rect class="string-text" x="0" y="0" width="130" height="25"/><text x="4" y="21">Text string</text></g><g transform="translate(0,625)"><rect class="string-text" x="0" y="0" width="160" height="25"/><text x="4" y="21">verificationNumber</text></g><g transform="translate(160,625)"><rect class="number-text" x="0" y="0" width="130" height="25"/><text x="4" y="21">1</text></g></g><g><text x="145" y="17" text-anchor="middle">projectId1</text></g></g><g transform="translate(24,21)"><g transform="translate(0,0)"><rect class="string-text" x="0" y="0" width="8" height="8"/><text x="4" y="4"> </text></g><g transform="translate(8,0)"><rect class="string-text" x="0" y="0" width="8" height="8"/><text x="4" y="4"> </text></g></g><g><text x="32" y="17" text-anchor="middle">projects</text></g></g><g class="vtree-node" transform="translate(404,58)"><path class="vtree-link" d="M29,25C29,64.5 29,64.5 29,104"/><g class="vtree-node" transform="translate(-11,79)"><path class="vtree-link" d="M40,25C40,100 40,100 40,175"/><g class="vtree-node" transform="translate(-32,79)"><g transform="translate(0,21)"><g transform="translate(0,0)"><rect class="string-text" x="0" y="0" width="109" height="25"/><text x="4" y="21">groupId</text></g><g transform="translate(109,0)"><rect class="number-text" x="0" y="0" width="35" height="25"/><text x="4" y="21">1</text></g><g transform="translate(0,25)"><rect class="string-text" x="0" y="0" width="109" height="25"/><text x="4" y="21">numberOfTask</text></g><g transform="translate(109,25)"><rect class="number-text" x="0" y="0" width="35" height="25"/><text x="4" y="21">455</text></g><g transform="translate(0,50)"><rect class="string-text" x="0" y="0" width="109" height="25"/><text x="4" y="21">progress</text></g><g transform="translate(109,50)"><rect class="number-text" x="0" y="0" width="35" height="25"/><text x="4" y="21">8</text></g><g transform="translate(0,75)"><rect class="string-text" x="0" y="0" width="109" height="25"/><text x="4" y="21">projectId</text></g><g transform="translate(109,75)"><rect class="string-text" x="0" y="0" width="35" height="25"/><text x="4" y="21">id</text></g><g transform="translate(0,100)"><rect class="string-text" x="0" y="0" width="109" height="25"/><text x="4" y="21">finishedCount</text></g><g transform="translate(109,100)"><rect class="number-text" x="0" y="0" width="35" height="25"/><text x="4" y="21">2</text></g><g transform="translate(0,125)"><rect class="string-text" x="0" y="0" width="109" height="25"/><text x="4" y="21">requiredCount</text></g><g transform="translate(109,125)"><rect class="number-text" x="0" y="0" width="35" height="25"/><text x="4" y="21">142</text></g></g><g><text x="72" y="17" text-anchor="middle">groupId1</text></g></g><g transform="translate(32,21)"><g transform="translate(0,0)"><rect class="string-text" x="0" y="0" width="8" height="8"/><text x="4" y="4"> </text></g><g transform="translate(8,0)"><rect class="string-text" x="0" y="0" width="8" height="8"/><text x="4" y="4"> </text></g></g><g><text x="40" y="17" text-anchor="middle">projectId1</text></g></g><g transform="translate(21,21)"><g transform="translate(0,0)"><rect class="string-text" x="0" y="0" width="8" height="8"/><text x="4" y="4"> </text></g><g transform="translate(8,0)"><rect class="string-text" x="0" y="0" width="8" height="8"/><text x="4" y="4"> </text></g></g><g><text x="29" y="17" text-anchor="middle">groups</text></g></g><g class="vtree-node" transform="translate(558,58)"><path class="vtree-link" d="M23,25C23,64.5 23,64.5 23,104"/><g class="vtree-node" transform="translate(-17,79)"><path class="vtree-link" d="M40,25C40,64.5 40,64.5 40,104"/><g class="vtree-node" transform="translate(4,79)"><path class="vtree-link" d="M36,25C36,81.5 36,81.5 36,138"/><g class="vtree-node" transform="translate(-10,79)"><path class="vtree-link" d="M46,59C46,125.5 46,125.5 46,192"/><g class="vtree-node" transform="translate(-20,146)"><g transform="translate(0,21)"><g transform="translate(0,0)"><rect class="string-text" x="0" y="0" width="91" height="25"/><text x="4" y="21">coordinates</text></g><g transform="translate(91,0)"><rect class="number-text" x="0" y="0" width="40" height="25"/><text x="4" y="21">0</text></g><g transform="translate(0,25)"><rect class="string-text" x="0" y="0" width="91" height="25"/><text x="4" y="21">type</text></g><g transform="translate(91,25)"><rect class="string-text" x="0" y="0" width="40" height="25"/><text x="4" y="21">type</text></g></g><g><text x="66" y="17" text-anchor="middle">geojson</text></g></g><g transform="translate(0,21)"><g transform="translate(0,0)"><rect class="string-text" x="0" y="0" width="70" height="25"/><text x="4" y="21">groupId</text></g><g transform="translate(70,0)"><rect class="number-text" x="0" y="0" width="21" height="25"/><text x="4" y="21">1</text></g><g transform="translate(0,25)"><rect class="string-text" x="0" y="0" width="70" height="25"/><text x="4" y="21">projectId</text></g><g transform="translate(70,25)"><rect class="string-text" x="0" y="0" width="21" height="25"/><text x="4" y="21">id</text></g><g transform="translate(0,50)"><rect class="string-text" x="0" y="0" width="70" height="25"/><text x="4" y="21">taskId</text></g><g transform="translate(70,50)"><rect class="string-text" x="0" y="0" width="21" height="25"/><text x="4" y="21">id</text></g></g><g><text x="46" y="17" text-anchor="middle">taskId1</text></g></g><g transform="translate(28,21)"><g transform="translate(0,0)"><rect class="string-text" x="0" y="0" width="8" height="8"/><text x="4" y="4"> </text></g><g transform="translate(8,0)"><rect class="string-text" x="0" y="0" width="8" height="8"/><text x="4" y="4"> </text></g></g><g><text x="36" y="17" text-anchor="middle">groupId1</text></g></g><g transform="translate(32,21)"><g transform="translate(0,0)"><rect class="string-text" x="0" y="0" width="8" height="8"/><text x="4" y="4"> </text></g><g transform="translate(8,0)"><rect class="string-text" x="0" y="0" width="8" height="8"/><text x="4" y="4"> </text></g></g><g><text x="40" y="17" text-anchor="middle">projectId1</text></g></g><g transform="translate(15,21)"><g transform="translate(0,0)"><rect class="string-text" x="0" y="0" width="8" height="8"/><text x="4" y="4"> </text></g><g transform="translate(8,0)"><rect class="string-text" x="0" y="0" width="8" height="8"/><text x="4" y="4"> </text></g></g><g><text x="23" y="17" text-anchor="middle">tasks</text></g></g><g class="vtree-node" transform="translate(712,58)"><path class="vtree-link" d="M28,25C28,64.5 28,64.5 28,104"/><g class="vtree-node" transform="translate(-12,79)"><path class="vtree-link" d="M40,25C40,64.5 40,64.5 40,104"/><g class="vtree-node" transform="translate(4,79)"><path class="vtree-link" d="M36,25C36,81.5 36,81.5 36,138"/><g class="vtree-node" transform="translate(-48,79)"><path class="vtree-link" d="M84,59C84,125.5 84,125.5 84,192"/><g class="vtree-node" transform="translate(41,146)"><g transform="translate(0,21)"><g transform="translate(0,0)"><rect class="string-text" x="0" y="0" width="69" height="25"/><text x="4" y="21">taskId01</text></g><g transform="translate(69,0)"><rect class="number-text" x="0" y="0" width="17" height="25"/><text x="4" y="21">1</text></g><g transform="translate(0,25)"><rect class="string-text" x="0" y="0" width="69" height="25"/><text x="4" y="21">taksId02</text></g><g transform="translate(69,25)"><rect class="number-text" x="0" y="0" width="17" height="25"/><text x="4" y="21">1</text></g></g><g><text x="43" y="17" text-anchor="middle">result</text></g></g><g transform="translate(0,21)"><g transform="translate(0,0)"><rect class="string-text" x="0" y="0" width="84" height="25"/><text x="4" y="21">timestamp</text></g><g transform="translate(84,0)"><rect class="string-text" x="0" y="0" width="84" height="25"/><text x="4" y="21">timestamp</text></g><g transform="translate(0,25)"><rect class="string-text" x="0" y="0" width="84" height="25"/><text x="4" y="21">startTime</text></g><g transform="translate(84,25)"><rect class="string-text" x="0" y="0" width="84" height="25"/><text x="4" y="21">timestamp</text></g><g transform="translate(0,50)"><rect class="string-text" x="0" y="0" width="84" height="25"/><text x="4" y="21">endTime</text></g><g transform="translate(84,50)"><rect class="string-text" x="0" y="0" width="84" height="25"/><text x="4" y="21">timestamp</text></g></g><g><text x="84" y="17" text-anchor="middle">userId1</text></g></g><g transform="translate(28,21)"><g transform="translate(0,0)"><rect class="string-text" x="0" y="0" width="8" height="8"/><text x="4" y="4"> </text></g><g transform="translate(8,0)"><rect class="string-text" x="0" y="0" width="8" height="8"/><text x="4" y="4"> </text></g></g><g><text x="36" y="17" text-anchor="middle">groupId1</text></g></g><g transform="translate(32,21)"><g transform="translate(0,0)"><rect class="string-text" x="0" y="0" width="8" height="8"/><text x="4" y="4"> </text></g><g transform="translate(8,0)"><rect class="string-text" x="0" y="0" width="8" height="8"/><text x="4" y="4"> </text></g></g><g><text x="40" y="17" text-anchor="middle">projectId1</text></g></g><g transform="translate(20,21)"><g transform="translate(0,0)"><rect class="string-text" x="0" y="0" width="8" height="8"/><text x="4" y="4"> </text></g><g transform="translate(8,0)"><rect class="string-text" x="0" y="0" width="8" height="8"/><text x="4" y="4"> </text></g></g><g><text x="28" y="17" text-anchor="middle">results</text></g></g><g transform="translate(0,0)"><rect class="string-text" x="0" y="0" width="8" height="8"/><text x="4" y="4"> </text></g><g transform="translate(8,0)"><rect class="string-text" x="0" y="0" width="8" height="8"/><text x="4" y="4"> </text></g></g></g></g></svg>
